<svg xmlns="http://www.w3.org/2000/svg" width="910.6" height="576"><g stroke-miterlimit="10" fill="#e2e2e2"><path d="m452 0 14 2 23 7 3 2 1-3 1-5 5-1q4-1 5 3l2 7-1 5q-2 1 4 5l7 5h10l-3-4q-4-3-3-7-1-5 5-5h6l3 2 3-3 6-3h6q3 1 4 5 0 4 2 4l4 4q3 4 3 9-1 6 1 11 2 4-1 7l-7 2-4 1 6 3q7 5 7 3l1-3 3-3q2-3 6-1 3 0 5 3l1 3 1-4q1-5 3-7l4-2h3l-7-13-7-14q0-3 2-3 2-1 10 11l9 13 12 7q9 5 11 4l1-2 4-9 4-1q3 1 8-6l8-9 3-4h-3l-4-2-1-6V3l4-2q4 0 5 2l2 5q-1 3 2 2 3 0 3 2l-7 10c-6 8-6 8-4 8l5 1q3 0 2 4 1 4-3 4h-6q-2-1-2-4t-2-1l-2 4q-2 1-2 3l2 4h4q1-2 6 1 5 2 4 6 1 3-1 6-3 2-1 8 2 8-3 9l-4 3q-2 0-2 3v5l6 10c5 7 5 7 8 6l6-2 3-6a18 18 0 0 1 10-8l10-4 16-8c7-6 8-6 14-6q8 0 6-1l-4-1-5-2q-3-2-2-7 0-4 2-7 3-1 0-6l-1-9 1-6 4-4 7-1 7 1 3 2 1 3q1 2 5-1 3-4 8-3l7 1q3 2 3 8 1 7 3 6l3 1q2 2 6 1h6q3 0 2-5 0-5-2-5l1-2 2-3 2-4 6-2h4l2 6q1 4-1 8l-4 5h7l22-2 6-3q1-2 9-2 7-1 9 2l2 4-2 4q-1 3-9 2l-9-1-5-1-4 2-4 1q-5 0 0 2 4 3 4 5l-2 5q-1 3-6 2l-6-3q-2-1-2-6v-3h-13l-15 2-1 3q-1 3 3 4l6 4 2 5q0 4-2 5l-7 1-6-1q-2-2-4 4-2 4-6 5l-6 1-6 2-5 1-8-2q-5-2-4-5 0-3-3-3h-4l-2 2q-2 1 1 3 5 1 3 6 1 6-4 5-3 2-7-1-4-1-4-5l-1-4-2 1-7 3-7 3 4 4q4 5 4 10v6l-2 4q-1 2 5 2t8 3 5 7-1 7l-4 5-4 2-2 1 1 3 2 7q0 5-3 9-3 3-7 3l-3 1-2 1h-2l2 14 3 22v11l4 7 17 27 16 1h14l3 7 3 8-2 4-2 1-3 1q-2 2 1 7l5 9 3 6q2 2 3 1l8-2h10l5 1 6 3 5 5 2 6 1 4 12 33 8 9 27 26 8 4 7 2 7 1 13 2a121 121 0 0 1 36 10h3v183h-37l-2-16-5-47-1-5v-6l-4-8-5-11-6-11-3-7-4-8c-4-6-5-7-11-10l-12-8-3-4-10-11-15-13-5-1c-5 0-6 0-13 7q-7 7-6 8l2 4-1 5q-1 4-5 3-3 0-4-4l-1-4-3 6-6 8-9 4-15 9-2 5-5 8-6 10q-2 3 3 2 4-1 4 2l1 2 1 2-1 2-2 2q-1 3-4 3l-3-2-1-6v-4l-3 2q-2 2-2 6l-2 6q-1 3-4 2t-3-6 2-7l5-6 4-5 2-4 2-3h-6l-6-1-1-4q-1-3 3-4l6-1q3 0 5 3l3 2 1-3 3-5 6-6q4-5 6-5 2 1 0-2l-7-3h-8l-7 4q-5 1-5 5l-2 6-5 1q-4 0-3-4l-1-4-3 3-7 4-9 2q-8-1-5 3l2 2 1 4v6l-3 3-3 4-2 5q-1 2-7 2l-10-1-4-3 1-3 2-6 1-5 1-3 2-3-1-1-5 3-11 8-4 2-4 2q-4 0-3 2l-2 5-5 2q-3 0-3-4v-6q0-2 3-2 2 1 4-1l7-4 7-4q2-2-3-4t-5-5-3-3l-5 1-4 2q0 3-7 3l-11 1-7-1-2-6q0-5-3-8l-4-7 1-8q0-6 4-7 4 1-2-4-3-3-5-7l-2-6 3-6 5-4 1-1-14-9-13-8h-21l-6 6-9 8q-3 1-1 2t2 5l-2 6-3 1-3-1-2-5q1-5-4 4l-5 8-11 5c-10 5-11 6-14 10l-7 12-9 12q-4 4-4 9 1 8-3 6l-4-1-1-6q0-4 2-5 3-1 8-9l6-8h-12q-2-1-3-4l1-4q2-2 8-2t7 2v4h1l4-7 6-8 6-5 4-2-6-3-6-2-8 3-9 3-1 4-1 5q-1 2-5 2-5 1-4-4l1-5 1-2-6 5-6 5h-13l-15 1-3 2 4 1 7 1 4 3q3 3 3 8 2 6-3 6l-4 5-3 5-6 2-8-1-4-2v-4l1-2 1-2 1-2 1-8 1-7-8 6-13 7q-5 1-6 5l-2 4-4 1q-5 0-4-4-1-4 2-5l4-2 9-4 8-5q3-2-3-3l-5-3-1-5q0-2 6-2 5 1 7 3 4 3 2 5v1l5-3 9-5q4-3 16-2h10l7-5c5-4 6-5 11-5l9-1 4-2h-4l-7-2-5-4-2-4v-6l3-4 3-1 3-5 4-3 7-1q5 0 9 3 2 2 1 4l-2 3-2 4-1 4-1 4-3 5 1 2 6-2 8 1 5 2v-4q-1-4 4-3l6 1q2 0 2 4l-2 4-1 1 3-1 5-8q4-7 7-8l3-2h-11q-5-1-5-4l-1-6v-4l-5-1c-5 0-7-1-15-7l-14-12-13-10q-8-7-11-6-4 0-8 4l-4 3 4 4c3 4 4 4 4 10q0 6-3 8-2 4-8 4h-7l-2 4q0 4-3 7l-3 3h-2l-5 1-5-1-3-2-3-3q0-3-7-2t-10-3q-5-3-6-5l-1-6 1-5q1-2-2-4l-3-5-2-4-3-1v6q0 6-4 7l-7 3q-4 0-3 2l-1 5-4 6-5 4h-9c-5-2-5-1-8 1q-1 2-8 2-7 1-9-3-4-2-3-8 1-5-3-5h-5q-2-1-3-4l-1-8 3-8 7-5 4-2h-10l-2 5q-1 5-5 7l-6 1h-7q-3-2-2 2l-3 6c-3 3-3 4-10 3q-9 1-10-3l-3-5-1-1h-6l-8-4-6-6-1-5 2-5v-5l-1-3-2-4q0-3 2-4l1-4 6-4q5-2 2-3l-14-4-18-3-14-2-8-3-7-2-8-4-37-16 1 4 3 6q3 4 3 7l1 6q-1 3 7 4l25 4 5 3 12 11 13 10 4 4q2 2 5 6l10 17 6 9 6 5 3 2 4 2 8 3 7 2 5 4 7 3 3 2-2 1-14-3-15-5-8-2h-2l2 2 4 3 2 6 1 4v5l-2 6-6 1-5 3q-2 3-8 3l-11 1-6-1q-2-3-3-8 0-5-2-5l-3-3-1-9 1-8q1-3 4-3l2-1-2-1q-3-1-5-3t-3-5l-1-7c0-6 0-6 3-8l8-2q4 0 9 4l6 4-1-3-5-6-6-7-4-4-5-4-7-5-20-15-11-2-7-1-8-2-8-3q0-3-2-1v13l1 16q-2 4 6 10l6 8q0 2-3 2l-5-3-6-6q-2-3-3-2l2 2 2 2-1 2-1 1 3 1q3 0 4 4l2 8q0 6-3 8l-4 2-3-2-2-7q1-6-2-3l-7 1-11-1-8-2-5-2-5-2q-3-3-2-7 0-4 2-6l1-3-2-5 1-8 4-6 5-3q3 0 3-2l-1-2-1-8q1-8 3-9l8-2 7 2 2 3q0 2 4 7l4 4 1-4 1-6q3-3 0-6l-2-5-4-10-7-13q-1-5-8-8l-17-10-11-6-6-5-5-8-9-15-5-8-3-3-4-2-4-2-4-2-7-3-8-3-9-4-7-5v-6q1-4 4-2l11 4 8 4 14 7 14 6 3 2 3 2v-12q1-9-2-11l-3-5q0-2-3-2l-3-4-3-4-1-6c0-5 0-5 4-9l5-5 1-3 8-3h7l3-4 4-6 7-1q5 0 7 3v20l1-3 1-2h3l1-8 1-7 1-2 2-5 2-3-4-1-7-5q-4-5-3-8l2-5 3-2 5-4q2-4 7-4l8 2 5 4-3 6-3 6q0 3 1 2l2-1 2 2-6 8q-7 6-6 10l-1 7q0 3 1 1l7-3 5-5-1-6q-1-5 3-6l3-3 1-6 3-5q1-2 7-2l7 1q2 0 2 3l1 4q2 2 4 1l6 1q4 1 4 7l-1 6 1 3q4 2 2 7l-1 6-5 2q-3 0-3 3l-3 4-8 2-6-1-4-1-5-2q-3-1-3-6-1-5-3-3l-4 3-8 5-9 6-2 3q-1 3 4 2 5 0 7 2l3 6-2 4-6 1q-5 0-7-3l-3-3-1 3q0 2-3 5l-10 7-9 5-2 6-1 13v9l4 5 5 6 3 5 4 6 4 3 7 4 7 3q1 2 6-3l9-10 6-7 3-6 6-21q1-4 7-9l12-12q5-7 11-9l8-3 6-8 10-14 11-7 33-19q3-3 7-3l6 2 2 3-1 3q0 2-7 2-7-1-9 2l-9 6-28 14-5 9-4 7 7 3 7 3 5-2q6 0 7-7l1-5h6q6 0 7-2l4-3 7-1q3 1 6 5t6 2l12-6 14-8 5-3v-3q1-2 5-2 4-1 4 3l-1 4-3 2-11 4-8 5h4l6 2 2 4q0 4-4 3l-6-1-3-4v-3l-5 3-7 4-6 1-4 3-3 2 4 2q5 1 5 7 0 4-3 7-2 2-4 1l-1 3-1 6q-1 3-4 3l-5 1-4-1h-13l-3-2-3-4-3-4-1-7v-6l-4 1-10-2q-7-3-9-1l-5 2-3 1-3 2q-2 2-4 1l-2 2q-2 1 2 1l4-1v-1q2 0 2 3l2 4-1 2v1q2 2 6 1 4 0 4 2t-7 6l-8 3-4 2-4 3q-3 0-5 3l-3 2h4q4 0 7 3 3 2 3 6t-3 5l-4 1-5-2-5-5q0-3-5 1-4 2-6 7l-6 9-6 11-4 6q-2 2 3 4l8 3 8 3 6 3 4 2q3 2 21 3c17 1 17 1 31-1l16-4c3 0 5 1 14 6a189 189 0 0 1 31 24q5 4 9 5l8 1 3-3 1-6 1-4-5-4-5-8q-2-5 1-8l4-7q2-2 10-3c7 0 7 0 10 2l4 3 1-5 3-6q4-3 7-3l8 2 4 3 2 6q-1 3 6 3h7l2 2q3 4 2-3l-1-8-3-3-9-7c-9-7-9-7-12-15l-3-7v5q0 6-4 5h-7l-5-4v-6q-1-2 6-3l7 1 2 1 1-3 4-15 11-30c3-6 7-11 20-26q15-19 18-20 2 0 2-4c0-5 0-5 4-8l9-3q4-1 5 2l2 4q0 3-4 6-3 5-9 4-7 0-6 2l-3 5-17 22-15 22-4 9-3 9v1l6-2 7 1 2 6q0 4-4 6-4 3-8 3l-5-1-1-2q0-3-2 1c-2 3-2 3 1 8l5 7q1 3 5 5l6 2q2 1 2-7c1-7 1-8 4-11s3-3 9-3l8 3 3 4 2 5v2l5-3q4-3 7 0l6 3q2 1 2 7l-2 7q-2 2 2 3l4 5 1 5-2 6q-1 3-4 4l-4 2q-2-2-2 1 1 3-1 6a15 15 0 0 1-12 6l-4 2-4 8-3 11 4-1 5 1 3 6 3 3h7q8-1 8-3l2-4h-2l-4-3-3-6-2-7q-1-5 3-8l12-7h3l2 1 4 3 4 2q2 0 2-3l3-6q2-4 8-4c6 0 6 0 9 3q4 3 4 6l1 2v1q-1 3 6 2 7 1 9 3 4 3 4 8 2 5-1 9l-3 4 2 3q3 3 2 4h2l2 1 3 1 14-2 12-3 12 8c10 7 10 7 10 12l1 5 6 1 9 2 17 3 22 4-6-7q-6-6-12-16l-10-15c-3-4-3-5-3-13q-1-10 2-9l7 8 11 15 7 9 12 9 1-3-1-4-1-3q0-4-3-5l-3-5v-8l1-4-1-3-4-1-5-3-2-6 1-5q1-3-1-4-2-3-3 0l-5 5q-3 3-7 3l-7-1q-3-1-3-5l-3-7q-2-3-2-7-1-4 5-9 5-7 6-3l2 3 4 4 4 2-3-4-5-10q-3-6-2-8l-1-4q-1-2-1 1 1 3-1 4l-4 2-5-2q-2-1-2-4-1-3 5-4l5-1-5-5q-5-6-7-12l-3-10q0-7-3-4l-5 1-5-1-4-4v-4l3-3 6 1 6 3v-1l-2-9-3-7-3-3-1-7v-5l4-2 4 2 1 8 2 11 3 12 4 16q-1-4 3-8t9-4q5-2 7 1l2 3q0 2 4 4c3 3 3 3 4 9q1 6-2 9l-4 5-3-2q-2-3-6-4l-3-1-3-1q-4-2 3 5c5 5 6 6 7 14l1 8 2-3q1-4 5-3 4 0 3 5 1 5-2 7l-2 1 3 6 7 13q4 2 3-3l1-8 4-5 2-4-1-1 1-1 2-1-4-1q-4 1-6-3-3-2-3-5l1-5 4-1q4 0 6 3l2 6q0 3 1-1l3-11v-8l-1-5q-1-4 2-7l4-3 3 1 2 6q0 4-3 7-4 4-3 9l-2 13-3 9 1 2 5 1q4 1 6 6l2 4 3-3q3-3 8-1 5 1 6 4 2 2 1 5l1 2v2l-2 3 1 3 4 2q3 3 3 7 2 5-2 8-3 3-6 4l-2 2v4q0 3-6 7l-8 3-5-2q-2-2-4-1l-2 2v7q-1 5 4 10 4 5 16 13l14 10 44 30c2 1 3 0 11-6l13-9 13-2h10l16-8 17-9-4-4-4-9-5-27-7-8-23-21-22-42 2-8 4-23-1-11q-1-11-3-11l-5-2q-3 0-5-3-3-2-3-5l-2-3-3-1-4-3-2-5q0-3-2-3l1-5 3-6 1-3c-1-2-3-2-16-2h-14l-12-18c-10-15-12-17-14-16l-4 1h-5l-4-4q-1-2-4-2-3 1-7-3l-2-6q1-3-7-6l-16-11-32-26-20-17-16-6-22-8-1-3q-1-2 3-2m145 48-1 2 1 4 3 1 5 1q2 1 2-1l-1-3-5-3zm16 17q-2-3-5 2-4 4-4 10v6l9 10c9 8 11 10 14 11h5l-4-9-4-10q0-3-3-1h-6l-3-5v-7l1-5zM82 151l-3 2-2 4q0 3 2 0l3-4zm69 25-2 1-5 4-8 6q-4 4-3 8v3l2-2 3-4 2-3 3-3 6-2 9-3 5-2-4-1-4 1-1 1-1-2zm-32 150v6zm409 47-4 1-1 4v3l4-4 4-4zm212 20h-4l-12 4-22 4 2 11 3 11q1 3-5 2l-7 1-11 2c-7 1-7 1-11-1l-5-2-4-2q-1-2-7-2t-5 2l-1 6q-2 4-5 3l-12-2c-8 0-8 0-8 2l2 4 1 7v5h4q6-1 7 3l3 4v1l5-3 9-4 15-2c10-1 11-1 14-4l6-4 10-2 12-3 5-2 6-1 6 1 3 1q3 1 2-1l1-3 5-2 5 1 2 4q0 4 1 2l4-8 2-7-4-1q-3 0-5-3l-2-6 2-7 2-5 1-4h-10m32 6q-2-1-2 7v6l4-3 5-4 2-1-1-1-4-2z"/><path d="m679 434 5 2v5q0 4-2 4l-5-1q-3-1-3-6v-3zM505 45l5 1q3 1 3 4v5q-1 2-4 3l-6 1-6-1-1-4 1-4 4-3zm38 23 4 2q3 1 3 6t-4 5l-8 1q-5 0-4-6-1-4 4-6zM378 82l5 1q2 1 2 5l-1 5-4 3-8 2-5-1-1-4 1-4 3-4 4-2zm-29 16 5 1 3 1q3 0 3 2l-1 2-3 7-3 10-2 4q-3 2-7 2l-8-1-5-4-1-7q0-5 3-7l4-3 1-4 4-2zm-147 6 4 2 1 7-2 6-5 2-4-1v-7l1-7zm-20 2 2 1 4 2 5 3-3 4-2 6-1 2-1 2-3 4-4 2-4-1-2-2-2-1q0-2-2-1-3 1-2-4l2-7 3-2q2 0 3-3l3-3 2-1zm44 14 5 1 2 5q0 4-2 5h-4l-5-1q-2-1-2-4l1-5zm38 2q5-1 3 4 1 6-4 5l-4-1 1-5q1-3 4-3m63 10q4 0 5 3l2 6-2 5q-1 2-5 2h-5l-1-7 1-7zm-85 1q3 0 3 3v5q-1 3-5 2-4 1-3-4l1-5zm-80 6 3 1 2 6q2 5-1 6l-5 1q-3 0-3-3l-1-2-1-1 1-2 1-2 1-3zm33 0 6 2 2 4-1 3-4 2-7-1-3-3 1-5zm164 1q6 0 7 2l2 5-2 4q-3 3-6 2l-7-1q-2 0-2-4l1-5q0-4 7-3m158 10q5 1 4 4v6q-1 3-5 2-5 1-4-4l1-6zm-211 1q3 0 3 4l5 9q6 6 5 11 0 4-3 6-2 2-7 3l-8 1q-4-1-6-5t-1-6v-4l-1-5 1-5 3-4 3-2 3-1zm39 9 5 2 2 4-2 5-6 5-6 1-5-1-1-5 2-5q2-3 5-4zm237 44q4 1 3 4 1 3-1 5-2 3-6 2-4 1-3-3l2-5q2-3 5-3M131 309q5 0 7 3l3 6-2 4-6 1-6-2q-2-3-2-6l1-5zm302 92q5 1 5 4v5l-5 1q-6 1-5-4v-4q0-2 5-2m57 20 3 3q2 1 1 6 0 4-5 3-5 1-4-4l1-6zm-98 19v4l-2 6-5 1q-2 1-3-2v-5q0-5 5-4zm82 9v10h-4q-5 1-4-4v-5l4-2zm263 6 3 1 2 5-1 5-4 1-5-1v-5l1-5zm-103 18q4 0 4 3v5q-2 3-6 3-5 1-4-4l1-5z"/></g></svg>