<svg xmlns="http://www.w3.org/2000/svg" version="1.0" viewBox="90 30 780 240" fill="#351c75"><path d="M558.1 31.4c-.6.7-1.8 4.4-2.7 8.2-3.6 16.2-13.2 27.9-29.4 35.7-23.8 11.5-51.2 14.7-153.5 17.8-37.8 1.1-86.5.8-164-1.1-60-1.5-71.8-1.4-78.8.4-8.8 2.4-15.5 6.3-21.9 12.6-6.1 6.2-9.3 12.2-10.9 20.5-1.8 9.8 2.4 22.5 10.3 31.1 4.9 5.4 14.5 12 18.8 12.9 1.6.3 4 2.1 5.4 4 3.3 4.2 13 10.8 20.1 13.4 8.1 3 19.9 4.1 50.1 4.3 29.5.3 32-.1 36.9-5.2 2.6-2.7 3.3-3 7.4-2.4 2.6.3 6.4.1 8.6-.3 3.1-.7 4.8-.5 7.7.9 4.6 2.2 10.6 2.3 13.6.2 1.9-1.3 3.1-1.4 6.7-.5 4.9 1.2 11.7 1.3 15.5.2 1.7-.5 3.1-.3 4.3.7 2.6 2.3 11.7 2.8 15.4.9 1.6-.9 3.9-1.4 4.9-1.2s3.6.7 5.7 1c3.6.6 3.7.7 3.7 4.9 0 7.4 1.6 8.5 16.3 10.6 12.8 1.8 17.6 3 23.4 5.6 1.7.8 3.5 1.4 4.1 1.4.5 0 2.3 1.3 4 3 1.8 1.6 3.6 3 4.2 3s1 2.8 1 6.5v6.5h-4.5c-2.5 0-4.5.4-4.5.9s-2.1.7-4.7.5c-2.7-.3-6-.5-7.5-.4-1.6 0-3.7-1.1-5.6-3-2.4-2.4-3.9-3-7.1-3-2.8 0-4.8-.7-6.1-2-2.8-2.8-6.6-2.6-7.4.2-.3 1.3-.9 6.7-1.3 12-.4 7.2-.3 10.1.7 11.3 1.6 2 3.4 1.9 5.6-.2 1.2-1.2 3.4-1.7 7.5-1.8 4.6 0 6.2-.5 8.3-2.4 1.7-1.6 3-2.1 4.3-1.6 1 .5 2.3.7 2.8.5 2.4-.7 9 .2 9.7 1.3.5.8 4 1.2 10 1.3 10.9.2 31.1 2.4 31.9 3.6.3.4 2.6 1.1 5.2 1.4 3.9.6 4.7.4 4.7-1 0-.9.8-1.6 1.8-1.6 4.7-.1 74.6 4.3 226.7 14.3 91.9 6 170.4 10.9 174.5 10.8 9.9-.1 15-1.6 20-5.8 5-4.3 6.7-7.5 7.6-14.1.5-4 1.1-5.2 2.4-5.2 1 0 2.3-.7 3-1.5 1.6-2-.3-4.5-3.5-4.5-1.8 0-2.6-1.1-4.5-6.2-1.8-5-3.7-7.7-9-13-3.7-3.8-7-7.5-7.3-8.3-.5-1-2.1-1.4-5.9-1.3-2.9 0-8.9-.2-13.3-.6s-64.9-4.5-134.5-9.2c-69.5-4.7-126.5-8.6-126.6-8.7s.7-3.5 1.7-7.6c3.8-14.8 5.3-40.2 5.3-89.1.1-32.8-.3-47.6-1.2-52.9-1.6-9.4-3.4-12-6.1-8.7M148.6 103c2 0 1.5.7-3.3 5.2-5.1 4.9-11.3 14.8-11.3 18.1 0 .7-1.8 3.8-4.1 6.8-5.1 6.7-5.9 8.8-6.7 16.8l-.7 6.3-4.7-4.1c-9.4-8.4-12.7-20.9-8.1-31.1 5.1-11.3 19.7-19.7 32.2-18.4 2.4.2 5.4.4 6.7.4m61.2 10.5 1.2 2.6-22.5-.3c-17-.2-22.5-.6-22.5-1.5 0-.7 1-1.5 2.3-1.7 1.2-.3 3.1-.7 4.2-.9 1.1-.3 9.7-.5 19.1-.6l17.1-.1zm16.5-.9c.9.3 1.7 1.2 1.7 2 0 1.1-1.5 1.4-6.5 1.4-5.3 0-6.6-.3-7.5-1.9-.5-1.1-1-2.3-1-2.6 0-.7 9.9.2 13.3 1.1m21.6 2.4c-4.1 2.1-11.9 1.7-11.9-.6 0-1.1 1.8-1.4 7.8-1.4l7.7.1zm-86.2.7c-.4.3-1 .3-1.4 0-.3-.4 0-.7.7-.7s1 .3.7.7m148 1.6c3.4 3 7.6 12.6 8.1 18.4l.5 5.4-3.6-2.4c-5.6-3.8-9.7-7.5-9.7-8.6 0-.6-1-1.1-2.3-1.1-1.4 0-3.9-1.6-6.2-4.1-2.2-2.3-6-5.4-8.5-7.1l-4.5-2.9 12.1.3c10 .2 12.5.6 14.1 2.1m23.9.3 2.9.6-.1 9.6c-.1 14.6 0 14.2-3.3 14.2-2.8 0-3-.3-3.6-4.8-1-6.9-2.5-12.2-4.6-16.4L323 117h3.9c2.1 0 5.1.3 6.7.6m49.9 3c82.7 5.6 117.3 11.1 139 22 16.4 8.1 27.4 21.8 28.9 35.9.3 3.3.9 7 1.2 8.2.8 2.9 3.5 2.9-40.1-.2-19.2-1.4-46.9-3.4-61.5-4.5-14.6-1-27.8-2.4-29.4-3-1.7-.6-12.6-1.2-26.2-1.4-20.1-.2-23.6-.5-25.2-1.9-2.1-1.9-5.7-2.3-6.7-.7-1.3 2.1-3.5 1-3.5-1.9 0-2.6-1.8-5.2-8.1-11.8l-2-2.1 2.2-.4c2.1-.3 2.3-.8 2.3-8.2.1-10.2-1.5-12.8-6.5-10.9-1.8.7-3.5 1.1-3.7.8-.2-.2-.1-5.3.3-11.3l.7-11 8.2.4c4.4.3 18 1.2 30.1 2m-104.3 5c5.3 2.7 12.1 9 11.5 10.7-.5 1.5-5.7 2.2-5.7.8 0-1.8-7.3-9.3-12-12.3-4-2.6-4.2-2.8-1.5-2.2 1.7.4 5.1 1.7 7.7 3M188 129c.6 1 2.2 33.2 1.7 33.6-.1.1-5-.1-10.9-.4l-10.8-.5-1-3.6c-.5-2-1-9.8-1-17.5v-13.8l10.6.5c6.4.3 11 1 11.4 1.7m-25.1 13.2c-.1 16.3-.6 19.2-3.5 19.6-3.2.5-9.9-7.5-11.8-13.9-1.7-5.6-2.1-12.6-.8-14.6 1.2-1.9 9.4-5.3 13-5.3h3.2zm41.7-12.5c1.6 5.2 3.5 8.3 5.2 8.3 2.1 0 14.9 5.3 16.3 6.7.6.6.9 2.3.7 3.9-.3 2.3-1 3-5.3 4.3-4.5 1.5-5.1 2-6.3 5.8l-1.4 4.3H193v-16.8c0-9.3.3-17.2.7-17.5.3-.4 2.8-.7 5.5-.7 3.8 0 5 .4 5.4 1.7m17.8 3.9c2.1 3.1 3.6 5.8 3.4 6-.3.2-2-.2-3.9-.8-10.9-3.6-11.9-4.1-11.9-5.9 0-3.7 1.2-4.9 5-4.9 3.4 0 4 .5 7.4 5.6m5.6-1.9c0 2-.1 3.4-.3 3.2s-1.4-1.9-2.6-3.7l-2.2-3.2h2.5c2.3 0 2.6.4 2.6 3.7m28.7-1.3c6.5 1.7 13.2 4.9 16.1 7.6 4 3.8 2.1 10.9-2.9 11-.9 0-2.2.7-2.9 1.5-2 2.4-3 1.8-3-1.9 0-9.1-5.5-14.3-14.1-13.3-5.4.7-6.1-.2-3.3-4.1 1.8-2.6 3.1-2.7 10.1-.8m57.1 12c3 2.9 4.2 4.8 4.2 6.8s-.5 2.8-1.7 2.8c-1 0-3.4.3-5.5.6l-3.6.6-.7-5.8c-.4-3.3-1.3-7.6-2.1-9.7-2.3-6.2-2.4-6.2 9.4 4.7m-19.6-1.7c.1 1 .2 5.6.3 10.3.1 5.9.6 9.5 1.8 11.7.9 1.8 1.7 4.8 1.7 6.8v3.6l-7.7-.3c-7.8-.3-7.8-.3-8.1-3.2-.2-1.8.6-4.6 1.9-7 1.7-2.9 2.4-6.1 2.7-12.1.3-6.7.8-8.3 2.6-9.7 2.7-2.3 4.6-2.3 4.8-.1m54.8 2.7c0 .3-.5.8-1.2 1.2s-.8.3-.4-.4c.7-1.2 1.6-1.6 1.6-.8m2 2.2c0 .8-.5 1.2-1 .9-.6-.4-.8-1.1-.5-1.6.9-1.4 1.5-1.1 1.5.7m-98.5 6.2c.1 5 .7 7.8 2.4 11.1 1.4 2.7 2 5.2 1.7 6.7-.6 2.2-1.1 2.4-7.3 2.4h-6.6l.6-6.8c.4-3.7.7-8.4.7-10.5 0-2.9.7-4.6 2.9-6.8 4.6-4.6 5.6-3.9 5.6 3.9m80.5-2.5c0 1.3.5 2.8 1.2 3.5.9.9.7 1.2-.9 1.2-2.4 0-2.8-.4-3.7-4.3-.5-2.3-.3-2.7 1.4-2.7 1.4 0 2 .7 2 2.3m-58 1.7c0 .5-.5 1-1.1 1-.5 0-.7-.5-.4-1 .3-.6.8-1 1.1-1 .2 0 .4.4.4 1m-138.1 6.7c1.6 3.1 1.7 4.1.7 3.7-1.4-.5-3.6-5.4-3.6-7.7 0-1.4.4-.8 2.9 4m89.1-1c-.1.5-1.2 2.1-2.5 3.8-2.1 2.5-2.7 2.8-3.5 1.5-1.4-2.1-1.2-4.7.3-5.3 1.9-.8 5.7-.8 5.7 0m106 10.5v6.8h-3.9c-3.6 0-4-.3-4.6-3-.5-2.4-.1-3.7 1.9-6.1 1.4-1.7 2.9-4.2 3.2-5.5.6-2.3.7-2.3 2-.7.8 1.1 1.3 4.5 1.4 8.5m4-8.2c0 1.1-.2 2-.4 2s-.6-.9-.9-2-.1-2 .4-2 .9.9.9 2m15.4 6.7c.4.9.2 2.1-.4 2.7-.5.5-1 2.3-1 3.8 0 2.4-.4 2.8-3 2.8h-3v-14.9l3.4 2c1.9 1.1 3.7 2.7 4 3.6M228 162.6c0 .8-.5 1.2-1 .9-.6-.4-.8-1.1-.5-1.6.9-1.4 1.5-1.1 1.5.7m-72 13.5c2.6 1.5 2.9 1.8 1 1.3-3.5-.9-7.8-3.3-6-3.3.8 0 3.1.9 5 2m185.7 10.5c2.9.6 2.9.7 2.3 5-.8 5.5-1.2 5.8-4.7 4.7-2.5-.8-2.8-1.5-3.1-5.6-.3-5.1-.1-5.2 5.5-4.1m20.8 2.3c.3.6 5.1.7 11.5.4l11-.6v7.7c0 8.4.1 8.3-6.5 6.5-2.2-.6-5.1-1.2-6.5-1.3-6.8-.5-21-4.1-21-5.4 0-.9.7-1.1 2-.7 2.9.9 5.7-1 6.3-4.5.6-3 2-3.9 3.2-2.1m62.7 16.7c.5 14.3-.1 26.2-1.1 24.5-.5-.7-6.1-1.2-15.4-1.3l-14.7-.3-.1-7c-.1-16.2.3-24.8 1.3-27.1l1.2-2.5 14.2.3 14.2.3zm30.3-9.9c7.4 3.8 10.4 9.5 10.4 19.3 0 13.1-4.8 17-20.6 17-5.7 0-9.4-.4-9.9-1.1-.4-.6-.9-9.5-1.2-19.7l-.5-18.5 8.9.5c6.4.3 10 1 12.9 2.5m11.3-.1c.2.1.6 2.2.9 4.6l.5 4.3-1.7-3c-.9-1.7-2.6-4-3.8-5.3l-2.2-2.4 3 .8c1.7.4 3.2.8 3.3 1m128.9 7.4c100.9 6.7 202.5 13.8 224.3 15.7 4.7.4 5.7.8 6.7 3 2.6 5.4-.9 7.3-13.1 7.3-5.9 0-8.7.4-9.5 1.4-2.3 2.7.9 3.5 9.9 2.5 11.7-1.3 12.2-1.5 15.5-4.7 4.3-4.1 7.9-4.8 10.5-2 3.4 3.6 4.9 7.1 6.1 14.5 1 6 .9 7.4-.5 10.1-2.9 5.6-5.7 6.3-22.4 5.7-8.1-.3-38.5-2.1-67.7-4-29.1-1.9-102.7-6.6-163.5-10.5-60.8-3.8-112-7.2-113.7-7.5l-3.3-.6V216h4.3c5.4 0 19.7 1.7 22 2.5 1.4.6 1.7.2 1.7-2.2v-2.8l-13.2-.3c-7.3-.1-13.7-.7-14.2-1.2-1.3-1.3-2.1-17-.8-17 .5 0 54.9 3.6 120.9 8m-127.1 30.7c-.2.3-1.8.2-3.5-.2l-3.1-.7 2.4-2.9c1.3-1.6 2.8-4.3 3.3-6.1.7-2.9.8-2.6 1.1 3.1.2 3.5.1 6.5-.2 6.8"/></svg>