<svg xmlns="http://www.w3.org/2000/svg" version="1.0" viewBox="130 40 1060 380" fill="#59206d"><path d="M1006.1 47.9c-14 2.6-30 7.4-41.7 12.6-11.8 5.3-22.6 8.5-28.3 8.5-4.5 0-6.6-.6-11-3.3-2.9-1.7-6.3-3.8-7.5-4.4-3.1-1.8-8.7-1.5-11.5.6l-2.4 1.9 2.1 5.8c2.9 8.2 3.2 11.2 2.2 18.3-1.5 10.9-6.5 18.5-16.8 25.4-13 8.8-32.8 15.3-54.1 17.8-14.1 1.6-45.6.7-53.5-1.6-7.1-2-14.2-5.5-17.5-8.6-5.9-5.6-7.6-15.9-4.1-24.9 2.3-5.8 2.1-6.4-2.2-8.6-4.1-2.1-9-1.3-14.2 2.4-10 7-18.5 7.1-42.6.2-22.6-6.5-30.9-8-43.4-8-48.3 0-87.5 22.5-110.5 63.2-6.5 11.5-13.2 34.4-15.6 52.8-.5 3.8-.9 4.5-2.8 4.6-1.2 0-9.2.3-17.7.7-86.1 3.9-177.5 6.1-216.2 5.2l-31.8-.7v-7.3c0-9 .9-13.5 2.5-13.5 1.7 0 1.2-4.9-.5-6-.8-.5-.3-1 1.4-1.4 8.6-2.1 4.4-27.9-4.9-30.2-1.5-.4-2.5-1.3-2.5-2.4 0-3.5-7-3.6-7-.1-.1.9-1.5 2.5-3.3 3.6-4.7 2.9-7.1 8.6-7.5 17.8-.3 6.4-.1 8.2 1.3 9.8 1 1 2.5 1.9 3.4 1.9 1.2 0 1.2.3.3 1.2-1.6 1.6-1.5 5.5.2 6.5.9.5 1.5 4 1.9 11l.6 10.2-4.2.5c-2.3.3-9 .8-14.9 1.1l-10.8.6v-7.9c0-6.2.3-8.1 1.5-8.6 1.9-.7 1.9-4.3 0-6.2-2.1-2.1-1.9-3.4.5-3.4 2.6 0 3.4-3.3 2.8-12.3-.6-8.3-3.3-14.7-7.2-16.5-1.6-.7-2.4-1.7-2-2.6.8-2.1-3.1-4-5.6-2.6-1.1.6-2 1.7-2 2.5s-.9 1.9-2 2.5c-3.6 1.9-6.2 8.7-6.8 17.5-.5 8.5.6 12.5 3.3 12.5 1.9 0 1.9 1.4 0 3-2.1 1.8-1.9 4.7.5 6 1.8.9 2 2.1 2 9.5v8.5h-3.4c-1.9 0-4.1.3-4.9.6-1.1.4-1.4-.3-1.3-3.3l.1-3.8-5.7-.3-5.8-.3v-4c0-3.4-.4-4.1-2.7-4.9-1.6-.6-4-1.7-5.5-2.5-3-1.7-11-2-13.9-.5-1.5.8-1.9 2.2-1.9 6.1s-.4 5.1-1.7 5.5c-6.7 2.1-8.2 3.3-8.5 7.1l-.3 3.7-7 1.3c-11.7 2.1-11.2 1.6-10.9 12.7.2 5.3.5 10 .8 10.4.3.5 4.3 1.7 9 2.7l8.6 1.9v3.2c0 3.8 1.7 5.8 6.5 7.5 3.3 1.2 3.5 1.5 3.5 6.1 0 3.7.4 5 1.9 5.8 3.5 1.8 10.8 1.1 16.6-1.6 5.3-2.5 5.5-2.8 5.5-6.5V256h5.4c5.9 0 8.2-1.6 7.1-5-.6-1.9-.4-2.1 2.7-1.6 1.8.4 8 1 13.6 1.5 5.7.5 10.5 1.1 10.6 1.3.2.2.1 4.7-.2 10-.3 7.5-.8 9.8-1.8 9.8-2 0-1.8 4.9.3 5.7 1.4.5 1.3.8-.6 1.4-4 1.5-5.2 8.8-3 18.9 1.1 5.2 5 11 7.5 11 .8 0 1.4.8 1.4 1.9 0 4.3 5.6 5.3 6.7 1.1.3-1.1 1.4-2.2 2.4-2.5 3.7-1.2 7-7.1 8.1-14.3 1.4-8.7.2-14.6-3-15-2.5-.4-2.9-1.7-.7-2.6 1.9-.7 2-5.6.1-5.6s-2.6-3.2-2.6-11.8v-7.3l15.3.6c8.3.4 15.8.8 16.5 1.1 1 .3 1.3 2.7 1.1 9.4-.1 7.7-.4 9.2-2 10.1-2.4 1.2-2.5 5.4-.1 6.4 1.5.7 1.3.9-.8 1.4-4.7 1.3-6.3 8.9-3.8 18.9 1.4 6 3.9 9.6 7.7 11.2 1.9.7 2.8 1.7 2.4 2.6-.3.8.6 1.8 2.2 2.6 2.4 1.1 2.9 1 4.1-.6.7-1.1 1.1-2.2.9-2.7-.3-.4.5-1.1 1.7-1.4 3.6-1.1 7.7-5.5 8.8-9.4 1.3-4.7 1.3-15.7 0-18.2-.6-1.1-2.1-1.9-3.5-1.9-2.7 0-3.3-1.4-1.2-2.7 2.5-1.5 2.8-4.2.7-5.5-1.8-1.1-2-2.4-2-10.5 0-10.6-1.4-9.4 13-11.4 9.1-1.2 65.8-.1 128.5 2.6 5.5.2 31.4 1.2 57.5 2.1s47.8 1.9 48.1 2.3c.4.3.9 3.6 1.3 7.2 1.8 19.5 4.9 31.3 12.9 48.9 2.6 5.7 13.1 20 19.5 26.5 8.6 8.7 11 10.7 19.2 16.1 3.6 2.4 7 4.8 7.7 5.4.7.5 1.7 1 2.4 1 .6 0 2.6.8 4.3 1.9 6.4 3.9 26.9 9.9 37.6 11.2 21.1 2.4 38.7.2 64.8-8.2 19.1-6.1 21.6-6.5 29.3-5 3.3.7 9.1 2.8 12.9 4.8 6.2 3.3 7 3.4 10.3 2.4 5.9-2 6.4-3.3 3.9-10.4-1.2-3.4-2.2-7.8-2.2-9.7.1-7.8 6.8-16.6 15-19.5 26.2-9.3 69.5-7.9 99.3 3.2 3.7 1.4 7.3 3 8 3.6.7.7 1.9 1.3 2.6 1.5 2.1.4 9.4 5.7 13.5 9.7 2.1 2 5 6.4 6.7 9.8 3.7 7.9 4.1 18.5.9 27-2.4 6.4-2 7.9 2.4 9.5 4.7 1.7 6.9 1.5 10.7-1.1 14-9.5 21.3-9.2 47.9 1.8 27.6 11.4 41.2 14.3 67 14.3 30.9 0 55.6-7.4 79.5-23.8 9.1-6.2 23.6-20.5 28.8-28.2 3.8-5.8 12.4-22.3 14.5-27.8 8.5-22 14.2-55.6 14.2-82.8v-8.4l3.3.6c2.7.5 3.9.1 6-1.8 1.5-1.4 2.7-3.3 2.7-4.3s1-2.3 2.3-2.8c1.4-.7 2.2-1.9 2.2-3.5 0-1.8-.6-2.6-2.2-2.8-1.8-.3-2.3-1-2.3-3.2 0-3.7-4.7-7.4-8.3-6.5l-2.4.6-.6-18.3c-.7-20.7-2.4-33.2-6.8-49.8-11.2-42.5-32.1-70.5-65.6-87.9-11.5-6-16.5-7.9-29.3-11.3-10.5-2.7-13.3-3-31.5-3.4-16.6-.3-21.8-.1-30.4 1.5"/></svg>