<svg xmlns="http://www.w3.org/2000/svg" viewBox="41.5 22.4 91.5 45.2"><g fill="none" stroke="#000" stroke-width="4" stroke-linecap="square" stroke-miterlimit="10"><path d="M47.015 68.255s7.63-9.526 17.53-15.342c7.626-4.48 17-5.604 22.804-5.604 5.887 0 15.448 1.265 23.02 5.833 9.551 5.764 16.606 15.112 16.606 15.112"/><path d="M56.969 70.915s5.792-6.459 13.306-10.402c5.789-3.038 12.903-3.8 17.309-3.8 4.469 0 11.726.857 17.473 3.955 7.25 3.908 12.605 10.246 12.605 10.246"/><path d="M67.887 74.125s3.77-3.579 8.66-5.765c3.767-1.683 8.397-2.106 11.264-2.106 2.908 0 7.63.476 11.371 2.193 4.718 2.166 8.203 5.678 8.203 5.678M91.998 90.042s7.63-9.525 17.53-15.341c7.627-4.48 17-5.604 22.804-5.604 5.888 0 15.449 1.265 23.02 5.833 9.552 5.764 16.607 15.112 16.607 15.112M2.157 90.019s7.63-9.525 17.53-15.34c7.627-4.481 17-5.605 22.804-5.605 5.888 0 15.449 1.265 23.02 5.834 9.552 5.764 16.607 15.111 16.607 15.111m9.724-44.672s7.63-9.525 17.53-15.341c7.626-4.48 16.999-5.605 22.803-5.605 5.888 0 15.449 1.265 23.02 5.834 9.552 5.764 16.607 15.112 16.607 15.112"/><path d="M101.796 48.007s5.791-6.458 13.306-10.402c5.789-3.037 12.903-3.8 17.309-3.8 4.468 0 11.726.858 17.472 3.956 7.25 3.908 12.605 10.246 12.605 10.246"/><path d="M112.714 51.218s3.769-3.58 8.66-5.765c3.766-1.683 8.396-2.106 11.263-2.106 2.909 0 7.632.476 11.372 2.192 4.718 2.166 8.203 5.679 8.203 5.679m-31.608 5.55s2.206-1.701 5.069-2.74c2.205-.8 4.915-1.002 6.593-1.002 1.703 0 4.467.226 6.656 1.043 2.762 1.03 4.802 2.7 4.802 2.7M2 45.325s7.63-9.526 17.53-15.342c7.627-4.48 17-5.604 22.804-5.604 5.888 0 15.449 1.265 23.02 5.834 9.552 5.763 16.607 15.111 16.607 15.111"/><path d="M11.955 47.985s5.791-6.459 13.306-10.402c5.789-3.038 12.903-3.8 17.309-3.8 4.468 0 11.726.857 17.473 3.955 7.25 3.908 12.604 10.246 12.604 10.246"/><path d="M22.872 51.195s3.77-3.579 8.66-5.765c3.767-1.683 8.397-2.106 11.264-2.106 2.909 0 7.632.476 11.372 2.193 4.718 2.166 8.203 5.678 8.203 5.678m-31.609 5.55s2.207-1.7 5.07-2.74c2.205-.8 4.915-1.001 6.593-1.001 1.703 0 4.467.226 6.657 1.042 2.761 1.03 4.801 2.7 4.801 2.7m-6.985-33.801s7.63-9.525 17.53-15.34C72.055 3.124 81.428 2 87.232 2c5.888 0 15.449 1.265 23.02 5.834 9.552 5.763 16.607 15.111 16.607 15.111"/><path d="M56.852 25.605s5.793-6.458 13.307-10.401c5.789-3.038 12.903-3.8 17.309-3.8 4.469 0 11.726.857 17.473 3.955 7.25 3.908 12.604 10.246 12.604 10.246"/><path d="M67.771 28.816s3.769-3.579 8.66-5.764c3.766-1.684 8.396-2.106 11.264-2.106 2.908 0 7.63.475 11.37 2.192 4.719 2.166 8.204 5.678 8.204 5.678m-31.608 5.551s2.206-1.702 5.069-2.74c2.205-.801 4.915-1.002 6.593-1.002 1.703 0 4.467.226 6.657 1.042 2.761 1.03 4.801 2.7 4.801 2.7"/></g></svg>