<svg xmlns="http://www.w3.org/2000/svg" version="1.0" width="640" height="640" viewBox="145 145 350 350"><path d="M321.2 169h-55.4l2 3.2c1.1 1.8 26 43.8 55.2 93.3 29.3 49.5 54.2 91.2 55.2 92.7l1.9 2.8h51.6c33.1 0 51.3-.3 51.1-1-.1-.5-24.1-43.7-53.3-95.9l-53-95zm-68.4 22c-.4 0-1.8 1.9-3.2 4.2-1.3 2.4-24.7 44.2-52 93.1L148 377.1l28.1 47c15.5 25.9 28.4 46.7 28.8 46.2.4-.4 24.5-41.5 53.5-91.2l52.7-90.3-7.8-13.3c-4.3-7.3-17.2-29.3-28.8-48.8-11.5-19.6-21.3-35.6-21.7-35.7m135.8 185H285.1l-5.4 9.2c-3 5.1-14.9 25.8-26.6 46-11.6 20.2-21.4 37.4-21.7 38.3-.6 1.3 10.3 1.5 103.7 1.3l104.3-.3 24.3-43.5c13.3-23.9 25.2-45.2 26.3-47.3l2.1-3.7z"/></svg>