<svg xmlns="http://www.w3.org/2000/svg" xmlns:xlink="http://www.w3.org/1999/xlink" viewBox="0 0 12031.384 8750.098" enable-background="new 0 0 12031.384 8750.098" xml:space="preserve"><defs><linearGradient id="a"><stop style="stop-color:#cecece;stop-opacity:.48" offset="0"/><stop style="stop-color:#eaeaea;stop-opacity:1" offset="1"/></linearGradient><linearGradient xlink:href="#a" id="b" x1="4534.722" y1="4135.539" x2="7728.189" y2="4023.768" gradientUnits="userSpaceOnUse" gradientTransform="translate(27.943 19.949)"/><filter style="color-interpolation-filters:sRGB" id="c" x="-.031" width="1.063" y="-.07" height="1.14"><feGaussianBlur stdDeviation="156.829"/></filter></defs><path fill="#d23f31" d="M31.934 823.146v7109.455c0 451.178 369.145 820.32 820.322 820.32h546.88V823.147Z"/><path fill="#c53929" d="M10696.116 823.146v7929.776h546.882c451.177 0 820.321-369.144 820.321-820.321V823.146Z"/><path style="fill:#eee" d="M1399.138 8750.098h9296.978V2190.019l-4648.49 3178.986Z"/><path style="fill:url(#b);fill-opacity:1;stroke:none;stroke-width:1px;stroke-linecap:butt;stroke-linejoin:miter;stroke-opacity:1" d="m299.388 1441.042 8486.636 7305.054 1910.092 4.002 13.972-6558.592-4662.461 3177.499z"/><path style="fill:#e4e4e4;fill-opacity:1;stroke:#000;stroke-width:.98754px;stroke-linecap:butt;stroke-linejoin:miter;stroke-opacity:1" d="m1399.137 2401.718 4648.49 2967.287-4648.49 3381.093z"/><path style="fill:#d0d0d0;fill-opacity:1;stroke:none;stroke-width:.99657px;stroke-linecap:butt;stroke-linejoin:miter;stroke-opacity:1" d="M1417.096 2175.536v201.268l3992.36 3456.525 638.17-464.324z"/><path fill="#db4437" d="M11422.628 365.258 6227.26 3919.985 1031.89 365.258c-451.177 0-820.322 369.145-820.322 820.322 0 280.96 141.505 529.108 356.84 676.766L6227.26 5734.263l5658.85-3871.917c215.334-147.658 356.84-395.805 356.84-676.766 0-451.177-369.145-820.322-820.322-820.322" style="opacity:.506329;fill:gray;filter:url(#c)"/><path fill="#262626" fill-opacity=".2" d="M11244.992 8691.787H854.252c-451.177 0-820.322-369.145-820.322-820.322v68.36c0 451.179 369.145 820.322 820.322 820.322h10390.74c451.177 0 820.321-369.145 820.321-820.322v-68.36c0 451.178-369.144 820.322-820.321 820.322"/><path fill="#3e2723" fill-opacity=".25" d="M11706.479 1428.727 6047.627 5300.645 388.775 1428.727c-206.253-141.43-344.68-375.077-355.998-641.421-.44 10.967-.842 21.946-.842 33.016 0 280.961 141.505 529.108 356.84 676.766l5658.852 3871.917 5658.852-3871.917c215.334-147.658 356.84-395.805 356.84-676.766 0-11.07-.401-22.048-.842-33.015-11.317 266.343-149.746 499.99-355.998 641.42"/><path style="fill:#b0473e;fill-opacity:1;stroke:none;stroke-width:1px;stroke-linecap:butt;stroke-linejoin:miter;stroke-opacity:1" d="m299.388 1441.042 1095.758 948.69V2189.81Z"/><path style="fill:#f1f1f1" d="m852.257 0 5195.37 3554.727L11242.997 0Z"/><path fill="#262626" fill-opacity=".02" style="fill:#4d4d4d" transform="translate(31.935)" d="M920.128 68.36h10191.128L11211.062 0H820.322z"/><path fill="#db4437" d="m11242.997 0-5195.37 3554.727L852.257 0C401.08 0 31.935 369.145 31.935 820.322c0 280.961 141.505 529.108 356.84 676.766l5658.852 3871.917 5658.852-3871.917c215.334-147.658 356.84-395.805 356.84-676.766 0-451.177-369.145-820.322-820.322-820.322"/><path fill="#fff" fill-opacity=".2" d="m11242.997 0-99.807 68.36h99.807c451.177 0 820.321 369.145 820.321 820.322v-68.36c0-451.177-369.144-820.322-820.321-820.322M852.257 68.36h99.806L852.257 0C401.08 0 31.935 369.145 31.935 820.322v68.36c0-451.177 369.145-820.322 820.322-820.322" style="fill:#4d4d4d"/></svg>