<svg xmlns="http://www.w3.org/2000/svg" width="400" height="400" viewBox="0 0 400 400" version="1.1"><path d="M 59.272 19.437 C 39.380 24.257, 22.767 41.620, 19.025 61.500 C 16.590 74.435, 18.110 295.479, 20.679 302.202 C 30.405 327.645, 49.218 338.972, 81.782 338.992 C 98.961 339.003, 104 336.272, 104 326.950 C 104 319.643, 98.896 317, 84.784 317 C 59.980 317, 49.971 312.437, 43.113 298 C 40.500 292.500, 40.500 292.500, 40.216 240.750 L 39.931 189 199.466 189 L 359 189 359 239.962 C 359 297.190, 359.029 296.932, 351.450 305.787 C 344.458 313.956, 337.254 316.372, 318.589 316.810 C 298.747 317.276, 293.377 320.334, 295.492 329.963 C 298.233 342.445, 337.716 342.460, 356.696 329.986 C 367.756 322.717, 375.499 312.168, 379.388 299.068 C 381.686 291.325, 381.835 66.727, 379.547 58.131 C 374.554 39.371, 358.741 23.979, 339.897 19.537 C 331.146 17.475, 67.760 17.380, 59.272 19.437 M 62.995 41.343 C 42.127 47.009, 40.056 53.896, 40.024 117.750 L 40 167 199.534 167 L 359.068 167 358.784 114.750 C 358.335 32.074, 376.260 40.558, 201.500 40.310 C 98.509 40.164, 66.458 40.403, 62.995 41.343 M 192.400 267.400 C 189 270.800, 189 270.800, 189 293.900 L 189 317 165.900 317 C 140.300 317, 136 318.431, 136 326.950 C 136 337.420, 140.125 339, 167.468 339 L 189 339 189 362.099 C 189 388.499, 189.899 391, 199.383 391 C 209.520 391, 211 387.055, 211 360.032 L 211 339 232.032 339 C 259.055 339, 263 337.520, 263 327.383 C 263 317.899, 260.499 317, 234.099 317 L 211 317 211 295.468 C 211 265.328, 204.413 255.387, 192.400 267.400" stroke="none" fill="#080404" fill-rule="evenodd"/></svg>