<svg version="1.0" xmlns="http://www.w3.org/2000/svg" width="483.195" height="496.527" viewBox="0 0 362.397 372.395"><path d="M47 .33c-21.5 2.9-38.7 17.7-45.2 38.8-1.7 5.7-1.8 12.2-1.8 121v115l2.2 7c5.5 17.6 20 31.3 38 36 3.9 1 10.8 1.5 21.9 1.5 14.7 0 16.4-.2 18.7-2 3.8-3 5.2-8 3.3-12.3-2.3-5.6-4.3-6.1-22.6-6.7-15.5-.5-16.8-.7-22.2-3.3-6.2-3-11.5-8.3-15-14.9l-2.3-4.3-.3-52.8-.3-52.7h320.2l-.3 51.2c-.4 58.5-.1 56.6-8.9 66.2-7.7 8.5-12 9.9-31.9 10.6-17.5.5-19.8 1.1-21.9 5.7-2 4.5-1.3 9.2 1.8 12.4l2.9 2.9h16.9c11.5 0 18.5-.5 22.3-1.5 14-3.7 26.7-13.8 33.4-26.4 7-13.3 6.7-7.4 6.4-134.9l-.3-114.7-2.5-6.5c-6.5-16.5-17.4-27.2-34-33.2L319 .13 184.5.03c-74-.1-135.8.1-137.5.3m273.9 23.4c7 2.6 13.9 9.2 17.4 16.7l2.7 5.7v103l-159.7.3-159.8.2v-51.2c0-59.9-.3-57.5 9.5-67.3 10.2-10.2-4.1-9.3 149.7-9.4 133.7-.1 134.8-.1 140.2 2"/><path d="M176.8 247.13c-5.8 2.5-6.3 4.9-6.3 29.5v22h-22c-24.9 0-27.1.5-29.6 6.7-1.9 4.3-.5 9.3 3.3 12.3 2.4 1.9 4 2 25.4 2h22.8l.3 23.4c.3 23.2.3 23.5 2.7 26 3.3 3.5 8.5 4.4 12.7 2.1 1.8-1 3.6-2.5 4.1-3.4.4-.9 1-12 1.3-24.6l.5-23 23-.5c12.7-.3 23.7-.9 24.6-1.3.9-.5 2.4-2.3 3.4-4.1 2.3-4.2 1.4-9.4-2.1-12.7-2.5-2.4-2.8-2.4-26-2.7l-23.4-.3v-22.7c0-25.3-.2-26.1-6.6-28.8-4-1.7-4.1-1.7-8.1.1"/></svg>