<svg xmlns="http://www.w3.org/2000/svg" width="512" height="512" viewBox="0 0 512 512"><path d="m247.4 196.4-3.4 3.4v44.053c0 32.025.326 44.769 1.195 46.675 2.921 6.412 13.893 7.584 19.405 2.072l3.4-3.4v-89.4l-3.4-3.4c-2.995-2.995-4.02-3.4-8.6-3.4s-5.605.405-8.6 3.4m2.363 143.165c-8.622 4.679-6.896 17.959 2.77 21.311 9.847 3.414 18.83-7.473 13.95-16.909-2.828-5.469-10.858-7.583-16.72-4.402" fill="#fff" fill-rule="evenodd"/><path d="M249.78 84.031c-7.346 1.237-15.301 5.386-20.516 10.7-4.602 4.69-151.451 257.348-157.365 270.753-7.624 17.278.549 39.161 17.888 47.893C99.083 418.059 96.944 418 256 418c107.921 0 152.411-.32 156.201-1.124 24.445-5.187 37.555-30.859 27.08-53.027-2.805-5.937-144.826-252.591-151.559-263.219-7.601-12-23.625-19.01-37.942-16.599m-2.209 15.457c-2.161.769-5.62 3.112-7.687 5.206-3.013 3.051-144.307 245.764-154.155 264.806-6.406 12.385 2.247 30.622 15.665 33.018 1.708.305 72.441.426 157.185.268l154.078-.286 4.815-3c9.927-6.184 13.97-19.982 8.793-30-12.135-23.48-151.082-261.715-154.651-265.161-6.361-6.142-15.336-7.953-24.043-4.851m-4.413 82.085c-12.999 6.564-13.331 8.228-12.963 65.007.385 59.465 1.802 62.92 25.805 62.92 24.235 0 25.5-3.225 25.5-65 0-49.157 0-49.157-3.026-54.052-6.744-10.907-23.133-15.026-35.316-8.875m3.765 14.35c-4.605 4.606-4.605 92.548 0 97.154 4.32 4.32 13.834 4.32 18.154 0C268 290.154 268 290.154 268 244.5c0-53.081.368-51.5-12-51.5-5.468 0-6.479.326-9.077 2.923m2.749 128.525c-19.208 5.102-26.114 28.095-12.849 42.778 15.993 17.702 45.133 6.257 45.133-17.726 0-16.907-16.053-29.364-32.284-25.052m1.743 13.973c-11.658 5.076-8.576 23.543 3.934 23.572 13.653.032 17.562-18.372 5.015-23.614-4.016-1.678-5.007-1.674-8.949.042" fill="#2e354c" fill-rule="evenodd"/><path d="M247.571 99.488c-2.161.769-5.62 3.112-7.687 5.206-3.013 3.051-144.307 245.764-154.155 264.806-6.406 12.385 2.247 30.622 15.665 33.018 1.708.305 72.441.426 157.185.268l154.078-.286 4.815-3c9.927-6.184 13.97-19.982 8.793-30-12.135-23.48-151.082-261.715-154.651-265.161-6.361-6.142-15.336-7.953-24.043-4.851m-4.413 82.085c-12.999 6.564-13.331 8.228-12.963 65.007.385 59.465 1.802 62.92 25.805 62.92 24.235 0 25.5-3.225 25.5-65 0-49.157 0-49.157-3.026-54.052-6.744-10.907-23.133-15.026-35.316-8.875m6.514 142.875c-19.208 5.102-26.114 28.095-12.849 42.778 15.993 17.702 45.133 6.257 45.133-17.726 0-16.907-16.053-29.364-32.284-25.052" fill="#fbd57a" fill-rule="evenodd"/></svg>