<svg xmlns="http://www.w3.org/2000/svg" width="512" height="512" viewBox="0 0 512 512" version="1.1"><path d="M 247.400 196.400 L 244 199.800 244 243.853 C 244 275.878, 244.326 288.622, 245.195 290.528 C 248.116 296.940, 259.088 298.112, 264.600 292.600 L 268 289.200 268 244.500 L 268 199.800 264.600 196.400 C 261.605 193.405, 260.580 193, 256 193 C 251.420 193, 250.395 193.405, 247.400 196.400 M 249.763 339.565 C 241.141 344.244, 242.867 357.524, 252.533 360.876 C 262.380 364.290, 271.363 353.403, 266.483 343.967 C 263.655 338.498, 255.625 336.384, 249.763 339.565" stroke="none" fill="#ffffff" fill-rule="evenodd"/><path d="M 249.780 84.031 C 242.434 85.268, 234.479 89.417, 229.264 94.731 C 224.662 99.421, 77.813 352.079, 71.899 365.484 C 64.275 382.762, 72.448 404.645, 89.787 413.377 C 99.083 418.059, 96.944 418, 256 418 C 363.921 418, 408.411 417.680, 412.201 416.876 C 436.646 411.689, 449.756 386.017, 439.281 363.849 C 436.476 357.912, 294.455 111.258, 287.722 100.630 C 280.121 88.630, 264.097 81.620, 249.780 84.031 M 247.571 99.488 C 245.410 100.257, 241.951 102.600, 239.884 104.694 C 236.871 107.745, 95.577 350.458, 85.729 369.500 C 79.323 381.885, 87.976 400.122, 101.394 402.518 C 103.102 402.823, 173.835 402.944, 258.579 402.786 L 412.657 402.500 417.472 399.500 C 427.399 393.316, 431.442 379.518, 426.265 369.500 C 414.130 346.020, 275.183 107.785, 271.614 104.339 C 265.253 98.197, 256.278 96.386, 247.571 99.488 M 243.158 181.573 C 230.159 188.137, 229.827 189.801, 230.195 246.580 C 230.580 306.045, 231.997 309.500, 256 309.500 C 280.235 309.500, 281.500 306.275, 281.500 244.500 C 281.500 195.343, 281.500 195.343, 278.474 190.448 C 271.730 179.541, 255.341 175.422, 243.158 181.573 M 246.923 195.923 C 242.318 200.529, 242.318 288.471, 246.923 293.077 C 251.243 297.397, 260.757 297.397, 265.077 293.077 C 268 290.154, 268 290.154, 268 244.500 C 268 191.419, 268.368 193, 256 193 C 250.532 193, 249.521 193.326, 246.923 195.923 M 249.672 324.448 C 230.464 329.550, 223.558 352.543, 236.823 367.226 C 252.816 384.928, 281.956 373.483, 281.956 349.500 C 281.956 332.593, 265.903 320.136, 249.672 324.448 M 251.415 338.421 C 239.757 343.497, 242.839 361.964, 255.349 361.993 C 269.002 362.025, 272.911 343.621, 260.364 338.379 C 256.348 336.701, 255.357 336.705, 251.415 338.421" stroke="none" fill="#2e354c" fill-rule="evenodd"/><path d="M 247.571 99.488 C 245.410 100.257, 241.951 102.600, 239.884 104.694 C 236.871 107.745, 95.577 350.458, 85.729 369.500 C 79.323 381.885, 87.976 400.122, 101.394 402.518 C 103.102 402.823, 173.835 402.944, 258.579 402.786 L 412.657 402.500 417.472 399.500 C 427.399 393.316, 431.442 379.518, 426.265 369.500 C 414.130 346.020, 275.183 107.785, 271.614 104.339 C 265.253 98.197, 256.278 96.386, 247.571 99.488 M 243.158 181.573 C 230.159 188.137, 229.827 189.801, 230.195 246.580 C 230.580 306.045, 231.997 309.500, 256 309.500 C 280.235 309.500, 281.500 306.275, 281.500 244.500 C 281.500 195.343, 281.500 195.343, 278.474 190.448 C 271.730 179.541, 255.341 175.422, 243.158 181.573 M 249.672 324.448 C 230.464 329.550, 223.558 352.543, 236.823 367.226 C 252.816 384.928, 281.956 373.483, 281.956 349.500 C 281.956 332.593, 265.903 320.136, 249.672 324.448" stroke="none" fill="#fbd57a" fill-rule="evenodd"/></svg>