<svg xmlns="http://www.w3.org/2000/svg" width="512" height="512" viewBox="0 0 512 512" version="1.1"><path d="M 111.955 264.660 C 36.579 325.720, 25.869 351.182, 56.071 397.525 C 82.330 437.816, 129.880 434.853, 197.149 388.734 L 205.798 382.804 195.795 370.652 C 166.733 335.348, 136.441 289.155, 125.554 263.539 C 122.159 255.551, 123.317 255.456, 111.955 264.660 M 86.587 342.419 C 74.215 349.978, 71.645 359, 81.864 359 C 83.995 359, 100.891 348.072, 102.019 345.964 C 103.486 343.224, 103.243 342.152, 100.545 339.455 C 97.213 336.122, 96.722 336.227, 86.587 342.419 M 96 360.800 C 86.759 366.997, 85.005 370.138, 88.580 374.088 C 93.543 379.573, 115.717 365.645, 113.077 358.702 C 111.002 353.246, 106.427 353.808, 96 360.800 M 107.250 378.022 C 98.591 383.621, 98 384.219, 98 387.379 C 98 394.741, 102.650 395.220, 113.069 388.929 C 125.416 381.475, 127.069 378.978, 122.608 374.517 C 119.059 370.969, 117.668 371.286, 107.250 378.022" stroke="none" fill="#f47676" fill-rule="evenodd"/><path d="M 189.500 408.108 C 181.840 413.118, 164.320 421.910, 152.685 426.584 L 139.870 431.732 146.185 436.206 C 193.455 469.700, 205.896 474.320, 216.999 462.501 C 219.840 459.477, 219.446 458.363, 212.026 448.441 C 206.516 441.072, 198.363 427.977, 195.408 421.748 C 193.673 418.093, 193.680 417.924, 195.666 415.237 C 199.763 409.696, 195.178 404.395, 189.500 408.108" stroke="none" fill="#4e73a8" fill-rule="evenodd"/><path d="" stroke="none" fill="#000000" fill-rule="evenodd"/><path d="M 337.648 32.250 C 334.691 34.951, 320 59.677, 320 61.953 C 320 65.541, 323.021 68.123, 326.845 67.805 C 330.579 67.493, 347.931 41.963, 347.982 36.705 C 348.033 31.562, 341.489 28.742, 337.648 32.250 M 212.684 84.449 C 207.619 86.255, 205.507 88.253, 200.471 96 C 189.192 113.353, 151.677 181.029, 130.577 222.087 L 120.300 242.085 106.400 253.197 C 23.647 319.352, 10.663 352.010, 46.070 404.944 C 64.640 432.707, 88.203 443.114, 118.817 437.075 L 124.134 436.026 139.817 446.919 C 193.557 484.242, 204.359 487.785, 222.551 474.049 C 234.191 465.261, 234.095 457.232, 222.158 441.133 C 219.028 436.911, 213.835 429.046, 210.618 423.654 C 203.192 411.210, 197.142 408.677, 194.527 416.916 C 193.571 419.926, 202.641 436.141, 212.616 449.258 C 220.749 459.951, 220.456 462.181, 210.268 467.112 C 200.757 471.716, 186.803 464.987, 146.185 436.206 L 139.870 431.732 152.685 426.584 C 164.088 422.003, 174.110 416.988, 192 406.910 C 195.025 405.206, 201.980 400.659, 207.455 396.806 L 217.410 389.800 228.455 388.367 C 278.413 381.887, 392.993 353.328, 404.648 344.452 C 411.736 339.053, 414.120 327.242, 409.684 319.500 C 408.032 316.618, 357.359 249.571, 346.871 236.390 C 346.333 235.714, 346.785 233.479, 348.030 230.666 C 361.337 200.583, 334.673 164.984, 301.495 168.537 L 295.410 169.189 265.024 129.531 C 227.288 80.281, 226.434 79.545, 212.684 84.449 M 216.079 96.265 C 213.282 97.692, 210.504 102.077, 192.490 133.500 C 177.540 159.579, 156.686 197.967, 141.390 227.562 L 131.022 247.623 138.896 263.663 C 160.332 307.336, 210.467 377.004, 220.454 376.997 C 237.921 376.986, 353.792 351.541, 358.693 346.640 C 359.308 346.025, 360.046 347.027, 276.216 234.608 C 210.746 146.811, 212.625 149.727, 219.157 146.078 C 223.987 143.380, 224.908 144.510, 297.951 242.635 C 337.199 295.361, 370.256 339.505, 371.411 340.733 L 373.512 342.967 384.812 339.428 C 397.008 335.608, 400 333.583, 400 329.150 C 400 325.581, 403.458 330.287, 341.573 249.632 C 312.933 212.304, 288.619 180.579, 287.542 179.132 C 262.567 145.560, 224.228 96.657, 222.312 95.929 C 219.232 94.757, 219.010 94.769, 216.079 96.265 M 436.823 110.130 C 421.638 122.612, 420.104 125.069, 424.829 129.345 C 431.737 135.597, 462.628 108.772, 456.420 101.912 C 452.967 98.096, 449.894 99.385, 436.823 110.130 M 304.640 180.773 C 304.124 181.608, 335.374 223.215, 336.949 223.791 C 339.590 224.756, 339.682 208.816, 337.075 201.955 C 333.134 191.582, 322.784 182.762, 313.005 181.440 C 310.527 181.106, 307.750 180.626, 306.834 180.375 C 305.918 180.124, 304.931 180.303, 304.640 180.773 M 461.231 238.045 C 442.971 240.567, 440.519 241.975, 443.005 248.514 C 445.912 256.160, 484 250.603, 484 242.534 C 484 235.698, 481.618 235.228, 461.231 238.045 M 115.285 261.901 C 46.405 315.781, 29.207 346.284, 47.381 382.343 C 69.875 426.973, 95.779 435.949, 146.055 416.532 C 169.022 407.662, 207.547 384.440, 204.722 381.169 C 173.687 345.249, 146.829 305.893, 129.366 270.750 C 125.609 263.188, 122.302 257.009, 122.017 257.020 C 121.733 257.031, 118.703 259.227, 115.285 261.901" stroke="none" fill="#383a49" fill-rule="evenodd"/><path d="M 214.151 98.856 C 208.235 105.229, 164.714 183.169, 137.811 235.569 L 131.615 247.638 139.203 263.069 C 155.141 295.482, 178.784 330.937, 207.035 364.790 L 217.290 377.079 221.895 376.478 C 257.437 371.840, 312.956 359.877, 352.704 348.293 L 358.907 346.485 286.966 249.992 C 213.957 152.070, 213.380 151.222, 216.844 146.944 C 222.919 139.442, 215.771 131.067, 300.527 245 C 340.010 298.075, 372.481 341.699, 372.683 341.942 C 373.244 342.617, 394.187 336.057, 396.750 334.405 C 403.088 330.318, 406.608 335.416, 312.924 212.987 C 210.334 78.921, 221.105 91.366, 214.151 98.856 M 85 343.800 C 74.535 350.818, 72.900 358, 81.769 358 C 87.347 358, 102 347.229, 102 343.129 C 102 336.062, 96.197 336.292, 85 343.800 M 97.500 360.110 C 86.386 367.159, 84.782 369.782, 89 374 C 92.984 377.984, 113 367.302, 113 361.192 C 113 353.819, 107.972 353.468, 97.500 360.110 M 108.560 377.538 C 97.363 384.791, 95.625 387.540, 99.829 391.345 C 104.048 395.163, 124 384.775, 124 378.760 C 124 371.633, 118.364 371.187, 108.560 377.538" stroke="none" fill="#ffffff" fill-rule="evenodd"/><path d="M 305 181.427 C 305 182.542, 336.183 223, 337.042 223 C 338.279 223, 339.246 213.426, 338.480 208.769 C 336.764 198.343, 328.890 188.051, 319.425 183.864 C 314.856 181.843, 305 180.178, 305 181.427" stroke="none" fill="#ffd071" fill-rule="evenodd"/></svg>