<svg xmlns="http://www.w3.org/2000/svg" width="410" height="512" viewBox="0 0 410 512" version="1.1"><path d="" stroke="none" fill="#080404" fill-rule="evenodd"/><path d="M 52.715 2.010 C 48.851 5.049, 48.012 9.627, 48.006 27.691 L 48 43.881 28.520 44.191 C 9.041 44.500, 9.041 44.500, 6.270 47.273 L 3.500 50.045 3.236 152.421 C 3.067 218.144, 3.326 255.728, 3.961 257.398 C 6.606 264.353, 1.168 263.992, 103.250 263.996 L 195 264 195 284.400 L 195 304.799 182.250 305.184 C 130.857 306.737, 130.857 373.373, 182.250 374.838 L 195 375.201 195 396.355 L 195 417.510 148.425 456.461 C 122.809 477.884, 101.434 496.189, 100.925 497.140 C 97.476 503.585, 102.486 512, 109.773 512 C 114.749 512, 113.442 512.985, 158 475.634 L 194.500 445.037 195 476.106 L 195.500 507.176 198.306 509.588 C 202.111 512.859, 207.889 512.859, 211.694 509.588 L 214.500 507.176 215 476.106 L 215.500 445.037 252 475.634 C 296.558 512.985, 295.251 512, 300.227 512 C 307.512 512, 312.524 503.585, 309.076 497.142 C 308.568 496.193, 287.194 477.885, 261.579 456.458 L 215.005 417.500 215.002 396.250 L 215 375 225.750 374.994 C 278.388 374.967, 280.341 306.826, 227.750 305.195 L 215 304.799 215 284.400 L 215 264 306.750 263.996 C 408.832 263.992, 403.394 264.353, 406.039 257.398 C 406.674 255.728, 406.933 218.144, 406.764 152.421 L 406.500 50.045 403.730 47.273 C 400.959 44.500, 400.959 44.500, 381.480 44.191 L 362 43.881 361.994 27.691 C 361.984 -2.987, 369.129 -0.139, 293.070 0.214 L 231.500 0.500 223.734 4.208 C 219.129 6.407, 213.737 10.027, 210.484 13.103 L 205 18.290 199.516 13.103 C 196.263 10.027, 190.871 6.407, 186.266 4.208 L 178.500 0.500 116.930 0.214 C 55.858 -0.069, 55.339 -0.055, 52.715 2.010 M 69 108.950 L 69 198 132.035 198 L 195.070 198 194.785 120.250 C 194.504 43.611, 194.470 42.435, 192.394 37.949 C 189.316 31.296, 184.619 26.451, 178.182 23.290 L 172.500 20.500 120.750 20.200 L 69 19.900 69 108.950 M 238.147 21.075 C 229.300 22.814, 221.768 29.017, 217.592 38 C 215.534 42.427, 215.495 43.768, 215.215 120.250 L 214.930 198 277.965 198 L 341 198 341 109 L 341 20 291.750 20.110 C 264.663 20.170, 240.541 20.604, 238.147 21.075 M 103.388 49.957 C 96.511 52.811, 95.026 61.226, 100.444 66.644 L 103.888 70.088 132.528 69.794 L 161.167 69.500 164.083 66.234 C 168.024 61.821, 168.024 57.179, 164.083 52.766 L 161.167 49.500 133.333 49.290 C 118.025 49.175, 104.550 49.475, 103.388 49.957 M 249.388 49.957 C 242.876 52.659, 241.125 60.869, 245.917 66.234 L 248.833 69.500 277.472 69.794 L 306.112 70.088 309.556 66.644 C 314.093 62.107, 314.270 57.454, 310.083 52.766 L 307.167 49.500 279.333 49.290 C 264.025 49.175, 250.550 49.475, 249.388 49.957 M 24 154 L 24 243 205 243 L 386 243 386 154 L 386 65 374 65 L 362 65 361.994 135.750 C 361.989 210.442, 361.876 212.379, 357.331 215.955 C 353.222 219.186, 56.778 219.186, 52.669 215.955 C 48.124 212.379, 48.011 210.442, 48.006 135.750 L 48 65 36 65 L 24 65 24 154 M 99.923 101.923 C 97.631 104.216, 97 105.742, 97 109 C 97 112.258, 97.631 113.784, 99.923 116.077 L 102.846 119 131.969 119 C 164.210 119, 164.735 118.887, 166.568 111.586 C 169.404 100.286, 165.869 99, 131.969 99 L 102.846 99 99.923 101.923 M 246.495 101.414 C 242.013 105.896, 242.013 112.104, 246.495 116.586 C 248.909 119, 248.909 119, 278.031 119 L 307.154 119 310.077 116.077 C 312.369 113.784, 313 112.258, 313 109 C 313 105.742, 312.369 104.216, 310.077 101.923 L 307.154 99 278.031 99 C 248.909 99, 248.909 99, 246.495 101.414 M 103.388 148.957 C 96.511 151.811, 95.026 160.226, 100.444 165.644 L 103.888 169.088 132.528 168.794 L 161.167 168.500 164.083 165.234 C 168.024 160.821, 168.024 156.179, 164.083 151.766 L 161.167 148.500 133.333 148.290 C 118.025 148.175, 104.550 148.475, 103.388 148.957 M 249.388 148.957 C 242.876 151.659, 241.125 159.869, 245.917 165.234 L 248.833 168.500 277.472 168.794 L 306.112 169.088 309.556 165.644 C 314.093 161.107, 314.270 156.454, 310.083 151.766 L 307.167 148.500 279.333 148.290 C 264.025 148.175, 250.550 148.475, 249.388 148.957 M 175.500 326.073 C 166.470 328.933, 162.245 339.656, 167.250 347.010 C 172.455 354.658, 171.659 354.500, 205 354.500 C 238.341 354.500, 237.545 354.658, 242.750 347.010 C 246.913 340.893, 244.483 331.542, 237.656 327.410 C 234.092 325.253, 181.650 324.125, 175.500 326.073" stroke="none" fill="#040404" fill-rule="evenodd"/></svg>