<svg xmlns="http://www.w3.org/2000/svg" width="512" height="512" viewBox="0 0 512 512" version="1.1"><path d="" stroke="none" fill="#080404" fill-rule="evenodd"/><path d="M 118.500 26.639 C 72.718 32.329, 39.663 61.765, 28.260 107 C 26.240 115.014, 25.031 378.054, 26.938 394.616 C 31.865 437.409, 61.153 471.125, 103.500 482.754 L 113.500 485.500 256 485.500 L 398.500 485.500 408.206 482.819 C 448.479 471.694, 476.730 441.246, 484.122 401 C 486.159 389.909, 486.159 122.091, 484.122 111 C 476.730 70.751, 448.427 40.253, 408.206 29.194 L 398.500 26.525 260 26.396 C 183.825 26.325, 120.150 26.434, 118.500 26.639 M 114.500 60.470 C 89.392 66.057, 70.515 83.031, 62.221 107.479 L 59.500 115.500 59.225 226.998 C 58.955 336.390, 58.985 338.457, 60.841 336.498 C 61.881 335.399, 72.599 322.575, 84.660 308 C 116.406 269.634, 124.573 263.977, 148.500 263.779 C 170.457 263.597, 183.001 270.625, 202.492 294.030 L 214.683 308.668 246.836 271.910 C 288.735 224.011, 293.731 220.500, 320 220.500 C 347.548 220.500, 349.503 222.005, 406.128 286.810 C 430.969 315.239, 451.690 338.941, 452.176 339.479 C 452.686 340.045, 452.940 293.019, 452.779 227.979 L 452.500 115.500 449.776 107.500 C 442.321 85.611, 426.389 69.679, 404.500 62.224 L 396.500 59.500 258.500 59.317 C 146.550 59.169, 119.367 59.387, 114.500 60.470 M 141.108 107.082 C 118.721 111.478, 103.011 134.069, 106.964 156.184 C 114.351 197.520, 170.508 205.193, 188.245 167.291 C 202.889 135.997, 175.035 100.419, 141.108 107.082" stroke="none" fill="#040404" fill-rule="evenodd"/></svg>