<svg xmlns="http://www.w3.org/2000/svg" width="512" height="512" viewBox="0 0 512 512" version="1.1"><path d="" stroke="none" fill="#080404" fill-rule="evenodd"/><path d="M 168.871 26.508 C 159.449 31.628, 156.588 63.014, 150.509 228 C 148.695 277.213, 146.439 318.787, 144.458 339.500 C 143.669 347.750, 142.980 355.400, 142.926 356.500 C 142.335 368.585, 138.734 331.314, 135.487 279.500 C 130.241 195.817, 126.961 179.481, 114.803 176.476 C 100.625 172.973, 95.351 186.742, 87.983 246.500 C 85.022 270.520, 81.731 289.871, 80.118 292.754 C 79.584 293.709, 77.815 291.707, 74.269 286.137 C 66.045 273.216, 60.759 271.017, 37.899 271.006 C 21.862 270.998, 18 272.646, 18 279.500 C 18 286.573, 19.971 287.352, 39.452 287.983 L 55.405 288.500 58.452 292.738 C 60.129 295.069, 62.854 298.894, 64.508 301.238 C 71.216 310.741, 84.262 312.932, 90.585 305.617 C 96.191 299.132, 98.635 289.187, 102.536 257 C 106.666 222.923, 110.627 197.293, 111.611 198.278 C 113.153 199.820, 116.866 237.611, 119.003 273.500 C 124.580 367.189, 128.790 387, 143.123 387 C 158.814 387, 161.989 362.653, 168.490 192.500 C 170.673 135.345, 173.134 86.812, 173.962 84.574 C 175.362 80.788, 177.451 127.461, 182.506 275.500 C 188.841 461.022, 191.544 484.372, 206.358 481.593 C 218.294 479.353, 221.073 457.118, 226.494 320.500 C 228.594 267.587, 231.786 204.551, 233.532 181.500 C 234.324 171.050, 234.978 161.188, 234.986 159.583 C 235.057 144.775, 238.074 184.509, 240.977 238.500 C 247.968 368.484, 251.258 386.607, 267.499 384.614 C 280.717 382.992, 283.663 369.357, 289.024 285 C 291.852 240.498, 295.095 211.669, 297.048 213.667 C 298.213 214.858, 300.674 233.063, 301.959 250 C 305.265 293.555, 306.025 300.354, 308.722 310.500 C 313.033 326.720, 320.347 333.505, 330.952 331.122 C 342.654 328.493, 347.432 319.565, 351.599 292.546 C 356.613 260.032, 358.639 258.188, 368.009 277.615 C 377.767 297.845, 393.667 300.088, 410.786 283.650 C 418.288 276.446, 420.838 276.073, 428.854 281.005 C 437.577 286.373, 441.200 287, 463.470 287 C 485.290 287, 486.704 286.659, 488.513 280.960 C 490.986 273.168, 487.143 271.641, 463.500 271.023 C 445.110 270.542, 443.178 270.318, 439.500 268.238 C 421.475 258.044, 413.288 258.743, 399.847 271.624 C 389.392 281.644, 387.629 281.141, 380.174 266.016 C 373.410 252.291, 365.721 247.329, 354.485 249.437 C 343.984 251.407, 340.180 259.895, 334.964 293 C 329.251 329.261, 323.677 319.533, 319.493 266 C 314.604 203.444, 310.789 191, 296.500 191 C 281.779 191, 278.630 203.726, 272.535 287.847 C 268.635 341.676, 267.066 357.412, 265.911 354.288 C 263.841 348.693, 260.643 305.191, 256.994 233 C 251.756 129.382, 249.034 114.500, 235.325 114.500 C 221.766 114.500, 218.547 137.983, 212.501 281 C 205.895 437.297, 205.469 441.304, 202.580 374.500 C 201.723 354.700, 200.782 333.100, 200.488 326.500 C 200.195 319.900, 199.061 288.625, 197.969 257 C 190.391 37.473, 187.714 16.270, 168.871 26.508" stroke="none" fill="#040404" fill-rule="evenodd"/></svg>