<svg xmlns="http://www.w3.org/2000/svg" width="512" height="512" viewBox="0 0 512 512" version="1.1"><path d="" stroke="none" fill="#080404" fill-rule="evenodd"/><path d="M 80.763 49.565 C 77.482 51.345, 75 55.789, 75 59.880 L 75 62.859 59.672 63.180 C 37.654 63.640, 30.896 68.652, 30.149 85.076 L 29.797 92.797 22.076 93.149 C 12.984 93.562, 7.796 96.330, 3.259 103.186 L 0.500 107.354 0.500 267.927 L 0.500 428.500 4.208 436.266 C 9.381 447.098, 16.163 453.993, 26.861 459.294 L 35.348 463.500 138.424 463.779 C 251.298 464.084, 245.874 464.342, 253.039 458.313 L 256 455.822 258.961 458.313 C 266.125 464.342, 260.709 464.084, 373.500 463.779 L 476.500 463.500 484.266 459.792 C 496.981 453.720, 511 437.020, 511 427.943 C 511 426.939, 511.450 425.840, 512 425.500 C 512.660 425.092, 513 370.970, 513 266.382 C 513 173.588, 512.630 108.111, 512.107 108.434 C 511.615 108.738, 510.956 107.977, 510.641 106.743 C 508.696 99.129, 498.951 93, 488.790 93 L 482.212 93 481.856 85.177 C 481.437 75.975, 478.698 70.814, 471.815 66.259 L 467.647 63.500 366.520 63.236 L 265.394 62.972 260.697 65.350 L 256 67.728 251.331 65.364 C 246.661 63, 246.661 63, 207.831 63 C 164.235 63, 165 62.869, 165 70.309 C 165 77.748, 163.364 77.441, 206.008 78 C 251.868 78.601, 248 77.117, 248 94.111 L 248 105 244.573 105 C 240.697 105, 237 108.662, 237 112.500 C 237 116.338, 240.697 120, 244.573 120 L 248 120 248 139.500 L 248 159 244.073 159 C 237.135 159, 233.782 165.911, 238.073 171.365 C 239.683 173.413, 241.021 174, 244.073 174 L 248 174 248 194 L 248 214 244.073 214 C 237.135 214, 233.782 220.911, 238.073 226.365 C 239.683 228.413, 241.021 229, 244.073 229 L 248 229 248 249 L 248 269 244.073 269 C 237.135 269, 233.782 275.911, 238.073 281.365 C 239.683 283.413, 241.021 284, 244.073 284 L 248 284 248 304 L 248 324 244.073 324 C 237.135 324, 233.782 330.911, 238.073 336.365 C 239.683 338.413, 241.021 339, 244.073 339 L 248 339 248 359 L 248 379 244.073 379 C 237.135 379, 233.782 385.911, 238.073 391.365 C 239.683 393.413, 241.021 394, 244.073 394 L 248 394 248 403.889 C 248 412.136, 247.682 414.171, 246.089 416.139 L 244.177 418.500 148.339 418.766 C 47.146 419.047, 48.276 419.096, 46.130 414.385 C 44.508 410.827, 44.516 86.156, 46.138 82.597 C 47.762 79.031, 51.803 78, 64.149 78 L 75 78 75 110.050 C 75 145.240, 75.190 146.496, 80.967 149.483 C 87.856 153.045, 92.285 151.578, 102.750 142.269 L 110 135.820 117.250 142.269 C 127.715 151.578, 132.144 153.045, 139.033 149.483 C 144.980 146.408, 145 146.237, 145 99.500 C 145 52.763, 144.980 52.592, 139.033 49.517 C 134.765 47.310, 84.843 47.352, 80.763 49.565 M 90 97.655 L 90 132.310 92.250 130.412 C 93.487 129.368, 96.338 126.882, 98.584 124.889 C 106.685 117.700, 113.315 117.700, 121.416 124.889 C 123.662 126.882, 126.513 129.368, 127.750 130.412 L 130 132.310 130 97.655 L 130 63 110 63 L 90 63 90 97.655 M 268.315 79.007 C 264.788 80.428, 264 83.246, 264 94.434 L 264 105 267.927 105 C 270.979 105, 272.317 105.587, 273.927 107.635 C 278.218 113.089, 274.865 120, 267.927 120 L 264 120 264 139.500 L 264 159 267.427 159 C 271.303 159, 275 162.662, 275 166.500 C 275 170.338, 271.303 174, 267.427 174 L 264 174 264 194 L 264 214 267.427 214 C 271.303 214, 275 217.662, 275 221.500 C 275 225.338, 271.303 229, 267.427 229 L 264 229 264 249 L 264 269 267.427 269 C 271.303 269, 275 272.662, 275 276.500 C 275 280.338, 271.303 284, 267.427 284 L 264 284 264 304 L 264 324 267.427 324 C 271.303 324, 275 327.662, 275 331.500 C 275 335.338, 271.303 339, 267.427 339 L 264 339 264 359 L 264 379 267.427 379 C 271.303 379, 275 382.662, 275 386.500 C 275 390.338, 271.303 394, 267.427 394 L 264 394 264 403.889 C 264 412.136, 264.318 414.171, 265.911 416.139 L 267.823 418.500 363.661 418.766 C 466.781 419.053, 464.042 419.187, 465.935 413.756 C 467.437 409.449, 467.429 87.530, 465.927 83.222 C 465.211 81.166, 463.834 79.789, 461.778 79.073 C 457.972 77.746, 271.602 77.683, 268.315 79.007 M 19.851 109.129 C 14.785 110.985, 14.939 105.638, 15.228 269.509 L 15.500 423.500 18.101 429.046 C 21.813 436.960, 26.204 441.483, 33.814 445.229 L 40.456 448.500 138.050 448.783 C 251.480 449.111, 248 449.497, 248 436.602 L 248 433.500 146.177 433.500 L 44.354 433.500 40.185 430.741 C 37.893 429.224, 34.776 426.107, 33.259 423.815 L 30.500 419.646 30.241 263.823 L 29.981 108 26.241 108.079 C 24.183 108.122, 21.308 108.595, 19.851 109.129 M 481.759 263.823 L 481.500 419.646 478.741 423.815 C 477.224 426.107, 474.107 429.224, 471.815 430.741 L 467.646 433.500 365.823 433.500 L 264 433.500 264 436.602 C 264 449.497, 260.520 449.111, 373.950 448.783 L 471.544 448.500 478.186 445.229 C 492.002 438.427, 496.137 430.193, 496.807 408.153 C 497.334 390.827, 498.049 389, 504.309 389 C 511.077 389, 511.438 389.918, 512.048 408.667 C 512.349 417.925, 512.577 353.950, 512.555 266.500 L 512.515 107.500 512.007 236.831 C 511.437 382.091, 512.200 369, 504.309 369 C 496.337 369, 497 380.644, 497 240.649 C 497 97.160, 497.951 108, 485.360 108 L 482.019 108 481.759 263.823 M 185.942 163.948 C 180.528 165.591, 177.817 167.922, 155.271 190.323 L 132.041 213.402 123.154 204.706 C 108.461 190.328, 96.026 188.824, 85.301 200.128 C 73.194 212.888, 76.223 222.530, 99.810 246.322 C 122.396 269.103, 128.582 272.247, 140.625 267.066 C 148.146 263.831, 212.096 199.461, 213.827 193.384 C 218.963 175.358, 203.195 158.713, 185.942 163.948 M 331.713 164.400 C 311.863 169.830, 309.459 190.035, 326.537 207.911 L 334.265 216 326.550 224.076 C 297.765 254.204, 329.004 285.964, 358.679 256.740 L 366.857 248.686 375.523 256.794 C 404.748 284.137, 436.667 252.530, 408.111 224.527 C 404.200 220.692, 401 216.855, 401 216 C 401 215.145, 404.200 211.308, 408.111 207.473 C 436.667 179.470, 404.748 147.863, 375.523 175.206 L 366.857 183.314 358.679 175.260 C 347.248 164.003, 341.551 161.709, 331.713 164.400 M 165.492 203.107 C 132.365 236.394, 133.097 236.154, 115.863 219.366 C 102.678 206.523, 95 205.133, 95 215.589 C 95 219.983, 128.090 253, 132.493 253 C 135.060 253, 139.794 248.671, 167.233 221.233 C 201.665 186.800, 202.148 186.148, 197 181 C 192.430 176.430, 191.142 177.334, 165.492 203.107 M 334.500 180.195 C 328.412 183.647, 329.494 187.820, 339 197.559 C 347.217 205.978, 350 210.643, 350 216 C 350 221.357, 347.217 226.022, 339 234.441 C 329.417 244.258, 328.360 248.522, 334.684 251.850 C 338.583 253.903, 340.045 253.130, 349.442 244.056 C 355.077 238.614, 359.838 234.862, 361.601 234.473 C 363.196 234.121, 364.995 233.686, 365.600 233.506 C 370.126 232.158, 376.424 235.427, 385.049 243.601 C 394.570 252.624, 397.286 253.714, 401 250 C 404.974 246.026, 403.738 242.624, 395.005 233.505 C 381.046 218.930, 381.046 213.070, 395.005 198.495 C 403.738 189.376, 404.974 185.974, 401 182 C 397.297 178.297, 394.502 179.379, 385.505 187.995 C 370.392 202.469, 364.317 202.366, 348.879 187.373 C 340.292 179.033, 338.301 178.040, 334.500 180.195 M 91.073 296.635 C 89.933 298.084, 89 300.273, 89 301.500 C 89 302.727, 89.933 304.916, 91.073 306.365 L 93.145 309 147 309 L 200.855 309 202.927 306.365 C 205.557 303.022, 205.557 299.978, 202.927 296.635 L 200.855 294 147 294 L 93.145 294 91.073 296.635 M 311.073 296.635 C 309.933 298.084, 309 300.273, 309 301.500 C 309 302.727, 309.933 304.916, 311.073 306.365 L 313.145 309 367 309 L 420.855 309 422.927 306.365 C 425.557 303.022, 425.557 299.978, 422.927 296.635 L 420.855 294 367 294 L 313.145 294 311.073 296.635 M 111.073 326.635 C 109.933 328.084, 109 330.273, 109 331.500 C 109 332.727, 109.933 334.916, 111.073 336.365 L 113.145 339 147 339 L 180.855 339 182.927 336.365 C 185.557 333.022, 185.557 329.978, 182.927 326.635 L 180.855 324 147 324 L 113.145 324 111.073 326.635 M 331.073 326.635 C 329.933 328.084, 329 330.273, 329 331.500 C 329 332.727, 329.933 334.916, 331.073 336.365 L 333.145 339 367 339 L 400.855 339 402.927 336.365 C 405.557 333.022, 405.557 329.978, 402.927 326.635 L 400.855 324 367 324 L 333.145 324 331.073 326.635" stroke="none" fill="#040404" fill-rule="evenodd"/></svg>