<svg xmlns="http://www.w3.org/2000/svg" version="1.0" viewBox="0 0 640 640"><path d="M155 66.3c-17 5.8-28.4 17.6-33.4 34.6-1.4 4.9-1.6 26.5-1.6 219.1s.2 214.2 1.6 219.1c5.1 17.4 17.9 30.2 35.3 35.3 4.9 1.4 23.3 1.6 181.4 1.6h175.9l2.9-2.9c2.3-2.3 2.9-3.8 2.9-7.1 0-3.9-.5-4.7-7.4-11.4-10.4-9.9-13.1-15.8-13.1-28.6s2.7-18.7 13.1-28.6l7.4-7.2V69.8l-2.9-2.9-2.9-2.9H337.8l-176.3.1zM180 280v196h-8.7c-4.9 0-11 .6-13.8 1.4-5.6 1.5-14.2 5.3-15.1 6.7-.3.5-.9.9-1.5.9s-.8-68.8-.7-188.8l.3-188.7 2.3-5c5.6-12.3 15.6-18 32-18.4l5.2-.1zm320 0v196H200V84h300zm-14.3 217.2c-9.9 22.4-9.9 35.2 0 57.6.4 1-30.6 1.2-160.8 1l-161.4-.3-5.1-2.3c-18.7-8.5-23.7-33-9.6-47.5 4.5-4.7 10-7.7 16.1-8.7 2.5-.4 75.9-.8 163-.9 126.3-.1 158.2.2 157.8 1.1"/><path d="M259 131.7c-2.8 1-6.6 3.7-10.1 7.2-9.2 9.3-8.9 6.7-8.9 71.1s-.3 61.8 8.9 71.1c6.4 6.4 12.4 8.9 21.1 8.9 8.8 0 14.7-2.5 21.2-9 3.1-3.2 6-6.9 6.4-8.4l.6-2.6H320v70.8c0 81.6-.5 76.9 8.9 86.3 6.4 6.4 12.4 8.9 21.1 8.9s14.7-2.5 21.1-8.9c9.4-9.4 8.9-4.7 8.9-86.3V270h21.8l.6 2.6c1.1 4.3 11.4 13.8 17 15.7 11.7 4 23.1 1.4 31.7-7.2 9.2-9.3 8.9-6.7 8.9-71.1s.3-61.8-8.9-71.1c-6.4-6.4-12.4-8.9-21.1-8.9-8.8 0-14.7 2.5-21.2 9-3.1 3.2-6 6.9-6.4 8.4l-.6 2.6H299.2l-2.6-4.4c-3.4-5.9-10.7-12.1-16.3-14-5.8-2-15.4-1.9-21.3.1m14.6 19.8c6.4 2.7 6.4 2.5 6.4 58.5s0 55.8-6.5 58.5c-3.1 1.4-3.9 1.4-7 0-6.5-2.7-6.5-2.5-6.5-58.5 0-55.6 0-55.8 6.2-58.5 4.1-1.8 3.3-1.8 7.4 0m160 0c6.4 2.7 6.4 2.5 6.4 58.5s0 55.8-6.5 58.5c-3.1 1.4-3.9 1.4-7 0-6.5-2.7-6.5-2.5-6.5-58.5 0-55.6 0-55.8 6.2-58.5 4.1-1.8 3.3-1.8 7.4 0M400 210v40H300v-80h100zm-40 128c0 75.8.2 73.8-6.5 76.5-3.1 1.4-3.9 1.4-7 0-6.7-2.7-6.5-.7-6.5-76.5v-68h20z"/><path d="M322.9 192.9c-2.3 2.3-2.9 3.8-2.9 7.1s.6 4.8 2.9 7.1l2.9 2.9h48.4l2.9-2.9c2.3-2.3 2.9-3.8 2.9-7.1s-.6-4.8-2.9-7.1l-2.9-2.9h-48.4zm-140 326c-2.3 2.3-2.9 3.8-2.9 7.1s.6 4.8 2.9 7.1l2.9 2.9H299c125.4 0 116.7.5 119-6.6.9-2.5.9-4.3 0-6.8-2.3-7.1 6.4-6.6-119-6.6H185.8zm260 0c-6.4 6.5-2 17.1 7.1 17.1 5.8 0 10-4.2 10-10 0-9.1-10.6-13.5-17.1-7.1"/></svg>