<svg xmlns="http://www.w3.org/2000/svg" viewBox="50 50 540 540"><path d="M319.9 64c-35.2 0-36.5.1-40 2.2-2 1.1-4.6 3.8-5.8 5.8-2.1 3.8-2.1 3.8-2.1 109.9V288h-68.6l-4.1 2.6c-2.2 1.5-4.8 4.2-5.7 6.1-.9 1.8-1.6 5.2-1.6 7.4s.7 5.4 1.6 7.1c.8 1.6 27 32.1 58.1 67.7 31.1 35.5 58.2 65.6 60.2 66.8 2.3 1.5 5.2 2.3 8.1 2.3s5.8-.8 8.1-2.3c2-1.2 29.1-31.3 60.2-66.8 31.1-35.6 57.3-66.1 58.1-67.7.9-1.7 1.6-4.9 1.6-7.2 0-2.2-.9-5.8-1.9-7.8-1.1-2.2-3.5-4.6-5.9-6-3.9-2.2-4.6-2.2-38.1-2.2H368V75.8l-2.1-3.8c-1.2-2.1-3.8-4.7-5.9-5.9-3.7-2-4.9-2.1-40.1-2.1"/><path d="M112 416H80v67c0 65.9 0 67 2.1 72.7 1.5 4 3.8 7.4 7.3 10.9s6.9 5.8 10.9 7.3l5.8 2.1 215.7-.2 215.7-.3 4.5-2.4c2.5-1.3 6.2-4 8.3-6s5.1-5.9 6.5-8.6l2.7-5 .3-68.8.3-68.7H496v96H144v-96z"/></svg>