<svg xmlns="http://www.w3.org/2000/svg" viewBox="30 35 450 450"><g stroke-width="0"><path d="M387 49.7c-5.1.8-14.6 4.7-19.5 7.9-2.7 1.8-46 44.4-96.1 94.6-79.1 79.2-91.5 92.1-93.9 97.1-1.5 3.1-6.2 19.6-10.6 37-9.8 39.1-10.1 44.4-2.6 55.3 6.1 8.9 15.4 13.6 26.7 13.5 7.8 0 64.4-14.2 73-18.2 6-2.9 13.8-10.4 99.7-96.3 93-92.9 93.2-93.1 97-101.1 3.4-7.2 3.8-9 4.1-17.7.5-11.3-1.6-20-6.9-28.3-1.7-2.8-9.9-11.8-18.3-20.1-12.9-12.9-16.2-15.6-22.6-18.7-10.1-5-19.9-6.6-30-5M400.7 82c3.2 1.3 28.7 26.2 30.9 30.2 1.8 3.5 1.8 11.1 0 14.6-.8 1.5-6.8 8-13.3 14.4L406.5 153l-22.8-22.8-22.7-22.7 11.7-11.7c6.5-6.4 13.2-12.4 14.8-13.2 3.5-1.8 9.2-2.1 13.2-.6M361 153.5l22.5 22.5-65 65.1c-35.8 35.8-66.2 65.7-67.6 66.4-3.1 1.7-58.8 15.9-59.5 15.2-.6-.6 13.3-56.2 14.7-59.1C207.2 261.5 337 131 338 131c.3 0 10.6 10.1 23 22.5"/><path d="M113 81.5c-33.7 6.8-58.7 32.9-63.9 66.5-.9 5.5-1.1 39.5-.9 128.5.4 131.6 0 122.1 5.8 137.7 6.6 17.7 26.1 37.2 43.8 43.8 15.5 5.8 6.6 5.5 142.2 5.5s126.7.3 142.2-5.5c17.8-6.6 37.2-26 43.8-43.8 5.8-15.3 5.5-10.6 5.5-101.9 0-83.8 0-84.2-2.1-87-7.3-9.8-19.5-9.8-26.8 0-2.1 2.8-2.1 3.6-2.6 86-.5 82.3-.5 83.3-2.7 88.4-6.6 16.3-18.1 26.7-34 30.8-8.6 2.2-238 2.2-246.6 0-17.3-4.5-30.7-17.8-35.2-35-2.2-8.8-2.3-238.1 0-246.8 4.1-15.9 14.5-27.4 30.8-34 5.1-2.2 6.1-2.2 90.4-2.7 84.4-.5 85.2-.5 88-2.6 9.8-7.3 9.8-19.5 0-26.8-2.8-2.1-3.3-2.1-87-2.3-66.4-.1-85.6.2-90.7 1.2"/></g></svg>