<svg xmlns="http://www.w3.org/2000/svg" version="1.0" viewBox="0 0 640 640"><path d="M366.4 65.6c-9.1 3.3-17.1 13.6-18.1 23.7-1.2 11.8 4.9 22.9 15.6 28.4l6.3 3.3h108.3L358.4 241.2c-132.8 133-124 123.2-123.8 136.5.2 15.2 12.6 27.5 27.9 27.7 13 .2 3.5 8.9 136.3-123.8L519 161.5v108.3l3.3 6.3c3.9 7.5 9.5 12.2 17.4 14.5 10.6 3.1 22.6-.5 29.9-8.9 6.7-7.9 6.4-3.3 6.4-104.6V85.5l-2.4-5c-2.9-6.1-8.6-11.7-14.6-14.4-4.4-2-6.1-2.1-96.5-2-78 0-92.6.3-96.1 1.5"/><path d="M141.5 121c-34.3 3.3-62.5 25.8-73.8 59l-3.2 9.5v318l3.3 9.5c4.7 13.6 11.2 23.9 21.2 34 10.1 10 20.4 16.5 34 21.2l9.5 3.3h318l9.7-3.4c29-10 49.6-32.2 57-61.6 2.3-8.9 2.3-9.6 2.3-74.5v-65.5l-2.8-5.7c-10.4-21.2-39.5-22.3-51.1-1.8l-3.1 5.5-.5 64.5c-.5 63.1-.5 64.6-2.6 69.1-2.7 5.8-8.5 11.6-14.3 14.3l-4.6 2.1h-298l-4.7-2.3c-5.7-2.8-13.1-10.8-15-16-1-3-1.3-32-1.3-152.2V199.5l2.1-4.6c2.7-5.8 8.5-11.6 14.3-14.3 4.5-2.1 6-2.1 69.1-2.6l64.5-.5 5.4-3c20.5-11.4 19.5-40.8-1.7-51.2l-5.7-2.8-60-.1c-33-.1-63.6.2-68 .6"/></svg>