<svg xmlns="http://www.w3.org/2000/svg" width="512" height="512" viewBox="0 0 512 512" version="1.1"><path d="" stroke="none" fill="#080404" fill-rule="evenodd"/><path d="M 115.887 1.888 C 112.171 4.894, 111.605 34.267, 115.183 38.426 C 122.305 46.705, 129 40.415, 129 25.444 L 129 15 184.032 15 C 242.687 15, 244.395 15.132, 246.920 19.850 C 247.669 21.250, 248 47.486, 248 105.434 L 248 189 188.500 189 L 129 189 129 124.455 L 129 59.909 126.545 57.455 C 118.888 49.797, 113 56.472, 113 72.809 L 113 83.749 104.750 84.198 C 91.427 84.923, 83.209 89.999, 77.824 100.828 C 75.130 106.243, 73.539 212.135, 76.004 221.929 C 79.734 236.747, 74.824 236, 168.460 236 L 248 236 248 280.922 L 248 325.845 244.750 326.955 C 240.593 328.375, 237.689 330.820, 235.082 335.097 C 232.249 339.744, 231.827 403.830, 234.594 409.182 C 236.188 412.264, 236.188 412.264, 229.253 419.382 C 221.776 427.055, 163.320 489.402, 156.144 497.357 C 149.741 504.454, 151.995 512, 160.518 512 C 163.572 512, 166.899 508.716, 205.658 467.433 L 247.500 422.865 248 465.522 C 248.557 513.021, 248.381 512, 256 512 C 263.619 512, 263.443 513.022, 264 465.508 L 264.500 422.839 306.352 467.419 C 352.047 516.092, 351.428 515.572, 356.975 510.025 C 363.026 503.974, 365.275 507.024, 316.598 455.261 C 275.937 412.022, 275.937 412.022, 277.469 409.061 C 280.184 403.809, 279.626 383.937, 276.686 381.174 C 269.806 374.711, 264.194 379.867, 263.791 393.021 L 263.500 402.500 256 402.500 L 248.500 402.500 248.500 372.500 L 248.500 342.500 256 342.500 L 263.500 342.500 263.751 351 C 264.139 364.148, 266.661 368.127, 273.515 366.407 C 285.255 363.460, 280.158 331.364, 267.250 326.955 L 264 325.845 264 280.922 L 264 236 343.540 236 C 436.890 236, 431.941 236.723, 435.881 222.500 C 437.310 217.339, 437.427 115.523, 436.012 108.063 C 433.154 92.994, 423.628 85.089, 407.250 84.198 L 399 83.749 399 67.325 C 399 46.810, 401.068 50.392, 373.244 22.719 L 350.338 -0.062 307.344 0.219 L 264.351 0.500 260.176 3.264 L 256 6.028 251.824 3.264 L 247.647 0.500 182.961 0.229 C 120.324 -0.034, 118.198 0.019, 115.887 1.888 M 269.329 16.458 C 263.820 18.854, 264 15.854, 264 105.434 L 264 189 323.500 189 L 383 189 383 124.500 L 383 60 364.450 60 C 337.411 60, 339 61.598, 339 34.418 L 339 15 305.750 15.039 C 279.753 15.070, 271.808 15.379, 269.329 16.458 M 355 35.500 L 355 44 363.094 44 L 371.188 44 363.471 35.500 C 359.227 30.825, 355.585 27, 355.377 27 C 355.170 27, 355 30.825, 355 35.500 M 98.096 101.265 C 91.427 104.692, 91.529 103.991, 91.217 148.572 L 90.935 189 101.967 189 L 113 189 113 144.500 L 113 100 106.750 100.015 C 103.313 100.023, 99.418 100.585, 98.096 101.265 M 399 144.391 L 399 189 410 189 L 421 189 421 149.968 C 421 101.015, 420.963 100.891, 406.412 100.156 L 399 99.781 399 144.391 M 91.206 212.250 L 91.500 219.500 256 219.500 L 420.500 219.500 420.794 212.250 L 421.088 205 256 205 L 90.912 205 91.206 212.250" stroke="none" fill="#040404" fill-rule="evenodd"/></svg>