<svg xmlns="http://www.w3.org/2000/svg" width="512" height="512" viewBox="0 0 512 512" version="1.1"><path d="" stroke="none" fill="#080404" fill-rule="evenodd"/><path d="M 110.086 1.717 C 98.007 5.983, 95 13.089, 95 37.366 L 95 55 73.049 55 C 34.029 55, 18.594 63.168, 10.964 87.855 C 8.274 96.561, 7.869 461.578, 10.537 472.897 C 14.706 490.582, 27.634 505.275, 43.339 510.177 C 52.428 513.014, 459.572 513.014, 468.661 510.177 C 484.366 505.275, 497.294 490.582, 501.463 472.897 C 504.131 461.578, 503.726 96.561, 501.036 87.855 C 493.391 63.120, 478.048 55, 438.951 55 L 417 55 417 37.366 C 417 3.174, 414.035 0.664, 373.107 0.203 L 346.714 -0.095 341.306 2.551 C 331.308 7.443, 330.555 9.585, 330.194 34.173 L 329.888 55 256 55 L 182.112 55 181.806 34.173 C 181.446 9.691, 180.693 7.517, 170.871 2.623 C 164.283 -0.660, 118.737 -1.339, 110.086 1.717 M 123 58.500 L 123 92 140 92 L 157 92 157 58.500 L 157 25 140 25 L 123 25 123 58.500 M 354 58.500 L 354 92 372.500 92 L 391 92 391 58.500 L 391 25 372.500 25 L 354 25 354 58.500 M 44.907 83.328 C 42.014 84.856, 39.469 87.319, 37.500 90.497 L 34.500 95.339 34.205 133.670 L 33.911 172 256 172 L 478.089 172 477.795 133.670 L 477.500 95.339 474.500 90.497 C 469.027 81.664, 466.612 81, 439.962 81 L 417.239 81 416.804 90.250 C 415.784 111.982, 407.881 117.242, 375.378 117.820 C 338.145 118.481, 330 113.639, 330 90.843 L 330 81 256 81 L 182 81 181.972 90.750 C 181.906 113.671, 173.847 118.481, 136.622 117.820 C 104.119 117.242, 96.216 111.982, 95.196 90.250 L 94.761 81 72.038 81 C 50.177 81, 49.147 81.088, 44.907 83.328 M 34.232 332.250 C 34.529 481.268, 34.043 470.744, 41.027 479.216 C 48.096 487.793, 26.208 487, 256 487 C 485.792 487, 463.904 487.793, 470.973 479.216 C 477.957 470.744, 477.471 481.268, 477.768 332.250 L 478.035 198 256 198 L 33.965 198 34.232 332.250 M 243.265 230.980 C 240.561 232.629, 237.634 237.749, 225.404 262.226 C 217.360 278.327, 210.654 291.636, 210.502 291.803 C 210.351 291.970, 195.736 294.286, 178.026 296.950 C 142.515 302.292, 141.176 302.757, 139.148 310.462 C 137.111 318.200, 136.128 316.978, 172.781 352.282 L 187.061 366.037 181.446 397.269 C 172.033 449.625, 174.307 451.330, 221.044 426.943 L 249.900 411.886 278.001 426.571 C 325.085 451.178, 327.582 449.515, 318.606 399.523 C 315.523 382.349, 313 367.631, 313 366.817 C 313 366.002, 323.161 355.698, 335.580 343.918 C 359.474 321.253, 361 319.404, 361 313.126 C 361 303.513, 358.191 302.340, 322.500 297.044 C 307.650 294.841, 294.028 292.783, 292.229 292.470 C 289.056 291.918, 288.506 291, 273.992 261.983 C 256.533 227.082, 253.944 224.469, 243.265 230.980 M 239 291.716 C 226.022 317.316, 228.871 315.238, 201.525 319.052 C 189.439 320.738, 179.407 322.259, 179.233 322.433 C 179.059 322.608, 185.955 329.444, 194.556 337.625 C 215.888 357.913, 214.769 354.368, 209.518 385.036 C 207.603 396.220, 206.174 405.508, 206.343 405.676 C 206.511 405.844, 215.532 401.207, 226.390 395.370 C 251.315 381.972, 248.608 381.945, 274.235 395.841 C 284.539 401.429, 293.142 406, 293.352 406 C 293.562 406, 291.981 395.988, 289.839 383.750 C 284.788 354.905, 283.700 358.272, 304.532 338.304 C 313.597 329.614, 320.674 322.395, 320.257 322.261 C 319.841 322.128, 309.956 320.685, 298.290 319.056 C 270.230 315.136, 273.111 317.200, 260.484 291.969 C 247.997 267.016, 251.500 267.057, 239 291.716" stroke="none" fill="#040404" fill-rule="evenodd"/></svg>