<svg xmlns="http://www.w3.org/2000/svg" version="1.0" width="515" height="480" viewBox="70 70 585 550"><path d="M174.9 70.4c-6.4 2.3-10.9 5.7-13.7 10.4-2.7 4.6-2.7 5-3 23.9l-.4 19.3h-21.2c-11.7 0-23.7.5-26.7 1-12.6 2.4-25.7 11.7-31.9 22.5-6.4 11.1-6-1.5-6 202.5 0 184.4 0 185.6 2.1 193 4.2 15.4 14.4 28 27.6 34.3l6.8 3.2 113.4.3 113.3.2 3.9-3.9c3.4-3.4 3.9-4.4 3.9-8.5 0-3.9-.6-5.2-3.4-8.4l-3.4-3.7-110.9-.5c-102.2-.5-111-.6-113.9-2.2-4-2.2-8.2-7.1-10.8-12.8-2.1-4.5-2.1-4.9-2.4-139.3L98 267h443v50.2l3.9 3.9c3.5 3.5 4.4 3.9 9 3.9 4.4 0 5.6-.5 8.9-3.4l3.7-3.4.3-76.4c.2-49.5-.1-78-.8-81.1-3.7-17.4-19.2-32.4-36.9-35.7-2.9-.6-15-1-26.7-1h-21.2l-.4-19.3-.3-19.4-3-4.8c-2.1-3.3-4.7-5.7-8.5-7.9l-5.5-3.1-26-.3c-29.1-.4-31.5 0-37.7 5.6-6.4 5.8-6.8 7.6-6.8 29.7V124H246v-19.5c0-21.3-.5-23.8-5.6-28.9-6.2-6.2-8.3-6.6-36.4-6.5-18.3 0-26.5.4-29.1 1.3m45.1 57.1V161h-34V94h34zm234 0V161h-36V94h36zm-295.8 31.9c.6 11.2 3.2 16.7 10.1 21.4 7.7 5.3 10.1 5.7 36.2 5.7h24l5.5-3.1c3.8-2.2 6.4-4.6 8.5-7.9 2.7-4.4 3-5.7 3.3-15.2l.4-10.3H393v9.3c0 8 .4 10 2.6 14.5 3.1 6.3 9 10.7 16.4 12.3 7.1 1.5 46.3.7 51-1.1 6-2.3 11.9-6.9 14.6-11.6 2.2-3.8 2.8-6.1 3.2-14l.5-9.4h22.4c25 0 27.7.6 32.6 7.2 4.5 6.1 4.7 8.1 4.7 46.9V241H98v-36.9c0-38.8.2-40.8 4.7-46.9 4.9-6.6 7.2-7.1 32.4-7.2h22.6z"/><path d="M625.5 342.5c-9.3 1.2-21.5 3-37.5 5.5-3.6.6-11 1.7-16.5 2.5-5.5.9-14.3 2.3-19.5 3.1s-13.3 1.9-18 2.4c-8.7.8-17.6 2-33.5 4.4-4.9.8-13.9 2.2-20 3-18.3 2.7-22.9 3.8-25.2 5.9l-2.3 2V534l-4.7-3.1c-6.9-4.3-16.6-6.9-25.9-6.9-15.3 0-29.3 7.5-39.8 21.3-6.7 8.7-9.5 28.1-6 40.5 8 27.9 40.7 42.1 67.8 29.4 8.2-3.9 18.5-14 22.3-22 4.9-10.3 5.3-17 5.3-88.4 0-36.1.3-66.3.6-67.2.7-2 5.2-3.2 18.5-5.1 14-2.1 29.5-4.4 40.4-6.1 5-.7 18-2.5 29-3.9 19.4-2.5 25.9-3.4 49-7 18.4-2.9 19.4-2.9 21.6-1 1.8 1.7 1.9 3.5 1.9 47v45.3l-6.8-3.4c-21.1-10.5-47-4.8-60.1 13.4-6.3 8.7-9.1 15.8-9.7 25-1.2 15 3.2 27.5 13.4 38 15.1 15.7 40.4 19 59.7 7.7 6.7-3.9 14.3-12.4 18.3-20.4l3.7-7.5.3-107.5.3-107.6-2.2-1.8c-2.5-2-9.3-2.1-24.4-.2"/></svg>