<svg xmlns="http://www.w3.org/2000/svg" viewBox="80 80 480 480"><path d="M201.5 97.4c-3.7 1.7-7 5.2-8.4 8.9-.7 1.7-1.1 12.7-1.1 28.2v25.4l-28.2.3c-27.8.3-28.4.3-33.3 2.8-6.4 3.1-12.4 9.1-15.5 15.5-2.4 4.7-2.5 6.1-2.8 25.2l-.3 20.3h416.3l-.4-20.3-.3-20.2-3.4-6.3c-3.7-6.9-7.9-10.9-15.1-14.4-4.3-2.2-5.8-2.3-32.7-2.6l-28.2-.3-.3-26.9c-.3-25.3-.4-27-2.4-29.6-3.9-5.3-7.1-6.9-13.4-6.9s-9.5 1.6-13.4 6.9c-2 2.6-2.1 4.3-2.4 29.7l-.3 26.9H224.1l-.3-26.9c-.3-25.4-.4-27.1-2.4-29.7-1.1-1.5-3.2-3.7-4.6-4.7-3.4-2.5-11.3-3.2-15.3-1.3m-89.3 282.8.3 124.3 2.3 4.5c3.5 7.2 7.5 11.4 14.4 15.1l6.3 3.4h369l5.1-2.7c7.6-4 10.7-7 14.5-14l3.4-6.3.3-124.3.2-124.2H112zM328 291.9c1.6 1.1 6.7 9.8 14 24.1 9.2 18 12.1 22.8 14.5 24.2 2 1.1 11.7 3 27.2 5.2 15.1 2.1 25 4 26.4 5 5.5 3.8 7.4 10.8 4.4 16.5-.7 1.5-9.3 10.4-18.9 19.6-12.5 11.9-17.8 17.7-18.5 20-.6 2.3.2 9.1 3.1 26.1 2.2 13 3.7 24.6 3.4 26.9-.4 3-1.4 4.8-4 7.2-6.1 5.7-8.7 5.1-33-7.8-16.7-8.9-21.9-11.2-25.1-11.2-3.3 0-8.3 2.2-25.2 11.1-11.6 6.2-22.4 11.5-24 11.8-6.7 1.3-14.3-5.2-14.3-12.4 0-1.8 1.6-12.4 3.5-23.5s3.5-22.4 3.5-25.2v-5L246 386l-19-18.5v-5.3c0-4.5.5-5.7 3.3-8.8l3.3-3.6 22.7-3.3c28.4-4.2 27.9-4.1 31-7.3 1.4-1.5 7.2-12.2 13-23.7 5.8-11.6 11.4-21.8 12.5-22.8 4.2-3.8 10.3-4.1 15.2-.8"/></svg>