<svg xmlns="http://www.w3.org/2000/svg" viewBox="60 60 520 520"><path d="M296.7 65c-52.5 5.5-97.9 24-137.4 55.9-11.9 9.6-32.5 30.5-41.5 42.1-45 58.1-62.7 131.8-49.3 204.6 9.3 49.9 34.2 97.1 70.5 133.3 46.4 46.2 106.1 72.2 171.8 74.8 47.7 1.8 99.5-11.3 139.4-35.4l5.7-3.4 41.2 11.7c45.1 12.7 46.5 12.9 53.8 8.1 2.1-1.4 4.9-4.2 6.1-6.3 4.5-7.2 4.2-9.3-8.5-53.7L536.9 456l3.4-5.8c23.9-39.7 37.1-91.2 35.4-138.2-1.9-48.9-15.2-91.4-41.2-131.5C494.5 118.8 431 77.9 358.3 67c-15.9-2.4-47.7-3.4-61.6-2m46.8 82.8c19.5 5.5 32.5 13.2 46.3 27.6 26.8 27.9 34.4 67.5 19.7 103.4-6.2 15.1-15.9 27.6-32.5 41.7-10.3 8.7-18.5 19.1-23.4 29.5-4.6 9.8-6.5 17.4-7.3 29-.3 6-1.3 11.2-2.5 14.2-2.3 5.3-8.2 11.2-13.7 13.6-4.7 2-15.5 2-20.2 0-5.7-2.5-11.4-8.3-13.9-14.1-2.1-4.8-2.2-6.2-1.7-18.2 1.2-24.7 8.6-45.9 23.8-67.4 5.5-7.8 17.3-20.1 30.1-31.4 6.3-5.5 8.4-8.2 11.5-14.4 3.7-7.6 3.8-7.9 3.8-19.3 0-11-.1-11.8-3.3-18.2-13.7-27.8-48.2-35-69.8-14.6-9.6 9-13 16.2-14.5 30.3-1.3 11.7-4.4 18.4-10.8 23-11.5 8.4-26.5 6.9-35.4-3.6-6.7-7.7-8.1-16.7-5.2-33 7.1-40.9 36.5-70.7 78.1-79.4 9.6-2 31.5-1.3 40.9 1.3m-11.7 297.6c15.6 8.1 19 29.7 6.6 42-15.7 15.8-42.5 5.7-44.2-16.5-.9-11.9 6.6-23.5 17.4-26.9 4.4-1.4 16.4-.6 20.2 1.4"/></svg>