<svg xmlns="http://www.w3.org/2000/svg" width="522" height="522" viewBox="0 0 522 522"><path d="M32.184 43.562C21.251 46.504 8.842 56.674 3.258 67.267L.5 72.5.241 293.299c-.182 155.719.058 221.39.814 222.804 2.868 5.358 15.27 7.903 21.745 4.462 1.485-.79 26.098-24.865 54.696-53.5L129.493 415H285.59c173.253 0 160.357.478 171.153-6.337 22.128-13.97 22.244-14.626 22.251-126.105l.006-88.942 17.479-17.651c38.097-38.471 31.45-84.982-12.979-90.809-4.386-.575-5.034-.963-5.274-3.156-1.942-17.752-16.142-33.878-33.906-38.505-8.455-2.202-403.941-2.138-412.136.067M43.5 75.216c-5.083 1.811-8.65 4.904-10.595 9.185-1.794 3.95-1.862 10.933-1.883 192.571L31 465.444l40.75-40.589c33.483-33.351 41.352-40.702 44.125-41.222 1.856-.348 73.898-.633 160.093-.633h156.717l4.383-2.318c3.205-1.694 5.062-3.636 6.907-7.222l2.525-4.904.277-71.528.277-71.528-35.86 35.828-35.86 35.828-29.417 5.991c-53.346 10.866-55.548 7.82-40.413-55.897l.534-2.25h-93.394c-51.367 0-94.852-.292-96.634-.648-11.11-2.222-14.756-18.841-6.045-27.553l3.8-3.799h212.713l60.011-59.977L446.5 93.046l-.717-4.135c-.855-4.93-4.67-10.248-9.085-12.662-3.876-2.12-387.32-3.127-393.198-1.033m427 43.693c-2.2 1.026-6.691 4.622-9.981 7.991l-5.981 6.125 9.219 9.218 9.218 9.219 6.129-5.981c10.451-10.199 11.967-17.224 5.123-23.752-5.004-4.774-8.15-5.42-13.727-2.82m-360.535 33.89c-8.711 8.712-5.065 25.331 6.045 27.553 8.663 1.733 207.394.693 210.97-1.104 10.186-5.117 11.112-22.371 1.538-28.645-2.207-1.445-12.882-1.603-108.6-1.603H113.765zm274.857 49.951-45.67 45.75-2.156 10.836c-2.612 13.125-3.487 12.263 9.776 9.621l10.964-2.185 45.87-45.878 45.869-45.877-8.967-9.009c-4.931-4.954-9.203-9.008-9.491-9.008s-21.077 20.587-46.195 45.75m-274.857 78.049c-8.711 8.712-5.065 25.331 6.045 27.553 6.982 1.396 136.849.734 140.319-.716 9.798-4.094 12.396-18.911 4.671-26.636l-4-4H113.765z" fill="#040404" fill-rule="evenodd"/></svg>