<svg xmlns="http://www.w3.org/2000/svg" width="522" height="522" viewBox="0 0 522 522" version="1.1"><path d="" stroke="none" fill="#080404" fill-rule="evenodd"/><path d="M 32.184 43.562 C 21.251 46.504, 8.842 56.674, 3.258 67.267 L 0.500 72.500 0.241 293.299 C 0.059 449.018, 0.299 514.689, 1.055 516.103 C 3.923 521.461, 16.325 524.006, 22.800 520.565 C 24.285 519.775, 48.898 495.700, 77.496 467.065 L 129.493 415 285.590 415 C 458.843 415, 445.947 415.478, 456.743 408.663 C 478.871 394.693, 478.987 394.037, 478.994 282.558 L 479 193.616 496.479 175.965 C 534.576 137.494, 527.929 90.983, 483.500 85.156 C 479.114 84.581, 478.466 84.193, 478.226 82 C 476.284 64.248, 462.084 48.122, 444.320 43.495 C 435.865 41.293, 40.379 41.357, 32.184 43.562 M 43.500 75.216 C 38.417 77.027, 34.850 80.120, 32.905 84.401 C 31.111 88.351, 31.043 95.334, 31.022 276.972 L 31 465.444 71.750 424.855 C 105.233 391.504, 113.102 384.153, 115.875 383.633 C 117.731 383.285, 189.773 383, 275.968 383 L 432.685 383 437.068 380.682 C 440.273 378.988, 442.130 377.046, 443.975 373.460 L 446.500 368.556 446.777 297.028 L 447.054 225.500 411.194 261.328 L 375.334 297.156 345.917 303.147 C 292.571 314.013, 290.369 310.967, 305.504 247.250 L 306.038 245 212.644 245 C 161.277 245, 117.792 244.708, 116.010 244.352 C 104.900 242.130, 101.254 225.511, 109.965 216.799 L 113.765 213 220.121 213 L 326.478 213 386.489 153.023 L 446.500 93.046 445.783 88.911 C 444.928 83.981, 441.113 78.663, 436.698 76.249 C 432.822 74.129, 49.378 73.122, 43.500 75.216 M 470.500 118.909 C 468.300 119.935, 463.809 123.531, 460.519 126.900 L 454.538 133.025 463.757 142.243 L 472.975 151.462 479.104 145.481 C 489.555 135.282, 491.071 128.257, 484.227 121.729 C 479.223 116.955, 476.077 116.309, 470.500 118.909 M 109.965 152.799 C 101.254 161.511, 104.900 178.130, 116.010 180.352 C 124.673 182.085, 323.404 181.045, 326.980 179.248 C 337.166 174.131, 338.092 156.877, 328.518 150.603 C 326.311 149.158, 315.636 149, 219.918 149 L 113.765 149 109.965 152.799 M 384.822 202.750 L 339.152 248.500 336.996 259.336 C 334.384 272.461, 333.509 271.599, 346.772 268.957 L 357.736 266.772 403.606 220.894 L 449.475 175.017 440.508 166.008 C 435.577 161.054, 431.305 157, 431.017 157 C 430.728 157, 409.940 177.587, 384.822 202.750 M 109.965 280.799 C 101.254 289.511, 104.900 306.130, 116.010 308.352 C 122.992 309.748, 252.859 309.086, 256.329 307.636 C 266.127 303.542, 268.725 288.725, 261 281 L 257 277 185.382 277 L 113.765 277 109.965 280.799" stroke="none" fill="#040404" fill-rule="evenodd"/></svg>