<svg xmlns="http://www.w3.org/2000/svg" width="512" height="512" viewBox="0 0 512 512" version="1.1"><path d="" stroke="none" fill="#080404" fill-rule="evenodd"/><path d="M 118.500 26.641 C 72.751 32.303, 39.662 61.769, 28.260 107 C 26.240 115.014, 25.031 378.054, 26.938 394.616 C 31.865 437.409, 61.153 471.125, 103.500 482.754 L 113.500 485.500 256 485.500 L 398.500 485.500 408.206 482.819 C 448.479 471.694, 476.730 441.246, 484.122 401 C 485.250 394.860, 485.500 368.117, 485.500 253.500 L 485.500 113.500 482.754 103.500 C 472.153 64.896, 444.617 38.250, 405 28.260 C 398.964 26.737, 130 25.218, 118.500 26.641 M 114.500 60.470 C 89.392 66.057, 70.515 83.031, 62.221 107.479 L 59.500 115.500 59.225 226.998 C 58.955 336.390, 58.985 338.457, 60.841 336.498 C 61.881 335.399, 72.599 322.575, 84.660 308 C 116.406 269.634, 124.573 263.977, 148.500 263.779 C 170.457 263.597, 183.001 270.625, 202.492 294.030 L 214.683 308.668 246.836 271.910 C 288.735 224.011, 293.731 220.500, 320 220.500 C 347.548 220.500, 349.503 222.005, 406.128 286.810 C 430.969 315.239, 451.690 338.941, 452.176 339.479 C 452.686 340.045, 452.940 293.019, 452.779 227.979 L 452.500 115.500 449.776 107.500 C 442.321 85.611, 426.389 69.679, 404.500 62.224 L 396.500 59.500 258.500 59.317 C 146.550 59.169, 119.367 59.387, 114.500 60.470 M 139.347 91.033 C 104.143 97.335, 82.288 133.660, 93.342 167.500 C 109.629 217.361, 178.676 222.413, 202.062 175.455 C 223.246 132.920, 185.934 82.694, 139.347 91.033 M 140.640 124.572 C 125.759 129.326, 118.855 147.775, 126.618 162.040 C 139.263 185.273, 175.255 175.991, 175.246 149.500 C 175.239 131.319, 158.120 118.988, 140.640 124.572 M 310.409 253.765 C 302.978 256.422, 302.796 256.608, 261.971 303.383 C 210.879 361.920, 214.324 360.766, 187.497 328.344 C 163.557 299.413, 160.577 297.020, 148.500 297.020 C 135.242 297.020, 135.589 296.695, 92.002 349.836 L 59.738 389.172 60.272 394.336 C 62.761 418.379, 81.772 440.662, 107.500 449.692 L 115.500 452.500 255.500 452.500 L 395.500 452.500 403.278 449.847 C 429.641 440.856, 450.876 414.800, 450.985 391.310 C 451.006 386.759, 339.760 259.820, 332.093 255.647 C 325.502 252.060, 317.192 251.339, 310.409 253.765" stroke="none" fill="#040404" fill-rule="evenodd"/></svg>