<svg xmlns="http://www.w3.org/2000/svg" width="512" height="512" viewBox="0 0 512 512"><path d="M167 32.472C29.275 52.768-45.25 196.607 26.907 302.863c5.148 7.58 6.375 1.211-10.409 54.014C-.614 410.71-.863 412.845 9.241 419.005c7.161 4.367 8.02 4.052 57.666-21.141l45.593-23.137 9.636 3.61c11.629 4.357 24.906 7.869 38.347 10.145l9.984 1.69 8.016 7.664c53.654 51.292 141.018 67.677 212.949 39.937l7.997-3.084 45.628 23.156c49.686 25.214 50.54 25.527 57.702 21.16 10.12-6.17 9.867-8.341-7.254-62.041-16.853-52.861-15.642-46.144-9.915-54.997 68.822-106.388-1.731-247.179-134.587-268.571l-9.496-1.529-7.504-7.237C292.751 44.847 225.517 23.848 167 32.472m14.5 29.544C58.093 70.899-9.684 196.01 56.909 292c8.959 12.913 9.022 12.04-3.718 51.5-5.504 17.05-9.863 31.149-9.686 31.33.178.182 14.947-7.13 32.822-16.25 36.879-18.814 33.91-18.097 49.457-11.942 18.713 7.407 17.588 7.655 12.501-2.751-51.918-106.207 22.756-233.223 147.54-250.956l8.326-1.183-4.326-2.932c-23.327-15.81-70.265-29.282-96.325-27.645-1.1.069-6.5.449-12 .845m122 59.993c-112.595 8.187-182.892 116.481-136.446 210.196 37.852 76.373 132.95 108.509 219.662 74.229 14.967-5.917 12.16-6.614 48.938 12.152 38.701 19.748 35.222 22.288 22.719-16.586-12.487-38.824-12.357-36.691-3.058-50.122 72.624-104.891-16.419-239.714-151.815-229.869m-55.259 135.986c-13.008 7.931-7.447 27.998 7.759 27.998 8.532 0 14.993-6.461 14.993-14.993s-6.461-14.993-14.993-14.993c-2.73 0-5.782.782-7.759 1.988m60 0c-13.008 7.931-7.447 27.998 7.759 27.998 8.532 0 14.993-6.461 14.993-14.993s-6.461-14.993-14.993-14.993c-2.73 0-5.782.782-7.759 1.988m60 0c-13.008 7.931-7.447 27.998 7.759 27.998 8.532 0 14.993-6.461 14.993-14.993s-6.461-14.993-14.993-14.993c-2.73 0-5.782.782-7.759 1.988" fill="#040404" fill-rule="evenodd"/></svg>