<svg xmlns="http://www.w3.org/2000/svg" width="512" height="512" viewBox="0 0 512 512" version="1.1"><path d="" stroke="none" fill="#080404" fill-rule="evenodd"/><path d="M 167 32.472 C 29.275 52.768, -45.250 196.607, 26.907 302.863 C 32.055 310.443, 33.282 304.074, 16.498 356.877 C -0.614 410.710, -0.863 412.845, 9.241 419.005 C 16.402 423.372, 17.261 423.057, 66.907 397.864 L 112.500 374.727 122.136 378.337 C 133.765 382.694, 147.042 386.206, 160.483 388.482 L 170.467 390.172 178.483 397.836 C 232.137 449.128, 319.501 465.513, 391.432 437.773 L 399.429 434.689 445.057 457.845 C 494.743 483.059, 495.597 483.372, 502.759 479.005 C 512.879 472.835, 512.626 470.664, 495.505 416.964 C 478.652 364.103, 479.863 370.820, 485.590 361.967 C 554.412 255.579, 483.859 114.788, 351.003 93.396 L 341.507 91.867 334.003 84.630 C 292.751 44.847, 225.517 23.848, 167 32.472 M 181.500 62.016 C 58.093 70.899, -9.684 196.010, 56.909 292 C 65.868 304.913, 65.931 304.040, 53.191 343.500 C 47.687 360.550, 43.328 374.649, 43.505 374.830 C 43.683 375.012, 58.452 367.700, 76.327 358.580 C 113.206 339.766, 110.237 340.483, 125.784 346.638 C 144.497 354.045, 143.372 354.293, 138.285 343.887 C 86.367 237.680, 161.041 110.664, 285.825 92.931 L 294.151 91.748 289.825 88.816 C 266.498 73.006, 219.560 59.534, 193.500 61.171 C 192.400 61.240, 187 61.620, 181.500 62.016 M 303.500 122.009 C 190.905 130.196, 120.608 238.490, 167.054 332.205 C 204.906 408.578, 300.004 440.714, 386.716 406.434 C 401.683 400.517, 398.876 399.820, 435.654 418.586 C 474.355 438.334, 470.876 440.874, 458.373 402 C 445.886 363.176, 446.016 365.309, 455.315 351.878 C 527.939 246.987, 438.896 112.164, 303.500 122.009 M 248.241 257.995 C 235.233 265.926, 240.794 285.993, 256 285.993 C 264.532 285.993, 270.993 279.532, 270.993 271 C 270.993 262.468, 264.532 256.007, 256 256.007 C 253.270 256.007, 250.218 256.789, 248.241 257.995 M 308.241 257.995 C 295.233 265.926, 300.794 285.993, 316 285.993 C 324.532 285.993, 330.993 279.532, 330.993 271 C 330.993 262.468, 324.532 256.007, 316 256.007 C 313.270 256.007, 310.218 256.789, 308.241 257.995 M 368.241 257.995 C 355.233 265.926, 360.794 285.993, 376 285.993 C 384.532 285.993, 390.993 279.532, 390.993 271 C 390.993 262.468, 384.532 256.007, 376 256.007 C 373.270 256.007, 370.218 256.789, 368.241 257.995" stroke="none" fill="#040404" fill-rule="evenodd"/></svg>