<svg xmlns="http://www.w3.org/2000/svg" width="520" height="300" viewBox="0 0 520 300"><path d="M240.5 1.585c-67.341 14.8-88.221 110.301-32.551 148.88 5.035 3.489 5.033 3.924-.024 5.439-6.687 2.004-22.852 10.718-31.722 17.101l-8.298 5.971-8.902-5.367c-4.896-2.952-10.074-5.661-11.507-6.021-2.605-.653-2.605-.653 2.868-6.701 53.683-59.321-33.016-143.329-89.629-86.846-23.749 23.694-22.905 77.024 1.426 90.045 2.91 1.558 2.329 2.158-6.416 6.633C24.176 186.871 3.65 219.073 2.26 254.624 1.635 270.621 2.362 272 11.418 272c9.614 0 10.227-.78 11.557-14.724 5.541-58.077 64.47-93.362 115.215-68.988 13.958 6.704 13.578 6.057 7.93 13.504-31.819 41.95-40.661 112.483-12.191 97.246 2.653-1.42 3.837-5.481 4.509-15.466 2.621-38.936 26.597-76.74 61.523-97.007 77.763-45.126 174.136 7.641 181.912 99.603 1.044 12.348 2.201 13.832 10.783 13.832 20.211 0 10.004-58.568-16.556-95-7.985-10.953-8.28-9.792 4.085-16.061 50.725-25.716 111.648 9.861 116.77 68.19 1.218 13.877 1.996 14.871 11.627 14.871 9.056 0 9.783-1.379 9.158-17.376-1.403-35.894-22.528-68.66-54.451-84.456-7.743-3.831-8.363-4.523-5.45-6.082 31.322-16.763 22.087-84.385-13.839-101.33-62.645-29.548-120.805 46.813-74.569 97.905l5.562 6.146-2.963 1.033c-2.636.919-13.947 7.36-18.098 10.307-1.257.893-2.743.221-7.5-3.389-7.861-5.966-22.122-14.067-30.654-17.415-8.573-3.363-8.634-3.478-3.662-6.924C384.266 100.42 327.507-17.539 240.5 1.585m6.012 21.029c-42.408 10.252-62.254 59.197-38.439 94.804 29.581 44.227 94.303 35.189 111.334-15.547 14.728-43.874-27.833-90.15-72.895-79.257M97.459 78.366c-32.844 8.17-43.947 45.859-20.142 68.372 37.197 35.18 91.66-18.162 56.501-55.337-10.525-11.129-24.248-16.049-36.359-13.035m309.646.217c-31.597 8.496-42.4 44.836-19.991 67.246 37.098 37.097 92.993-17.058 56.945-55.173-10.393-10.989-24.205-15.502-36.954-12.073" fill="#040404" fill-rule="evenodd"/></svg>