<svg xmlns="http://www.w3.org/2000/svg" width="680.847" height="680.479" viewBox="0 0 680.847 680.479"><path d="M318.093 3.013c7.067-2.934 9.334-3.2 24.4-2.934 29.067.667 12-14 182.133 156.267 171.2 171.067 155.867 153.067 155.867 183.467 0 17.866 0 18.133-4.533 27.333-10.8 22-32.667 35.333-57.734 35.333h-9.066v106.667c0 72.133-.534 108.8-1.467 113.6-5.067 24.266-24.667 46.266-48.933 54.666-8.8 3.067-9.467 3.067-73.867 3.067-63.466 0-64.933 0-68.533-2.8-2-1.467-4.933-4.4-6.4-6.4-2.8-3.6-2.8-5.333-3.467-92.533-.533-73.067-1.066-89.467-2.533-92.267-4.133-7.333-8.4-11.733-15.067-15.467l-7.066-3.866-34.667-.4c-19.067-.267-37.733-.134-41.467.4-9.866 1.2-20.133 7.733-25.2 15.866l-4 6.534-.666 89.066c-.667 87.334-.667 89.067-3.467 92.667-1.467 2-4.4 4.933-6.4 6.4-3.6 2.8-5.067 2.8-68.533 2.8-64.4 0-65.067 0-73.867-3.067-24.266-8.4-43.866-30.4-48.933-54.666-.933-4.8-1.467-41.467-1.467-113.6V402.479h-9.066c-17.867 0-33.467-6.4-45.734-18.533-19.6-19.734-23.866-48-11.066-73.867 2.8-5.6 31.466-34.933 148.266-152 79.734-79.733 147.067-146.533 149.867-148.4 2.666-1.866 8.4-4.933 12.666-6.666"/></svg>