<svg xmlns="http://www.w3.org/2000/svg" width="512" height="512" viewBox="0 0 512 512" version="1.1"><path d="" stroke="none" fill="#080404" fill-rule="evenodd"/><path d="M 238.892 2.316 C 229.583 6.209, 230.026 5.788, 120.685 114.903 C -6.293 241.620, 1.551 232.396, 1.551 255 C 1.551 281.704, 17.664 298.957, 45.697 302.267 L 54.893 303.353 55.235 384.427 C 55.551 459.192, 55.717 465.928, 57.375 471 C 63.601 490.051, 78.585 504.612, 97.008 509.515 C 106.588 512.064, 196.411 511.656, 200.696 509.044 C 207.872 504.668, 207.444 509.004, 208 435.045 C 208.558 360.785, 208.148 364.922, 215.658 357.809 C 222.437 351.390, 224.538 351.045, 257 351.032 C 308.421 351.010, 305.999 346.791, 306.002 436.432 C 306.003 506.741, 305.737 503.946, 312.898 508.730 C 317.249 511.637, 406.490 512.310, 416.992 509.515 C 435.826 504.503, 450.775 489.629, 456.714 469.992 C 458.189 465.116, 458.417 455.465, 458.742 383.908 L 459.108 303.316 469.034 302.237 C 502.831 298.564, 522.697 263.623, 508.127 233.479 C 502.903 222.673, 289.345 9.107, 278.529 3.873 C 268.931 -0.771, 248.219 -1.585, 238.892 2.316 M 251.543 30.497 C 244.936 32.851, 33.549 244.954, 32.034 250.750 C 28.264 265.173, 37.549 271.984, 61 271.996 C 75.922 272.004, 79.542 273.025, 83.429 278.323 C 85.479 281.116, 85.505 282.078, 86 371.823 C 86.563 473.907, 85.913 465.792, 94.162 473.699 C 101.136 480.384, 101.687 480.467, 141.191 480.807 L 176.882 481.115 177.223 423.307 C 177.610 357.930, 177.448 359.352, 185.966 346.174 C 200.003 324.457, 211.954 320.037, 256.701 320.015 C 306.458 319.990, 322.845 328.089, 333.803 358.119 L 336.496 365.500 336.814 423.307 L 337.131 481.115 372.816 480.807 C 432.678 480.292, 427.999 489.638, 428.002 370.568 C 428.003 262.667, 425.333 272.863, 453.820 271.988 C 476.532 271.290, 482.231 267.887, 482.231 255.024 C 482.231 247.493, 483.742 249.104, 372.316 137.829 C 253.486 19.161, 262.036 26.760, 251.543 30.497" stroke="none" fill="#040404" fill-rule="evenodd"/></svg>