<svg xmlns="http://www.w3.org/2000/svg" width="512" height="512" viewBox="0 0 512 512"><path d="M118.5 26.641C72.751 32.303 39.662 61.769 28.26 107c-2.02 8.014-3.229 271.054-1.322 287.616 4.927 42.793 34.215 76.509 76.562 88.138l10 2.746h285l9.706-2.681c40.273-11.125 68.524-41.573 75.916-81.819 1.128-6.14 1.378-32.883 1.378-147.5v-140l-2.746-10C472.153 64.896 444.617 38.25 405 28.26c-6.036-1.523-275-3.042-286.5-1.619m-4 33.829c-25.108 5.587-43.985 22.561-52.279 47.009L59.5 115.5l-.275 111.498c-.27 109.392-.24 111.459 1.616 109.5 1.04-1.099 11.758-13.923 23.819-28.498 31.746-38.366 39.913-44.023 63.84-44.221 21.957-.182 34.501 6.846 53.992 30.251l12.191 14.638 32.153-36.758c41.899-47.899 46.895-51.41 73.164-51.41 27.548 0 29.503 1.505 86.128 66.31 24.841 28.429 45.562 52.131 46.048 52.669.51.566.764-46.46.603-111.5L452.5 115.5l-2.724-8c-7.455-21.889-23.387-37.821-45.276-45.276l-8-2.724-138-.183c-111.95-.148-139.133.07-144 1.153m24.847 30.563c-35.204 6.302-57.059 42.627-46.005 76.467 16.287 49.861 85.334 54.913 108.72 7.955 21.184-42.535-16.128-92.761-62.715-84.422m1.293 33.539c-14.881 4.754-21.785 23.203-14.022 37.468 12.645 23.233 48.637 13.951 48.628-12.54-.007-18.181-17.126-30.512-34.606-24.928m169.769 129.193c-7.431 2.657-7.613 2.843-48.438 49.618-51.092 58.537-47.647 57.383-74.474 24.961-23.94-28.931-26.92-31.324-38.997-31.324-13.258 0-12.911-.325-56.498 52.816l-32.264 39.336.534 5.164c2.489 24.043 21.5 46.326 47.228 55.356l8 2.808h280l7.778-2.653c26.363-8.991 47.598-35.047 47.707-58.537.021-4.551-111.225-131.49-118.892-135.663-6.591-3.587-14.901-4.308-21.684-1.882" fill="#040404" fill-rule="evenodd"/></svg>