<svg xmlns="http://www.w3.org/2000/svg" fill="#fff" version="1.0" height="420" width="370" viewBox="90 80 460 480"><path d="M300.5 64.7c-40.8 6.3-72.7 22.2-99.1 49.5-25 25.7-39.2 54.7-44.9 91.3-2.3 14.2-1.6 42.4 1.3 56 2.9 13.5 8.5 29.4 14.7 41.3 3 5.9 34.9 56.6 70.9 112.7 60.8 94.8 65.7 102.2 69.7 104.2 5.2 2.8 8.1 2.9 13.6.2 4-1.9 6.5-5.6 41-59.2 20.1-31.5 49.9-77.9 66.2-103.2 34.7-54 39.4-62.9 45.4-84.5 4.4-16 5.2-22.1 5.2-44 0-18.6-.3-22.9-2.3-32-14.5-66.9-63.3-115.7-129.7-130.1-7.9-1.6-14.2-2.2-29.5-2.4-10.7-.2-20.8-.1-22.5.2m34.4 91.5c25.5 4.8 47.9 24.6 55.7 49.3 8.7 27.4 1.9 56.1-18.1 76-29 29.1-76 29.1-105 0-24.1-24-28.8-61.6-11.4-90.8 15.9-26.8 47.2-40.5 78.8-34.5"/><path d="M190.5 411.5c-53.4 14.8-86.3 36.7-93.9 62.4-2 6.7-2 16.8-.2 23.7 9.9 37.2 72.5 65.6 167.6 76.1 23.7 2.6 88.3 2.6 112 0 95.1-10.5 157.7-38.9 167.6-76.1 9.6-35.8-25.5-67.6-95.4-86.4l-11.1-3-38.8 60.6c-40.7 63.9-44.4 68.8-54.9 74.4-14.3 7.7-32.5 7.7-46.8 0-10.8-5.7-14.9-11.2-55-74.2-20.9-32.7-38.2-59.8-38.5-60.1-.3-.4-6 .8-12.6 2.6"/></svg>