<svg xmlns="http://www.w3.org/2000/svg" width="456.423" height="450.727" viewBox="0 0 456.423 450.727"><g fill-rule="evenodd" stroke-miterlimit="10"><path d="M276.573 146.065c0-1.25 12.121 2.539 16.69 4.56 9.465 4.187 18.471 16.601 20.187 27.027.766 4.657-2.748 18.477-3.985 18.477-.859 0-35.863-45.977-35.863-47.092" fill="#ffd071"/><path d="M186.855 63.358c6.954-7.49-3.243-17.915 99.347 116.15 93.684 122.43 93.865 119.843 87.527 123.93-2.563 1.652-28.323 10.964-28.884 10.29-.202-.244-36.05-44.539-75.532-97.614-84.756-113.933-69.656-101.531-75.73-94.03-3.465 4.279-4.467-1.95 68.542 95.972l70.482 96.643-3.408 3.996c-39.748 11.584-98.757 24.164-134.299 28.802l-4.76-1.11-12.9-9.8c-28.25-33.853-50.67-66.112-66.608-98.525L98.9 217.092l9.374-17.159c26.903-52.4 70.917-131.513 76.833-137.886M57.85 313.108c11.197-7.508 17-7.738 17-.671 0 4.1-14.653 14.871-20.231 14.871-8.87 0-7.234-7.182 3.23-14.2m12.5 16.31c10.473-6.642 15.5-6.291 15.5 1.082 0 6.11-20.015 16.792-24 12.808-4.217-4.218-2.613-6.841 8.5-13.89m11.06 17.428c9.805-6.351 15.44-5.905 15.44 1.222 0 6.015-19.951 16.403-24.17 12.585-4.204-3.805-2.466-6.554 8.73-13.807" fill="#fff"/><path d="M82.663 231.566c11.361-9.204 13.12-9.795 16.515-1.807 10.887 25.616 40.905 74.202 69.967 109.506l9.756 11.714-9.445 8.222c-67.269 46.119-115.468 50.41-141.727 10.118-30.202-46.343-21.815-75.835 53.561-136.895m-22.28 79.303c10.135-6.192 10.626-6.297 13.958-2.964 2.698 2.697 2.941 3.769 1.474 6.509-1.128 2.108-18.024 13.036-20.155 13.036-10.219 0-7.649-9.022 4.723-16.581m9.413 18.381c10.427-6.992 15.002-7.554 17.077-2.098 2.64 6.943-19.534 20.871-24.497 15.386-3.575-3.95-1.821-7.091 7.42-13.288m11.25 17.222c10.418-6.736 11.809-7.053 15.358-3.505 4.461 4.461 2.808 6.958-9.539 14.412-10.419 6.291-15.069 5.812-15.069-1.55 0-3.16.591-3.758 9.25-9.357" fill="#f47676"/><path d="M161.923 377.416c5.678-3.713.512-6.381 9.072 9.285-1.986 2.687-2.098.971-.363 4.626 2.955 6.23 9.753 18.51 15.263 25.88 7.42 9.922 6.91 14.018 4.07 17.042-11.104 11.819-24.74 6.977-72.01-26.517l-7.227-7.344 13.728-6.583c11.635-4.674 29.807-11.379 37.467-16.389" fill="#4e73a8"/><path d="M310.071 1.558c3.841-3.508 10.385-.688 10.334 4.455-.051 5.258-17.403 30.788-21.137 31.1-3.824.318-6.845-2.264-6.845-5.852 0-2.276 14.691-27.002 17.648-29.703M185.107 53.757c13.75-4.904 14.604-4.168 52.34 45.082l30.386 39.658 6.085-.652c33.178-3.553 59.842 32.046 46.535 62.129-1.245 2.813-1.697 5.048-1.159 5.724 10.488 13.181 61.161 80.228 62.813 83.11 4.436 7.742 2.052 19.553-5.036 24.952-11.655 8.876-126.235 37.435-176.193 43.915l-11.045 1.433-9.955 7.006c-5.475 3.853-12.43 8.4-15.455 10.104-17.89 10.078-27.912 15.093-39.315 19.674l-12.815 5.148 6.315 4.474c40.618 28.781 54.572 35.51 64.083 30.906 10.188-4.931 10.481-7.161 2.348-17.854-9.975-13.117-19.045-29.332-18.089-32.342 2.615-8.239 8.665-5.706 16.091 6.738 3.217 5.392 8.41 13.257 11.54 17.479 11.937 16.099 12.033 24.128.393 32.916-18.192 13.736-28.994 10.193-82.734-27.13l-15.683-10.893-5.317 1.049c-30.614 6.039-54.177-4.368-72.747-32.131-35.407-52.934-22.423-85.592 60.33-151.747l13.9-11.112L103 191.395c21.1-41.058 58.615-108.734 69.894-126.087 5.036-7.747 7.148-9.745 12.213-11.551m3.395 11.816c2.931-1.496 3.153-1.508 6.233-.336 1.916.728 40.255 49.631 65.23 83.203 1.077 1.447 25.391 33.172 54.031 70.5 61.885 80.655 58.427 75.949 58.427 79.518 0 4.433-2.992 6.458-15.188 10.278l-11.3 3.539-2.101-2.234c-1.155-1.228-34.212-45.372-73.46-98.098-73.043-98.125-73.964-99.255-78.794-96.557-6.532 3.649-8.411.733 57.059 88.53 83.83 112.419 83.092 111.417 82.477 112.032-4.901 4.901-120.772 30.346-138.239 30.357-9.987.007-60.122-69.661-81.558-113.334l-7.874-16.04 10.368-20.061c15.296-29.595 36.15-67.983 51.1-94.062C182.927 71.385 185.705 67 188.502 65.573m220.744 13.865c13.071-10.745 16.144-12.034 19.597-8.218 6.208 6.86-24.683 33.685-31.591 27.433-4.725-4.276-3.191-6.733 11.994-19.215m-132.183 70.643c.291-.47 1.278-.649 2.194-.398s3.693.731 6.171 1.065c9.779 1.322 20.129 10.142 24.07 20.515 2.607 6.861 2.515 22.801-.126 21.836-1.575-.576-32.825-42.183-32.309-43.018m156.591 57.272c20.387-2.817 22.769-2.347 22.769 4.489 0 8.069-38.088 13.626-40.995 5.98-2.486-6.539-.034-7.947 18.226-10.469M87.708 231.209c3.418-2.674 6.448-4.87 6.732-4.881.285-.011 3.592 6.168 7.349 13.73 17.463 35.143 44.321 74.499 75.356 110.419 2.825 3.271-35.7 26.493-58.667 35.363-50.276 19.417-76.18 10.441-98.674-34.189-18.174-36.059-.976-66.562 67.904-120.442" fill="#383a49"/></g></svg>