<svg xmlns="http://www.w3.org/2000/svg" width="512" height="512" viewBox="0 0 512 512"><path d="M97.241 1.995c-7.855 4.789-7.233-6.235-7.237 128.272L90 250.034l-4.983-2.525C45.524 227.496-1.932 259.685.275 304.988c2.992 61.422 86.767 78.987 113.613 23.819 6.42-13.194 6.112-6.084 6.112-141.069V64.896l5.222 6.302c12.824 15.476 35.529 36.42 59.278 54.679 40.167 30.882 30.135 80.839-17.187 85.592-24.352 2.445-23.637 30.515.777 30.527 73.75.037 97.521-93.08 35.776-140.139-34.489-26.286-51.416-44.084-74.654-78.497C113.091-.514 107.492-4.255 97.241 1.995M481 125.467c-6.325 1.815-54.025 15.327-106 30.026-98.578 27.878-99.1 28.048-102.747 33.459L270 192.296v207.738l-4.983-2.525c-39.493-20.013-86.949 12.176-84.742 57.479 3.213 65.97 93.285 78.623 116.97 16.432 2.255-5.92 2.255-5.92 2.755-104.358l.5-98.438 31-8.762c17.05-4.819 57.887-16.364 90.75-25.656L482 217.312v122.722l-4.983-2.525c-39.493-20.013-86.949 12.176-84.742 57.479 3.335 68.483 101.226 78.05 118.203 11.552 2.697-10.563 2.25-272.834-.473-277.299-4.882-8.009-11.326-8.847-29.005-3.774" fill="#040404" fill-rule="evenodd"/></svg>