<svg xmlns="http://www.w3.org/2000/svg" width="512" height="512" viewBox="0 0 512 512"><path d="M247.5 1.417c-3.944 1.761-8.019 6.185-9.947 10.801C236.169 15.532 236 35.17 236 192.852v176.916l-7.376-3.706c-74.06-37.205-169.237 18.659-147.268 86.438 23.783 73.376 152.465 80.601 187.007 10.5 8.148-16.536 7.6-2.316 7.62-197.854L276 90.792l7.944 7.474c9.679 9.105 17.216 14.817 40.556 30.734 46.816 31.928 58.777 45.672 66.471 76.383 7.773 31.029-5.929 83.848-29.219 112.632-8.548 10.565-9.758 16.917-4.968 26.086 25.562 48.931 88.676-70.062 74.88-141.177-8.421-43.41-28.081-68.811-81.012-104.671-46.714-31.647-67.872-55.15-75.58-83.958-3.008-11.24-16.805-17.684-27.572-12.878" fill="#040404" fill-rule="evenodd"/></svg>