<svg version="1.0" xmlns="http://www.w3.org/2000/svg" width="538.762" height="682.707" viewBox="0 0 404.072 512.03"><path d="M51.136 1.457c-4.5 2.5-5 4.9-5.1 24.3v18.1l-19.3.4c-21.9.3-23.8.9-25.6 7.5-1.2 4.1-1.6 197.6-.5 203.2.4 1.7 1.8 4.2 3.2 5.6l2.5 2.5h185.7v41.8l-12.2.4c-10.8.4-13 .8-18 3.2-7.3 3.5-15 11.7-17.7 19.1-6.4 17.1 1.6 36.5 18.1 44.1 5.5 2.5 7.7 2.9 18.1 3.2l11.7.4-.2 21.6-.3 21.6-44.2 37.1c-24.4 20.3-45.5 38.2-47 39.7-4.1 4.1-3.9 10 .5 13.9 3.2 2.9 6.3 3.6 9.9 2.2 1-.4 19.5-15.5 41-33.5 21.6-18 39.5-32.8 39.8-32.8s.5 13.3.5 29.5c0 31.7.3 33.6 5.1 36.1 3.5 1.8 6.3 1.8 9.8 0 4.8-2.5 5.1-4.4 5.1-36.1 0-16.2.2-29.5.5-29.5s18.2 14.8 39.8 32.8c21.6 18.1 40.1 33.1 41.1 33.5 3.5 1.4 6.6.7 9.8-2.2 2.7-2.4 3.3-3.6 3.3-6.9 0-2.6-.7-4.8-2-6.3-1.1-1.2-22.4-19.2-47.2-40.1l-45.3-37.9v-42.9h9.8c15.5 0 23.9-3.3 32-12.5s10.5-23.2 6.1-35c-2.7-7.4-10.4-15.6-17.7-19.1-5-2.4-7.2-2.8-17.9-3.2l-12.3-.4v-41.8h185.7l2.5-2.5c1.4-1.4 2.8-3.9 3.2-5.6 1.1-5.6.7-199.1-.5-203.2-1.8-6.6-3.7-7.2-25.6-7.5l-19.3-.4v-17.8c0-11.8-.4-18.8-1.2-20.5-2.5-5.6-1.9-5.5-63.7-5.5-37.6 0-58.8.4-62.3 1.1-7.9 1.6-17.3 6.6-23.4 12.4l-5.4 5.1-5.4-5.1c-6.1-5.8-15.5-10.8-23.4-12.4-8.3-1.7-118.9-1.4-122.1.3m124 21.2c5.7 2.7 11.5 8.5 14.3 14.4 2.1 4.4 2.1 5.5 2.4 82.7l.2 78.3h-126v-178.1l52.3.3c50.7.3 52.3.4 56.8 2.4m162.9 86.4v89h-126v-76.8c.1-70.6.2-77.1 1.8-81.8 2.9-8.4 9.2-14.7 17.6-17.6 4.6-1.6 10.1-1.7 55.9-1.8h50.7zm-292 28c0 54.4.3 73.6 1.2 75.5 2.6 5.8-6.2 5.5 154.8 5.5s152.2.3 154.8-5.5c.9-1.9 1.2-21.1 1.2-75.6v-73l12.8.3 12.7.3.3 89.2.2 89.3h-364v-88.8c0-48.9.3-89.2.7-89.5.3-.4 6.2-.7 13-.7h12.3zm188 189.8c5 2.5 8 7.5 8 13.2s-3 10.7-8 13.2c-3.1 1.6-6.9 1.8-32 1.8s-28.9-.2-32-1.8c-10.7-5.3-10.7-21.1 0-26.4 3.1-1.6 6.9-1.8 32-1.8s28.9.2 32 1.8"/><path d="M97.536 52.457c-3.6 3.6-4.2 7.3-1.9 11.5 2.9 5.5 5.6 6 33.4 6 28.1 0 30.5-.5 33.3-6.1 1.6-3.2 1.7-4.3.7-7.3-2.1-6.5-2.3-6.5-34.3-6.5h-28.8zm.3 49.5c-2.7 2.4-3.3 3.6-3.3 7.1s.6 4.7 3.3 7.1l3.2 2.9h56l3.2-2.9c2.7-2.4 3.3-3.6 3.3-7.1s-.6-4.7-3.3-7.1l-3.2-2.9h-56zm-.3 49.5c-3.6 3.6-4.2 7.3-1.9 11.5 2.9 5.5 5.6 6 33.4 6 28.1 0 30.5-.5 33.3-6.1 1.6-3.2 1.7-4.3.7-7.3-2.1-6.5-2.3-6.5-34.3-6.5h-28.8zm146.8-99.9c-1.2.8-2.7 3.1-3.3 5-1 3-.9 4.1.7 7.3 2.8 5.6 5.2 6.1 33.3 6.1 27.8 0 30.5-.5 33.4-6 2.3-4.2 1.7-7.9-1.9-11.5l-2.4-2.4h-28.8c-24.1 0-29.2.3-31 1.5m-.5 50.4c-2.7 2.4-3.3 3.6-3.3 7.1s.6 4.7 3.3 7.1l3.2 2.9h56l3.2-2.9c2.7-2.4 3.3-3.6 3.3-7.1s-.6-4.7-3.3-7.1l-3.2-2.9h-56zm.5 48.6c-1.2.8-2.7 3.1-3.3 5-1 3-.9 4.1.7 7.3 2.8 5.6 5.2 6.1 33.3 6.1 27.8 0 30.5-.5 33.4-6 2.3-4.2 1.7-7.9-1.9-11.5l-2.4-2.4h-28.8c-24.1 0-29.2.3-31 1.5"/></svg>