<svg xmlns="http://www.w3.org/2000/svg" width="511.254" height="512.039" viewBox="0 0 511.254 512.039"><path d="M451.103 1.756c31.231-8.397 59.917 14.282 59.917 47.37 0 35.465-18.189 69.308-54.263 100.965l-9.763 8.568.263 33.774.263 33.773 9.687 3.33c29.609 10.176 50.82 35.791 53.055 64.07 1.344 17.011 1.61 13.554-1.038 30.411-5.049 32.15-28.387 64.904-55.918 78.48l-6.286 3.1v32.576c0 50.713-6.94 65.274-34.535 72.462-32.653 8.505-69.581-23.308-59.054-50.874 5.986-15.674 29.589-10.702 29.589 6.233 0 12.299 15.175 19.956 25.721 12.978 6.992-4.628 7.279-6.066 7.278-36.455l-.001-26.849-17.249-.088c-82.958-.425-135.904-86.688-98.763-160.912 14.222-28.42 33.821-48.179 90.014-90.746l25.5-19.316.546-52.969c.475-46.179.762-53.61 2.239-57.969 5.21-15.383 18.15-27.974 32.798-31.912m5.417 30.76c33.031-15.186 30.43 41.441-3.579 77.899l-5.832 6.253-.045-35.782c-.052-41.864.407-44.21 9.456-48.37M33.939 81.997c11.233-2.94 337.715-2.24 341.696.733 9.497 7.091 9.498 18.785 0 25.876-2.752 2.055-3.21 2.063-134.188 2.323l-131.427.261v48.93l96.75.274c91.81.26 96.903.368 99.75 2.108 10.276 6.284 9.979 21.639-.52 26.914-3.241 1.629-10.091 1.749-99.73 1.75l-96.25.002v50h70.266c80.017 0 75.147-.51 79.596 8.33 3.976 7.902 1.441 16.259-6.2 20.44-2.898 1.586-9.025 1.754-73.412 2.012l-70.25.282v48.883l68.795.276c64.354.259 68.972.393 71.547 2.081 8.817 5.779 9.045 19.718.423 25.867-3.265 2.329-3.265 2.329-72.015 2.606l-68.75.276v48.896l89.927.275c89.465.275 89.942.287 92.75 2.368 10.041 7.441 9.651 21.354-.748 26.656-4.654 2.373-248.72 2.716-257.561.362-12.914-3.439-25.205-13.468-31.021-25.312L.52 399.668.26 257.206 0 114.743l3.358-7.037c6.197-12.986 17.15-22.194 30.581-25.709m5.581 30.588c2.139-.954 8.237-1.35 21.25-1.378l18.25-.039v49h-50l.006-16.25c.007-21.853 1.897-27.495 10.494-31.333m360 82.749 16-12.13.271 20.706c.311 23.771.478 22.801-4.078 23.656-33.781 6.337-69.343 56.688-58.423 82.72 7.065 16.842 27.996 10.879 29.78-8.484 1.642-17.821 11.364-32.763 26.45-40.653l6-3.137.258 62.737c.141 34.505-.007 63.001-.329 63.323-1.175 1.175-23.559 1.279-30.101.139-52.316-9.11-81.978-68.125-58.074-115.543 10.882-21.585 31.229-42.24 72.246-73.334m-370.5 20.834v-25h50v50h-50zm418 98.18v-56.13l2.466.937c41.045 15.605 40.927 75.269-.216 109.454l-2.25 1.869zm-418-17.68v-24.5h50v49h-50zm.156 74.325-.343-18.825H79.02v49H60.421c-29.474 0-30.716-1.199-31.245-30.175" fill="#040404" fill-rule="evenodd"/></svg>