<svg version="1.1" xmlns="http://www.w3.org/2000/svg" xmlns:xlink="http://www.w3.org/1999/xlink" width="511.25375" height="512.03852" viewBox="0,0,511.25375,512.03852"><g transform="translate(15.02,76.16845)"><g data-paper-data="{&quot;isPaintingLayer&quot;:true}" fill-rule="evenodd" stroke="none" stroke-width="1" stroke-linecap="butt" stroke-linejoin="miter" stroke-miterlimit="10" stroke-dasharray="" stroke-dashoffset="0" style="mix-blend-mode: normal"><path d="" fill="#080404"/><path d="M436.083,-74.412c31.231,-8.397 59.917,14.282 59.917,47.37c0,35.465 -18.189,69.308 -54.263,100.965l-9.763,8.568l0.263,33.774l0.263,33.773l9.687,3.33c29.609,10.176 50.82,35.791 53.055,64.07c1.3435,17.01095 1.60924,13.55367 -1.038,30.411c-5.049,32.15 -28.387,64.904 -55.918,78.48l-6.286,3.1v32.576c0,50.713 -6.94,65.274 -34.535,72.462c-32.653,8.505 -69.581,-23.308 -59.054,-50.874c5.986,-15.674 29.589,-10.702 29.589,6.233c0,12.299 15.175,19.956 25.721,12.978c6.992,-4.628 7.279,-6.066 7.278,-36.455l-0.001,-26.849l-17.249,-0.088c-82.958,-0.425 -135.904,-86.688 -98.763,-160.912c14.222,-28.42 33.821,-48.179 90.014,-90.746l25.5,-19.316l0.546,-52.969c0.475,-46.179 0.762,-53.61 2.239,-57.969c5.21,-15.383 18.15,-27.974 32.798,-31.912M441.5,-43.652c33.031,-15.186 30.43,41.441 -3.579,77.899l-5.832,6.253l-0.045,-35.782c-0.052,-41.864 0.407,-44.21 9.456,-48.37M18.919,5.829c11.233,-2.94 337.715,-2.24 341.696,0.733c9.497,7.091 9.498,18.785 0,25.876c-2.752,2.055 -3.21,2.063 -134.188,2.323l-131.427,0.261v24.465v24.465l96.75,0.274c91.81,0.26 96.903,0.368 99.75,2.108c10.276,6.284 9.979,21.639 -0.52,26.914c-3.241,1.629 -10.091,1.749 -99.73,1.75l-96.25,0.002v25v25h70.266c80.017,0 75.147,-0.51 79.596,8.33c3.976,7.902 1.441,16.259 -6.2,20.44c-2.898,1.586 -9.025,1.754 -73.412,2.012l-70.25,0.282v24.442v24.441l68.795,0.276c64.354,0.259 68.972,0.393 71.547,2.081c8.817,5.779 9.045,19.718 0.423,25.867c-3.265,2.329 -3.265,2.329 -72.015,2.606l-68.75,0.276v24.448v24.448l89.927,0.275c89.465,0.275 89.942,0.287 92.75,2.368c10.041,7.441 9.651,21.354 -0.748,26.656c-4.654,2.373 -248.72,2.716 -257.561,0.362c-12.914,-3.439 -25.205,-13.468 -31.021,-25.312l-2.847,-5.798l-0.26,-142.462l-0.26,-142.463l3.358,-7.037c6.197,-12.986 17.15,-22.194 30.581,-25.709M24.5,36.417c2.139,-0.954 8.237,-1.35 21.25,-1.378l18.25,-0.039v24.5v24.5h-25h-25l0.006,-16.25c0.007,-21.853 1.897,-27.495 10.494,-31.333M384.5,119.166l16,-12.13l0.271,20.706c0.311,23.771 0.478,22.801 -4.078,23.656c-33.781,6.337 -69.343,56.688 -58.423,82.72c7.065,16.842 27.996,10.879 29.78,-8.484c1.642,-17.821 11.364,-32.763 26.45,-40.653l6,-3.137l0.258,62.737c0.141,34.505 -0.007,63.001 -0.329,63.323c-1.175,1.175 -23.559,1.279 -30.101,0.139c-52.316,-9.11 -81.978,-68.125 -58.074,-115.543c10.882,-21.585 31.229,-42.24 72.246,-73.334M14,140v-25h25h25v25v25h-25h-25v-25M432,238.18v-56.13l2.466,0.937c41.045,15.605 40.927,75.269 -0.216,109.454l-2.25,1.869v-56.13M14,220.5v-24.5h25h25v24.5v24.5h-25h-25v-24.5M14.156,294.825l-0.343,-18.825h25.093h25.094v24.5v24.5h-18.599c-29.474,0 -30.716,-1.199 -31.245,-30.175" fill="#040404"/></g></g></svg>