<svg version="1.1" xmlns="http://www.w3.org/2000/svg" xmlns:xlink="http://www.w3.org/1999/xlink" width="510.78188" height="511.96186" viewBox="0,0,510.78188,511.96186"><g transform="translate(15.96029,76.13876)"><g data-paper-data="{&quot;isPaintingLayer&quot;:true}" fill-rule="evenodd" stroke="none" stroke-width="1" stroke-linecap="butt" stroke-linejoin="miter" stroke-miterlimit="10" stroke-dasharray="" stroke-dashoffset="0" style="mix-blend-mode: normal"><path d="" fill="#080404"/><path d="M31.124,-74.422c8.531,-2.295 349.322,-2.286 358.812,0.009c29.576,7.153 51.065,32.999 53.699,64.59c0.359,4.303 0.822,7.823 1.029,7.823c0.207,0 4.304,-1.968 9.106,-4.374c26.836,-13.446 38.694,-14.333 40.81,-3.051c0.739,3.941 0.49,4.422 -11.352,21.89c-13.231,19.519 -25.404,44.769 -31.697,65.751l-1.415,4.715l14.487,4.585c13.063,4.134 14.679,4.899 16.438,7.784c4.794,7.861 2.658,10.742 -18.684,25.201l-17.857,12.097l-0.254,113.701l-0.255,113.701h20.958c26.939,0 29.06,0.964 29.044,13.2c-0.037,27.855 -22.385,56.393 -48.373,61.772c-3.509,0.726 -53.422,0.976 -158.62,0.794l-153.5,-0.266l-7.06,-2.795c-18.611,-7.37 -33.137,-24.469 -38.457,-45.273c-1.943,-7.596 -1.983,-11.58 -1.983,-197.592v-189.84h-46.923h-46.924l-3.042,-2.56c-17.035,-14.334 11.856,-63.751 42.013,-71.862M40.224,-54.956c2.902,-0.409 6.176,-0.613 7.276,-0.452c7.883,1.153 10.473,1.868 14.899,4.11c9.318,4.722 19.298,17.535 21.247,27.278l0.604,3.02h-38.692c-44.285,0 -40.046,1.321 -34.519,-10.759c5.512,-12.047 17.461,-21.544 29.185,-23.197M93.441,-51.08l-3.611,-4.92l141.335,0.031c152.548,0.033 152.067,0.017 163.238,5.39c19.182,9.226 27.519,23.414 28.363,48.267l0.482,14.189l-13.966,13.811c-37.157,36.745 -60.266,84.621 -70.773,146.625c-1.68,9.914 -4.227,19.599 -8.457,32.156c-8.053,23.91 -7.347,31.531 2.921,31.531c8.082,0 9.214,-1.728 17.446,-26.621l5.661,-17.121l12.71,-8.529c6.991,-4.691 22.047,-14.837 33.46,-22.546l20.75,-14.017v106.417v106.417h-114.984h-114.984l-3.121,2.788c-2.811,2.511 -3.199,3.578 -3.924,10.764c-4.759,47.206 -58.832,57.541 -76.214,14.567c-2.273,-5.619 -2.273,-5.619 -2.813,-207.119c-0.497,-185.341 -0.676,-202.001 -2.237,-207.742c-2.288,-8.422 -6.899,-18.368 -11.282,-24.338M157.763,14.565c4.52,-2.452 134.302,-2.279 139.237,0.187c6.054,3.024 7.073,11.619 1.981,16.712c-2.003,2.003 -3.143,2.04 -70.908,2.306l-68.872,0.27l-3.066,-2.58c-5.646,-4.751 -4.813,-13.4 1.628,-16.895M446.268,21.929c4.875,-3.261 9.004,-5.929 9.176,-5.929c0.171,0 -2.715,5.986 -6.415,13.301c-24.411,48.266 -26.471,66.308 -8.273,72.459l8.106,2.74l-43.681,29.585c-24.025,16.271 -43.787,29.515 -43.917,29.43c-0.596,-0.389 6.945,-28.062 10.086,-37.015c16.541,-47.148 41.821,-82.433 74.918,-104.571M158.315,65.464c5.03,-2.188 133.516,-2.112 138.139,0.081c6.516,3.092 7.823,11.331 2.623,16.532l-2.923,2.923h-68.5h-68.501l-3.042,-2.56c-5.835,-4.91 -4.655,-13.993 2.204,-16.976M159.212,116.111c1.996,-0.586 29.483,-0.895 69.973,-0.788l66.685,0.177l3.065,2.937c4.302,4.123 4.363,10.418 0.142,14.64l-2.923,2.923h-68.03c-46.785,0 -68.774,-0.339 -70.412,-1.085c-7.873,-3.587 -6.855,-16.35 1.5,-18.804M155.686,169.415l2.606,-2.415h68.931h68.931l2.923,2.923c2.292,2.293 2.923,3.819 2.923,7.077c0,3.258 -0.631,4.784 -2.923,7.077l-2.923,2.923h-68.931h-68.931l-2.606,-2.415c-4.755,-4.407 -4.755,-10.763 0,-15.17M155.981,220.75l3.051,-2.75h51.061h51.061l2.923,2.923c4.077,4.078 4.08,9.75 0.006,14.311l-2.917,3.266l-48.591,0.286c-15.14131,0.08949 -35.99294,-0.68516 -53.41423,-1.08005c-2.38681,-0.0541 -3.26597,-1.47925 -4.58284,-2.6972c-3.58623,-3.31685 -4.0494,-9.34324 1.40306,-14.25875M284.923,220.923c2.293,-2.292 3.819,-2.923 7.077,-2.923c12.031,0 13.83,17.468 2.092,20.312c-9.342,2.263 -16.067,-10.491 -9.169,-17.389M336.035,257.982c14.732,-5.446 34.519,-0.491 45.838,11.477c33.028,34.922 -6.796,90.183 -50.249,69.729c-35.53,-16.725 -32.774,-67.46 4.411,-81.206M345.5,276.907c6.909,-1.717 17.386,1.797 22.128,7.421c14.364,17.034 -1.419,43.274 -22.67,37.69c-23.767,-6.247 -23.371,-39.168 0.542,-45.111M205.24,385.779l1.103,-4.779h132.937h132.937l-0.681,2.75c-2.874,11.619 -14.375,25.028 -25.219,29.403c-5.272,2.127 -255.317,4.581 -255.317,2.506c0,-0.217 1.982,-3.349 4.404,-6.961c4.556,-6.795 7.928,-14.651 9.836,-22.919" fill="#040404"/></g></g></svg>