<svg xmlns="http://www.w3.org/2000/svg" version="1.0" viewBox="60 60 520 520"><path d="M416.5 75c-17.5 2.6-33.8 11.6-45.7 25.1-5.3 6.1-12.2 17.6-14.6 24.6l-1.1 3.3H218c-121.7 0-137.5.2-140.8 1.6-14.6 6.1-17.8 25.7-5.9 36.1 2 1.8 5.3 3.7 7.4 4.2 2.6.7 48.1 1.1 140.1 1.1h136.3l1.9 4.7c5.3 12.9 12.9 23.5 22.4 31.4 7.4 6.1 21.7 13.3 30.6 15.3 8.3 2 24.7 2 32.8.1 24-5.7 43.8-22.7 53.1-45.8l2.3-5.7h29.7c17.6 0 31.1-.4 33.4-1.1 14.5-4 19.5-24 8.9-35.3-5.9-6.3-7.5-6.6-41.3-6.6h-30.7l-2.2-6c-1.2-3.2-4.4-9.2-7-13.2-16.1-24.5-44.9-37.9-72.5-33.8m23.5 45.8c2.5 1.3 6.3 4.2 8.6 6.4 12 11.6 12.6 30.4 1.3 43.1-11.6 13.3-32.8 13.8-45.4 1.2-12.6-12.7-12.1-33.8 1.2-45.4 6.6-5.9 13.1-8.2 22.3-7.8 5.5.1 8.7.8 12 2.5M200.3 246.1c-23.5 3.9-45.7 21.9-55.4 44.9l-2.8 6.5-31.3.5-31.3.5-4.8 2.8c-2.6 1.5-6 4.7-7.5 6.9-2.3 3.6-2.7 5.1-2.7 11.8s.4 8.2 2.7 11.8c1.5 2.2 4.9 5.4 7.5 6.9l4.8 2.8 31.3.5 31.3.5 2.8 6.5c11 26.2 36 44 63.9 45.7 30.3 1.8 57.6-14.4 71.6-42.4 1.4-2.6 2.8-6 3.1-7.5l.7-2.8 138.2-.2 138.1-.3 4.8-2.8c2.6-1.5 6-4.7 7.5-6.9 2.3-3.6 2.7-5.1 2.7-11.8s-.4-8.2-2.7-11.8c-1.5-2.2-4.9-5.4-7.5-6.9l-4.8-2.8-138.1-.3-138.2-.2-.7-2.8c-.3-1.5-1.7-4.9-3.1-7.5-15.3-30.6-47.1-47.1-80.1-41.6m24 44.6c6.5 2 14.8 9.8 17.8 16.5 1.7 4 2.3 7.1 2.3 12.8 0 10-2.8 16.3-10 22.9-15.7 14.3-40.1 9.7-49.5-9.5-2-4-2.4-6.4-2.4-13.4 0-9.9 2.3-15.8 8.6-22.1 8.9-8.9 20-11.3 33.2-7.2m185.2 126.9c-8.5 2.1-22.9 9.4-30.1 15.3-9.5 7.9-17.1 18.5-22.4 31.3l-1.9 4.8H218.8c-92 0-137.5.4-140.1 1.1-14.9 4.1-19.6 25.2-8.1 36.1 6.6 6.2-2.8 5.8 147.4 5.8 129.6 0 137.1.1 137.7 1.7 2.5 7.5 9.3 19.4 14.5 25.4 20 23.3 51 32.2 79.4 22.9 9-3 21.6-10.7 28.5-17.5 7.3-7.1 14.9-18.4 17.9-26.5l2.2-6h30.5c25.2 0 31-.3 34.1-1.6 14.6-6.1 17.8-25.7 5.9-36.1-2-1.8-5.3-3.7-7.4-4.2-2.3-.7-15.8-1.1-33.4-1.1h-29.7l-2.3-5.8c-9.3-23-29.1-40-53.1-45.7-7.9-1.9-25.4-1.8-33.3.1m31.2 44.9c19 9.4 23.1 35.6 7.9 50.3-6.2 6.1-11.9 8.6-20.1 9-26.4 1.3-42.2-26.8-27.5-48.9 8.3-12.6 25.8-17.2 39.7-10.4"/></svg>