<svg xmlns="http://www.w3.org/2000/svg" width="528.01" height="529.464" viewBox="0 0 528.01 529.464"><path d="M305.867 4.003c6-4.4 15.6-5.333 21.867-2 2 1.067 47.2 45.6 100.533 99.067C531.067 204.137 528 200.67 528 212.803c0 11.467-1.2 13.067-37.733 49.867-38 38.133-41.867 41.066-52 39.333-4.533-.667-7.467-2.667-16-10.933l-10.4-10.134-32 32L348 344.803l2.667 16c8 47.6 4.8 93.467-8.667 121.867-5.6 11.733-14.666 24.8-21.333 30.533-4 3.6-5.867 4.267-11.467 4.267-3.6 0-8.533-.934-10.933-2.134s-32-29.866-66-63.6l-61.6-61.6-68.4 68.267c-37.467 37.467-69.6 68.8-71.2 69.6-4.8 2.4-16.267 1.733-21.2-1.2C5.333 523.87 0 514.803 0 509.736c0-8.266 4.8-13.6 72.4-81.2l68.267-68.4L78.4 297.87c-34.267-34.4-62.933-64.134-63.6-66.134-2-5.2-1.867-12.4.4-16.666 1.067-2 4.8-6.4 8.4-9.733 14.267-13.467 37.467-23.334 63.333-27.334 18.934-2.933 59.334-1.866 82.4 2l16.534 2.934 32-32 32-32-9.467-9.734c-6.4-6.666-10-11.6-11.067-15.333-3.066-10.267-1.733-12.267 36.534-50.933 19.067-19.334 37.2-36.8 40-38.934"/></svg>