<svg version="1.0" xmlns="http://www.w3.org/2000/svg" width="527.995" height="529.477" viewBox="0 0 395.996 397.108"><path d="M229.4 2.983c-2.1 1.6-15.7 14.7-30 29.2-28.7 29-29.7 30.5-27.4 38.2.8 2.8 3.5 6.5 8.3 11.5l7.1 7.3-24 24-24 24-12.4-2.2c-17.3-2.9-47.6-3.7-61.8-1.5-19.4 3-36.8 10.4-47.5 20.5-2.7 2.5-5.5 5.8-6.3 7.3-1.7 3.2-1.8 8.6-.3 12.5.5 1.5 22 23.8 47.7 49.6l46.7 46.7-51.2 51.3c-50.7 50.7-54.3 54.7-54.3 60.9 0 3.8 4 10.6 7.4 12.8 3.7 2.2 12.3 2.7 15.9.9 1.2-.6 25.3-24.1 53.4-52.2l51.3-51.2 46.2 46.2c25.5 25.3 47.7 46.8 49.5 47.7s5.5 1.6 8.2 1.6c4.2 0 5.6-.5 8.6-3.2 5-4.3 11.8-14.1 16-22.9 10.1-21.3 12.5-55.7 6.5-91.4l-2-12 23.9-23.9 24-24 7.8 7.6c6.4 6.2 8.6 7.7 12 8.2 7.6 1.3 10.5-.9 39-29.5 27.4-27.6 28.3-28.8 28.3-37.4 0-9.1 2.3-6.5-74.8-83.8-40-40.1-73.9-73.5-75.4-74.3-4.7-2.5-11.9-1.8-16.4 1.5m113.4 167.8-14.1 14.2-7.5-6.9c-12.5-11.8-18.6-11.8-30.4-.1-20.9 20.7-64.2 66-65.5 68.5-1.9 3.6-1.5 8.1 2.3 26.6 2.3 11.7 2.7 16.1 2.8 32.5.1 19-.6 24.9-4.1 35.5-.8 2.5-1.7 4.7-2 5-.5.5-175.3-174.2-175.3-175.2 0-1.2 12.2-4.6 20.5-5.7 16-2.3 39.8-.7 60.7 3.9 10.4 2.4 15 2.5 18.6.6 1.5-.8 19-17.8 38.9-37.8 31.5-31.7 36.2-36.8 36.8-40.1 1-5.4-.9-9.1-8.9-17.6l-7.1-7.3 15-14.4 15-14.4 59.2 59.3 59.3 59.2z"/></svg>