<svg version="1.1" xmlns="http://www.w3.org/2000/svg" xmlns:xlink="http://www.w3.org/1999/xlink" width="512.81633" height="512.05831" viewBox="0,0,512.81633,512.05831"><g transform="translate(15.87518,76.04)"><g data-paper-data="{&quot;isPaintingLayer&quot;:true}" fill-rule="evenodd" stroke="none" stroke-width="1" stroke-linecap="butt" stroke-linejoin="miter" stroke-miterlimit="10" stroke-dasharray="" stroke-dashoffset="0" style="mix-blend-mode: normal"><path d="" fill="#080404"/><path d="M283.943,-73.097l2.943,-2.943l93.807,0.27c106.398,0.306 97.264,-0.495 106.859,9.377c7.524,7.742 8.448,11.843 8.448,37.507v22.04l-2.923,2.923c-3.835,3.834 -9.653,4.051 -13.771,0.512c-2.806,-2.41 -2.806,-2.41 -3.306,-23.982l-0.5,-21.572l-3.269,-3.268l-3.269,-3.267l-83.481,-0.272l-83.481,-0.273v18.023v18.022l4.25,0.017c46.691,0.191 69.542,56.402 36.004,88.568c-8.963,8.597 -29.452,16.006 -38.045,13.759c-2.209,-0.577 -2.209,-0.577 -2.209,17.539v18.117h23.875c34.377,0 39.221,2.256 34.334,15.989c-5.356,15.048 1.043,31.071 15.19,38.036c23.32,11.48 49.463,-10.348 42.223,-35.254c-2.364,-8.132 -2.099,-11.205 1.294,-15.005l2.916,-3.266l23.934,-0.5c31.444,-0.657 30.234,0.405 30.234,-26.545c0,-21.749 6.92,-29.689 17.049,-19.56l2.894,2.895c0,0 2.93093,26.53537 -1.252,42.867c-3.756,14.656 -16.335,21.343 -40.149,21.343h-15.14l0.4,3.433c1.404,12.022 -5.891,29.679 -16.274,39.392c-32.375,30.285 -84.429,8.745 -85.801,-35.505l-0.227,-7.32h-24.316c-35.145,0 -32.133,3.749 -32.162,-40.027c-0.028,-41.962 0.546,-43.269 17.04,-38.85c20.782,5.567 39.323,-7.928 39.323,-28.623c0,-20.262 -19.22,-34.76 -38.608,-29.124c-8.264,2.403 -11.429,2.126 -14.854,-1.299l-2.923,-2.923v-34.154v-34.154l2.943,-2.943M478.923,26.923c2.293,-2.292 3.819,-2.923 7.077,-2.923c11.163,0 13.979,15.186 3.619,19.515c-10.049,4.198 -18.452,-8.836 -10.696,-16.592M7.5,26.938c6.264,-1.532 183.346,-1.069 186.355,0.487c4.775,2.469 5.145,4.709 5.145,31.122v24.453l6.75,0.012c32.597,0.057 56.964,31.791 48.719,63.446c-5.863,22.51 -26.933,38.542 -50.653,38.542h-4.816v18v18h31.923h31.923l3.077,3.077c3.579,3.579 3.934,7.051 1.464,14.3c-6.462,18.966 8.496,39.006 29.149,39.052c20.887,0.046 35.319,-21.275 28.02,-41.395c-4.769,-13.149 -0.377,-15.229 31.342,-14.844c29.146,0.353 31.461,0.93 39.528,9.86c8.663,9.588 8.074,2.482 8.074,97.45c0,96.222 0.676,89.569 -10.096,99.414c-9.666,8.834 8.798,8.086 -199.545,8.086c-210.056,0 -190.72,0.816 -200.252,-8.448c-9.825,-9.548 -9.07,-1.73 -9.379,-97.206c-0.298,-92.186 -0.35,-91.306 5.685,-96.768c1.818,-1.644 1.774,-1.856 -1.521,-7.327l-3.392,-5.633v-86.341c0,-72.43 0.229,-86.89 1.424,-89.749c3.082,-7.377 12.933,-15.599 21.076,-17.59M8.009,49.837l2.837,-2.837h83.577h83.577v25.032c0,33.583 2.055,37.881 15.981,33.42c20.32,-6.51 39.468,5.771 40.8,26.169c1.443,22.088 -17.313,36.636 -39.735,30.821c-15.337,-3.978 -16.461,-1.834 -16.843,32.129l-0.296,26.429h-26.231c-33.678,0 -35.815,1.156 -31.553,17.062c3.318,12.385 0.349,23.665 -8.28,31.461c-22.612,20.429 -57.956,-1.542 -49.466,-30.749c2.402,-8.261 2.125,-11.426 -1.3,-14.851l-2.923,-2.923h-22.176c-35.301,0 -31.408,10.23 -31.778,-83.5c-0.33,-83.492 -0.328,-83.526 3.809,-87.663M8.659,244.054c2.363,-1.859 3.997,-2.054 17.252,-2.054h14.642l-0.35,3.75c-1.378,14.769 8.884,34.803 22.433,43.796c33.522,22.251 78.443,-0.614 79.651,-40.542l0.212,-7.004h17.75h17.751v23.875c0,34.377 2.256,39.221 15.989,34.334c20.208,-7.192 41.013,7.114 41.01,28.201c-0.002,20.363 -18.926,34.823 -38.228,29.212c-8.132,-2.364 -11.205,-2.099 -15.005,1.294l-3.266,2.917l-0.31,27.106l-0.31,27.105l-83.421,-0.272l-83.421,-0.272l-3.269,-3.269l-3.269,-3.269l-0.302,-77.731c-0.322,-82.567 -0.276,-83.451 4.461,-87.177M199,259.8v-17.8h23h23l0.015,5.25c0.061,21.853 15.127,42.367 35.835,48.796c32.099,9.964 66.15,-14.346 66.15,-47.228v-6.818h15.099h15.099l2.901,3.106l2.901,3.106v80.259c0,79.34 -0.023,80.289 -2.045,82.86c-3.621,4.602 -4.76,4.658 -95.705,4.663l-86.25,0.006v-18.299v-18.299l3.433,0.4c16.567,1.934 39.778,-11.444 47.997,-27.664c17.059,-33.665 -6.972,-73.853 -44.507,-74.431l-6.923,-0.107v-17.8" fill="#040404"/></g></g></svg>