<svg xmlns="http://www.w3.org/2000/svg" width="512.816" height="512.058" viewBox="0 0 512.816 512.058"><path d="m283.943-73.097 2.943-2.943 93.807.27c106.398.306 97.264-.495 106.859 9.377C495.076-58.651 496-54.55 496-28.886v22.04l-2.923 2.923c-3.835 3.834-9.653 4.051-13.771.512-2.806-2.41-2.806-2.41-3.306-23.982l-.5-21.572-3.269-3.268-3.269-3.267-83.481-.272L302-56.045V-20l4.25.017c46.691.191 69.542 56.402 36.004 88.568-8.963 8.597-29.452 16.006-38.045 13.759C302 81.767 302 81.767 302 99.883V118h23.875c34.377 0 39.221 2.256 34.334 15.989-5.356 15.048 1.043 31.071 15.19 38.036 23.32 11.48 49.463-10.348 42.223-35.254-2.364-8.132-2.099-11.205 1.294-15.005l2.916-3.266 23.934-.5c31.444-.657 30.234.405 30.234-26.545 0-21.749 6.92-29.689 17.049-19.56l2.894 2.895s2.93 26.535-1.252 42.867C490.935 132.313 478.356 139 454.542 139h-15.14l.4 3.433c1.404 12.022-5.891 29.679-16.274 39.392-32.375 30.285-84.429 8.745-85.801-35.505L337.5 139h-24.316c-35.145 0-32.133 3.749-32.162-40.027-.028-41.962.546-43.269 17.04-38.85 20.782 5.567 39.323-7.928 39.323-28.623 0-20.262-19.22-34.76-38.608-29.124-8.264 2.403-11.429 2.126-14.854-1.299L281-1.846v-68.308zm194.98 100.02C481.216 24.631 482.742 24 486 24c11.163 0 13.979 15.186 3.619 19.515-10.049 4.198-18.452-8.836-10.696-16.592M7.5 26.938c6.264-1.532 183.346-1.069 186.355.487C198.63 29.894 199 32.134 199 58.547V83l6.75.012c32.597.057 56.964 31.791 48.719 63.446-5.863 22.51-26.933 38.542-50.653 38.542H199v36h63.846l3.077 3.077c3.579 3.579 3.934 7.051 1.464 14.3-6.462 18.966 8.496 39.006 29.149 39.052 20.887.046 35.319-21.275 28.02-41.395-4.769-13.149-.377-15.229 31.342-14.844 29.146.353 31.461.93 39.528 9.86 8.663 9.588 8.074 2.482 8.074 97.45 0 96.222.676 89.569-10.096 99.414-9.666 8.834 8.798 8.086-199.545 8.086-210.056 0-190.72.816-200.252-8.448-9.825-9.548-9.07-1.73-9.379-97.206-.298-92.186-.35-91.306 5.685-96.768 1.818-1.644 1.774-1.856-1.521-7.327L-15 220.618v-86.341c0-72.43.229-86.89 1.424-89.749C-10.494 37.151-.643 28.929 7.5 26.938m.509 22.899L10.846 47H178v25.032c0 33.583 2.055 37.881 15.981 33.42 20.32-6.51 39.468 5.771 40.8 26.169 1.443 22.088-17.313 36.636-39.735 30.821-15.337-3.978-16.461-1.834-16.843 32.129L177.907 221h-26.231c-33.678 0-35.815 1.156-31.553 17.062 3.318 12.385.349 23.665-8.28 31.461-22.612 20.429-57.956-1.542-49.466-30.749 2.402-8.261 2.125-11.426-1.3-14.851L58.154 221H35.978C.677 221 4.57 231.23 4.2 137.5c-.33-83.492-.328-83.526 3.809-87.663m.65 194.217c2.363-1.859 3.997-2.054 17.252-2.054h14.642l-.35 3.75c-1.378 14.769 8.884 34.803 22.433 43.796 33.522 22.251 78.443-.614 79.651-40.542l.212-7.004H178v23.875c0 34.377 2.256 39.221 15.989 34.334 20.208-7.192 41.013 7.114 41.01 28.201-.002 20.363-18.926 34.823-38.228 29.212-8.132-2.364-11.205-2.099-15.005 1.294l-3.266 2.917-.31 27.106-.31 27.105-83.421-.272-83.421-.272-3.269-3.269-3.269-3.269-.302-77.731c-.322-82.567-.276-83.451 4.461-87.177M199 259.8V242h46l.015 5.25c.061 21.853 15.127 42.367 35.835 48.796C312.949 306.01 347 281.7 347 248.818V242h30.198l2.901 3.106 2.901 3.106v80.259c0 79.34-.023 80.289-2.045 82.86-3.621 4.602-4.76 4.658-95.705 4.663L199 416v-36.598l3.433.4c16.567 1.934 39.778-11.444 47.997-27.664 17.059-33.665-6.972-73.853-44.507-74.431L199 277.6z" fill="#040404" transform="translate(15.875 76.04)" fill-rule="evenodd"/></svg>