<svg xmlns="http://www.w3.org/2000/svg" width="512" height="512" viewBox="0 0 512 512" version="1.1"><path d="" stroke="none" fill="#080404" fill-rule="evenodd"/><path d="M 247.500 1.573 C 241.711 4.584, 239.343 8.290, 179.197 108.500 C 107.954 227.199, 110.172 221.906, 126.836 233.487 L 131.172 236.500 256 236.500 L 380.828 236.500 385.155 233.458 C 391.766 228.812, 394.148 223.948, 393.764 215.879 C 393.457 209.422, 281.407 18.505, 270.903 6.543 C 265.378 0.250, 254.489 -2.062, 247.500 1.573 M 255.289 61.230 C 252.708 64.545, 174.864 195.197, 175.244 195.577 C 175.483 195.816, 212.111 195.897, 256.640 195.756 L 337.602 195.500 296.940 127.730 C 267.432 78.549, 256.007 60.308, 255.289 61.230 M 12.007 276.593 C 7.457 278.566, 4.260 281.613, 1.889 286.237 C 0.032 289.859, -0.019 293.188, 0.236 394.737 C 0.533 512.754, -0.278 501.872, 8.742 508.752 L 12.344 511.500 117.422 511.741 C 236.609 512.015, 226.717 512.747, 233.458 503.156 L 236.500 498.828 236.786 396.164 C 237.122 275.810, 237.647 280.507, 223.360 276.226 C 216.617 274.206, 16.712 274.553, 12.007 276.593 M 376.500 276.109 C 281.295 289.828, 241.582 407.457, 309 476.045 C 383.916 552.261, 512 500.038, 512 393.276 C 512 321.492, 447.658 265.854, 376.500 276.109 M 40 394 L 40 472 118 472 L 196 472 196 394 L 196 316 118 316 L 40 316 40 394 M 377.365 317.493 C 313.564 331.369, 294.192 414.295, 345.338 454.590 C 396.515 494.910, 471.470 458.536, 471.223 393.500 C 471.035 343.939, 425.461 307.033, 377.365 317.493" stroke="none" fill="#040404" fill-rule="evenodd"/></svg>