<svg xmlns="http://www.w3.org/2000/svg" version="1.0" viewBox="60 60 520 520"><path d="M314 69.8c-.9.4-2.5 1.4-3.7 2.2-1.2.9-29.4 47-62.7 102.5-59 98.4-60.6 101.1-60.6 106.1 0 6.2 2.9 11.1 8 13.6 3.3 1.7 11.3 1.8 125 1.8s121.7-.1 125-1.8c5.1-2.5 8-7.4 8-13.6 0-5-1.6-7.7-59.1-103.6-32.5-54.2-60-100-61.2-101.7-1.2-1.8-3.6-4-5.4-4.8-3.2-1.5-10.6-1.9-13.3-.7m9.6 49.9c6.6 11.6 82 137.1 83.9 139.8 1.2 1.6 2.5 3.6 2.9 4.3.6 1-17.4 1.2-90.4 1.2h-91.1l2.9-4.3c1.7-2.3 20.9-34.1 42.8-70.7 37.9-63.5 45-75 45.9-75 .2 0 1.6 2.1 3.1 4.7M77 345.7c-1.9 1-4.5 3.3-5.7 5.2l-2.3 3.4.2 104.4.3 104.3 3.8 3.7 3.7 3.8 104.3.3 104.4.2 3.4-2.3c7.4-4.9 6.9 2.6 6.9-111 0-112.7.4-106.2-6.4-111l-3.1-2.2-103-.3C87 344 80.3 344.1 77 345.7M263 377c2 2 2 3.3 2 81s0 79-2 81-3.3 2-81 2-79 0-81-2-2-3.3-2-81 0-79 2-81 3.3-2 81-2 79 0 81 2m175.6-31.4c-24.6 4.4-44 14.5-61.2 31.8-26.2 26.1-37.8 62-31.9 98.6 7.8 48 44.9 85.3 93 93.6 12.3 2.2 34.7 1.4 46.4-1.5 41.7-10.6 72.6-41.5 83.3-83.8 2-7.6 2.3-11.2 2.2-27.3 0-16.9-.3-19.4-2.8-28.5-10.1-37-37.6-66.5-73.1-78.4-17.5-5.9-38.9-7.6-55.9-4.5m41.9 32.4c16.8 5.3 34.1 17.5 44 31 5.3 7.2 11.3 19.9 13.6 28.7 2.8 10.9 2.8 28.8-.1 39.7-7.6 29.6-30.9 52.9-60.6 60.7-10.9 2.8-28.8 2.8-39.7 0-8.8-2.3-21.5-8.3-28.7-13.6-13.6-10-25.8-27.3-31-44-3.1-9.9-3.8-27.3-1.6-38.5 6.6-32.5 31.8-58.2 64.1-65.4 10.2-2.3 30.7-1.6 40 1.4"/></svg>