<svg xmlns="http://www.w3.org/2000/svg" version="1.0" viewBox="0 0 640 640"><path fill-opacity=".2" stroke="#000" stroke-opacity=".2" stroke-width=".8" d="M187.3 145.7c53.2.2 140.2.2 193.5 0 53.2-.1 9.6-.2-96.8-.2s-150 .1-96.7.2zm-33.6 57c34.8.2 91.8.2 126.5 0 34.8-.1 6.4-.2-63.2-.2s-98 .1-63.3.2zm-23.9 289c21.7.2 56.8.2 78 0 21.3-.1 3.6-.2-39.3-.2s-60.3.1-38.7.2z"/><path fill-opacity=".3" stroke="#000" stroke-opacity=".3" stroke-width=".8" d="M409.5 314.5c0 68.7.1 96.7.2 62.2.2-34.6.2-90.8 0-125-.1-34.2-.2-6-.2 62.8z"/><path fill-opacity=".4" stroke="#000" stroke-opacity=".4" stroke-width=".8" d="M457.5 406c0 49.8.1 70.1.2 45.3.2-24.9.2-65.7 0-90.5-.1-24.9-.2-4.6-.2 45.2z"/><path fill-opacity=".6" stroke="#000" stroke-opacity=".6" stroke-width=".8" d="M188.3 87.7c52.6.2 138.8.2 191.5 0 52.6-.1 9.5-.2-95.8-.2s-148.4.1-95.7.2zm-34.1 173c34.6.2 91 .2 125.5 0 34.6-.1 6.3-.2-62.7-.2s-97.3.1-62.8.2zm-24 173c20.7.2 54.9.2 76 0 21.1-.1 4.1-.2-37.7-.2s-59 .1-38.3.2z"/><g stroke="#000" stroke-width=".8"><path d="M83.3 89.6C73 93.3 65 104.6 65 115.5c0 12.1 5.4 21.1 15.8 26.2l5.7 2.8h395l5.7-2.8c10.4-5.1 15.8-14.1 15.8-26.2 0-7.7-3.4-14.9-9.6-20.4-8.8-7.7 9-7.1-209.8-7-170.4 0-196.6.3-200.3 1.5zm344.4 79.8c-6 1.6-11.5 6-14.7 11.7l-2.5 4.4-.3 127.1-.2 127.1-7.8-1.9c-41.1-10.1-87.4 8.8-98.8 40.3-11.5 32 14.9 64.8 58.3 72.4 29 5.1 60.7-3.4 78.8-21.1 6.6-6.4 10.3-11.9 13.8-20.7 2.2-5.2 2.2-5.8 2.7-99.6l.5-94.3 8.7 4.5c22.9 11.7 41.6 30.2 52 51.2 6.2 12.6 6.3 12.8 4.3 19.1-3.5 11.1.3 21.9 9.7 27.7 9.3 5.8 19.9 4.5 27.9-3.2 11.8-11.6 18.3-48.4 13.4-75.2-4.7-25.4-17.5-49.2-35.7-66.5-10.3-9.8-18.2-15.2-33.3-22.7-15.9-7.9-23.7-13.5-31-22.4-8.4-10.2-16.5-28.4-16.5-37.4 0-3.5-4.3-12-7.6-15.1-5.6-5.3-14.2-7.4-21.7-5.4zm-342.4 35c-12.8 4.1-20.3 14.4-20.3 28 0 8 3.2 14.8 9.4 20.3 8.9 7.9-1.4 7.4 144.7 7.1l130.4-.3 4.2-2.3c21.3-11.3 21.3-39.7-.1-51l-5.1-2.7-129.5-.2c-104.7-.1-130.3.1-133.7 1.1z"/><path d="M81.5 321.4c-22.1 10.4-22.1 41 0 51.2l5 2.4h130.1c143.9 0 135.1.4 143.1-6.4 2.1-1.9 5.2-5.8 6.8-8.7 2.6-4.6 3-6.5 3-12.9s-.4-8.3-3-12.9c-1.6-2.9-4.7-6.8-6.8-8.7-8-6.8.8-6.4-143.1-6.4H86.5zm1.8 114.2C73 439.3 65 450.6 65 461.5c0 12.1 5.4 21.1 15.8 26.2l5.7 2.8 79.9.3c88.7.3 86.1.4 94.8-6.3 6.3-4.8 10.8-13.7 10.8-21.5 0-8.5-2.5-14.7-8.4-20.5-9-8.9-4.1-8.5-96-8.4-68 0-80.7.3-84.3 1.5z"/></g><path fill-opacity=".9" stroke="#000" stroke-opacity=".9" stroke-width=".8" d="M154.2 318.7c34.6.2 91 .2 125.5 0 34.6-.1 6.3-.2-62.7-.2s-97.3.1-62.8.2zm0 57c34.6.2 91 .2 125.5 0 34.6-.1 6.3-.2-62.7-.2s-97.3.1-62.8.2z"/></svg>