<svg xmlns="http://www.w3.org/2000/svg" height="24" viewBox="0 -960 960 960" width="24"><path d="M595.58-384.51q47.5-47.59 47.5-115.58t-47.59-115.49-115.58-47.5-115.49 47.59-47.5 115.58 47.59 115.49 115.58 47.5 115.49-47.59M403.5-423.5Q372-455 372-500t31.5-76.5T480-608t76.5 31.5T588-500t-31.5 76.5T480-392t-76.5-31.5M228.62-296.12Q115.16-372.23 61.54-500q53.62-127.77 167.02-203.88Q341.97-780 479.95-780q137.97 0 251.43 76.12Q844.84-627.77 898.46-500q-53.62 127.77-167.02 203.88Q618.03-220 480.05-220q-137.97 0-251.43-76.12"/></svg>