<svg xmlns="http://www.w3.org/2000/svg" width="510.782" height="511.962" viewBox="0 0 510.782 511.962"><path d="M47.084 1.717c8.531-2.295 349.322-2.286 358.812.009 29.576 7.153 51.065 32.999 53.699 64.59.359 4.303.822 7.823 1.029 7.823s4.304-1.968 9.106-4.374c26.836-13.446 38.694-14.333 40.81-3.051.739 3.941.49 4.422-11.352 21.89-13.231 19.519-25.404 44.769-31.697 65.751l-1.415 4.715 14.487 4.585c13.063 4.134 14.679 4.899 16.438 7.784 4.794 7.861 2.658 10.742-18.684 25.201l-17.857 12.097-.254 113.701-.255 113.701h20.958c26.939 0 29.06.964 29.044 13.2-.037 27.855-22.385 56.393-48.373 61.772-3.509.726-53.422.976-158.62.794l-153.5-.266-7.06-2.795c-18.611-7.37-33.137-24.469-38.457-45.273-1.943-7.596-1.983-11.58-1.983-197.592V76.139H8.113l-3.042-2.56C-11.964 59.245 16.927 9.828 47.084 1.717m9.1 19.466c2.902-.409 6.176-.613 7.276-.452 7.883 1.153 10.473 1.868 14.899 4.11 9.318 4.722 19.298 17.535 21.247 27.278l.604 3.02H61.518c-44.285 0-40.046 1.321-34.519-10.759 5.512-12.047 17.461-21.544 29.185-23.197m53.217 3.876-3.611-4.92 141.335.031c152.548.033 152.067.017 163.238 5.39 19.182 9.226 27.519 23.414 28.363 48.267l.482 14.189-13.966 13.811c-37.157 36.745-60.266 84.621-70.773 146.625-1.68 9.914-4.227 19.599-8.457 32.156-8.053 23.91-7.347 31.531 2.921 31.531 8.082 0 9.214-1.728 17.446-26.621l5.661-17.121 12.71-8.529a16884 16884 0 0 0 33.46-22.546l20.75-14.017v212.834H208.992l-3.121 2.788c-2.811 2.511-3.199 3.578-3.924 10.764-4.759 47.206-58.832 57.541-76.214 14.567-2.273-5.619-2.273-5.619-2.813-207.119-.497-185.341-.676-202.001-2.237-207.742-2.288-8.422-6.899-18.368-11.282-24.338m64.322 65.645c4.52-2.452 134.302-2.279 139.237.187 6.054 3.024 7.073 11.619 1.981 16.712-2.003 2.003-3.143 2.04-70.908 2.306l-68.872.27-3.066-2.58c-5.646-4.751-4.813-13.4 1.628-16.895m288.505 7.364c4.875-3.261 9.004-5.929 9.176-5.929.171 0-2.715 5.986-6.415 13.301-24.411 48.266-26.471 66.308-8.273 72.459l8.106 2.74-43.681 29.585c-24.025 16.271-43.787 29.515-43.917 29.43-.596-.389 6.945-28.062 10.086-37.015 16.541-47.148 41.821-82.433 74.918-104.571m-287.953 43.535c5.03-2.188 133.516-2.112 138.139.081 6.516 3.092 7.823 11.331 2.623 16.532l-2.923 2.923H175.113l-3.042-2.56c-5.835-4.91-4.655-13.993 2.204-16.976m.897 50.647c1.996-.586 29.483-.895 69.973-.788l66.685.177 3.065 2.937c4.302 4.123 4.363 10.418.142 14.64l-2.923 2.923h-68.03c-46.785 0-68.774-.339-70.412-1.085-7.873-3.587-6.855-16.35 1.5-18.804m-3.526 53.304 2.606-2.415h137.862l2.923 2.923c2.292 2.293 2.923 3.819 2.923 7.077s-.631 4.784-2.923 7.077l-2.923 2.923H174.252l-2.606-2.415c-4.755-4.407-4.755-10.763 0-15.17m.295 51.335 3.051-2.75h102.122l2.923 2.923c4.077 4.078 4.08 9.75.006 14.311l-2.917 3.266-48.591.286c-15.141.09-35.993-.685-53.414-1.08-2.387-.054-3.266-1.48-4.583-2.697-3.586-3.317-4.05-9.343 1.403-14.259m128.942.173c2.293-2.292 3.819-2.923 7.077-2.923 12.031 0 13.83 17.468 2.092 20.312-9.342 2.263-16.067-10.491-9.169-17.389m51.112 37.059c14.732-5.446 34.519-.491 45.838 11.477 33.028 34.922-6.796 90.183-50.249 69.729-35.53-16.725-32.774-67.46 4.411-81.206m9.465 18.925c6.909-1.717 17.386 1.797 22.128 7.421 14.364 17.034-1.419 43.274-22.67 37.69-23.767-6.247-23.371-39.168.542-45.111M221.2 461.918l1.103-4.779h265.874l-.681 2.75c-2.874 11.619-14.375 25.028-25.219 29.403-5.272 2.127-255.317 4.581-255.317 2.506 0-.217 1.982-3.349 4.404-6.961 4.556-6.795 7.928-14.651 9.836-22.919" fill="#040404" fill-rule="evenodd"/></svg>