<svg xmlns="http://www.w3.org/2000/svg" width="512" height="512" viewBox="0 0 512 512" version="1.1"><path d="" stroke="none" fill="#080404" fill-rule="evenodd"/><path d="M 247.500 1.417 C 243.556 3.178, 239.481 7.602, 237.553 12.218 C 236.169 15.532, 236 35.170, 236 192.852 L 236 369.768 228.624 366.062 C 154.564 328.857, 59.387 384.721, 81.356 452.500 C 105.139 525.876, 233.821 533.101, 268.363 463 C 276.511 446.464, 275.963 460.684, 275.983 265.146 L 276 90.792 283.944 98.266 C 293.623 107.371, 301.160 113.083, 324.500 129 C 371.316 160.928, 383.277 174.672, 390.971 205.383 C 398.744 236.412, 385.042 289.231, 361.752 318.015 C 353.204 328.580, 351.994 334.932, 356.784 344.101 C 382.346 393.032, 445.460 274.039, 431.664 202.924 C 423.243 159.514, 403.583 134.113, 350.652 98.253 C 303.938 66.606, 282.780 43.103, 275.072 14.295 C 272.064 3.055, 258.267 -3.389, 247.500 1.417" stroke="none" fill="#040404" fill-rule="evenodd"/></svg>