<svg xmlns="http://www.w3.org/2000/svg" width="512" height="512" viewBox="0 0 512 512"><path d="M368.5 1.665c-9.845 5.202-10.451 7.443-10.478 38.699L358 66.228l7 12.703 7 12.704v111.883l-6.306 2.261c-8.393 3.011-20.017 9.908-26.462 15.702L334 226.185V203h4.05c9.698 0 14.456-7.585 8.495-13.545L344.091 187H148.349l-2.175 2.314c-5.154 5.487-1.617 12.649 6.64 13.442l5.186.498v55.071l-10.293 10.587c-40.527 41.689-51.754 101.524-29.118 155.186 4.091 9.7 16.599 30.664 19.285 32.324 2.154 1.331 1.055 3.789-10.874 24.325-13.158 22.651-13.307 23.1-9.077 27.33 6.435 6.435 8.802 4.519 21.688-17.56 12.27-21.024 10.958-19.999 17.742-13.859 34.068 30.833 89.05 42.186 134.609 27.794 14.624-4.62 15.381-20.843.777-16.639-37.875 10.902-66.434 9.499-96.332-4.735-121.321-57.759-81.75-241.221 52.093-241.515 25.863-.056 66.644 11.567 64.001 18.241-4.27 10.782-6.316 29.66-4.519 41.696 2.306 15.445 2.334 16.385.633 20.762-.907 2.331-2.485 5.322-3.506 6.648l-1.858 2.409-7.382-7.409c-42.169-42.33-112.06-12.325-109.628 47.064 1.896 46.284 51.097 75.504 91.921 54.591l6.651-3.407 2.692 8.671c25.809 83.146 130.942 108.871 191.727 46.914 38.774-39.52 43.875-97.369 12.845-145.646-7.165-11.147-7.776-13.684-6.018-24.995 6.923-44.54-16.766-86.707-56.809-101.12l-6.25-2.25V91.003l6.75-11.751L436.5 67.5l.297-26.337c.347-30.722-.142-32.889-8.637-38.276L423.608 0l-26.054.04C375.756.074 371.01.339 368.5 1.665m7.25 14.024c-1.603.419-1.75 2.396-1.75 23.511v23.052l5.068 9.374L384.137 81h26.512l5.175-9.37L421 62.261V39.666c0-21.316-.11-22.654-1.934-23.631-1.89-1.011-39.617-1.312-43.316-.346M16.222 73.418c-19.464 6.314-22.058 33.859-4.065 43.163 1.485.768 14.094 4.565 28.021 8.439s27.684 7.717 30.572 8.54l5.25 1.496v20.925c0 22.727.457 25.137 5.13 27.073 8.671 3.591 10.87-1.386 10.87-24.601 0-12.645.343-18.453 1.089-18.453.6 0 13.477 3.429 28.617 7.62 29.804 8.25 32.191 8.514 40.171 4.443 16.303-8.317 16.389-33.174.144-41.548-3.525-1.817-132.438-37.499-137.437-38.042-2.246-.244-6.009.182-8.362.945m2.167 16.924c-3.303 2.841-3.678 7.816-.806 10.68 1.925 1.918 129.28 37.964 134.167 37.974 5.312.01 8.796-7.436 5.536-11.833-1.792-2.417-8.018-4.346-67.38-20.88-72.641-20.232-67.786-19.15-71.517-15.941M388 111v14h19V97h-19zm0 40.5V163h19v-23h-19zm0 38.5v11h19v-22h-19zM78.455 205.455 76 207.909v297.182l2.455 2.454c3.251 3.252 7.843 3.248 11.1-.009l2.464-2.465-.259-149.124-.26-149.124-2.361-1.911c-3.286-2.662-7.705-2.437-10.684.543M174 224.864v21.864l11.288-5.746c6.209-3.161 13.859-6.557 17-7.547l5.712-1.8V203h-34zm50-9.513v12.35l5.25-.952c2.887-.523 12.563-.956 21.5-.961l16.25-.008V203h-43zm58 .515v12.866l10.079 3.196c5.544 1.757 13.475 4.742 17.625 6.633s7.715 3.439 7.921 3.439.375-8.775.375-19.5V203h-36zM388 228v11h19v-22h-19zm-23.231-4.526c-30.371 15.018-46.109 46.787-40.3 81.351 2.51 14.937.66 23.26-7.788 35.033-44.216 61.616-3.339 150.542 71.7 155.981 86.199 6.248 137.525-84.346 89.067-157.207-8.129-12.222-9.345-18.191-7.009-34.39 4.226-29.306-4.889-54.424-25.963-71.549-5.555-4.514-18.111-11.693-20.451-11.693-.686 0-1.025 16.033-1.025 48.46v48.46l5.024 4.699c19.622 18.354 17.263 51.608-4.781 67.394-7.602 5.443-12.944 5.4-15.801-.126-2.116-4.091-.886-7.482 3.924-10.819 19.757-13.708 19.116-39.269-1.249-49.811-30.56-15.82-57.44 28.269-29.179 47.86 9.428 6.536 9.026 16.883-.656 16.883-25.487 0-35.339-48.493-14.302-70.4l6.039-6.29-.259-48.582-.26-48.583zM388 266v11h19v-22h-19zm0 35.75v8.75h19V293h-19zm-152 20.136c-49.725 16.076-43.918 86.761 7.729 94.075 15.84 2.243 40.444-7.344 38.883-15.151-1.614-8.07 2.956-33.638 8.351-46.72l2.809-6.811-2.978-4.784c-11.157-17.926-35.164-26.956-54.794-20.609m124.321 111.303c-5.286 2.555-5.1 11.224.294 13.681 1.689.77 13.442 1.13 36.876 1.13 38.946 0 39.842-.18 39.842-8 0-7.837-.868-8.009-40.139-7.932-22.115.043-35.484.449-36.873 1.121" fill="#040404" fill-rule="evenodd"/></svg>