<svg xmlns="http://www.w3.org/2000/svg" width="512" height="512" viewBox="0 0 512 512" version="1.1"><path d="" stroke="none" fill="#080404" fill-rule="evenodd"/><path d="M 97.241 1.995 C 89.386 6.784, 90.008 -4.240, 90.004 130.267 L 90 250.034 85.017 247.509 C 45.524 227.496, -1.932 259.685, 0.275 304.988 C 3.267 366.410, 87.042 383.975, 113.888 328.807 C 120.308 315.613, 120 322.723, 120 187.738 L 120 64.896 125.222 71.198 C 138.046 86.674, 160.751 107.618, 184.500 125.877 C 224.667 156.759, 214.635 206.716, 167.313 211.469 C 142.961 213.914, 143.676 241.984, 168.090 241.996 C 241.840 242.033, 265.611 148.916, 203.866 101.857 C 169.377 75.571, 152.450 57.773, 129.212 23.360 C 113.091 -0.514, 107.492 -4.255, 97.241 1.995 M 481 125.467 C 474.675 127.282, 426.975 140.794, 375 155.493 C 276.422 183.371, 275.900 183.541, 272.253 188.952 L 270 192.296 270 296.165 L 270 400.034 265.017 397.509 C 225.524 377.496, 178.068 409.685, 180.275 454.988 C 183.488 520.958, 273.560 533.611, 297.245 471.420 C 299.500 465.500, 299.500 465.500, 300 367.062 L 300.500 268.624 331.500 259.862 C 348.550 255.043, 389.387 243.498, 422.250 234.206 L 482 217.312 482 278.673 L 482 340.034 477.017 337.509 C 437.524 317.496, 390.068 349.685, 392.275 394.988 C 395.610 463.471, 493.501 473.038, 510.478 406.540 C 513.175 395.977, 512.728 133.706, 510.005 129.241 C 505.123 121.232, 498.679 120.394, 481 125.467" stroke="none" fill="#040404" fill-rule="evenodd"/></svg>