<svg xmlns="http://www.w3.org/2000/svg" version="1.0" viewBox="0 0 640 640"><path fill="#FF9F20" stroke="#FF9F20" stroke-width=".8" d="M408.3 97.1c-5.3 33.1-28.9 64.6-60.1 80.3-8.8 4.4-23.1 9.3-30.2 10.2-5.3.7-7.9 2.4-3.7 2.4 5.5 0 22.8 5.3 32.2 9.9 32.4 15.8 55.9 46.6 61.9 81.1 1.3 7.4 1.3 7.4 2 3.5 7-38.7 29.7-68.8 64.1-85.1 9-4.3 26-9.4 31.2-9.4 4.2 0 1.6-1.7-3.8-2.4-2.8-.4-8.8-1.8-13.2-3.2-37.5-11.8-67-42.9-75.7-80.1-1.2-4.9-2.4-10.1-2.8-11.7-.6-2.4-.9-1.7-1.9 4.5zm73.3 301.1c-3.5 16.4-11.2 31-23.2 43.8-13 13.7-31 24-47.8 27.2-6.4 1.2-8.9 2.8-4.3 2.8 3.6 0 16.3 3.8 23.2 6.9 9.1 4.2 16.9 9.5 25.4 17.6 13.5 12.8 22.2 28 26.3 45.7l2.2 9.8 1.7-8.3c4-19.9 15.8-39.2 31.8-52.2 11.3-9.1 28.6-17.3 40.6-19.1 4.8-.7 6.2-2.4 2.1-2.4-3.7 0-18.2-4.8-25.1-8.3-25.4-12.7-44-36.7-49.4-63.5l-1.7-8.3z"/><path fill="#FFBF20" fill-opacity=".9" stroke="#FFBF20" stroke-opacity=".9" stroke-width=".8" d="M183.5 433c3.3 3.3 6.2 6 6.4 6 .3 0-2.1-2.7-5.4-6s-6.2-6-6.4-6c-.3 0 2.1 2.7 5.4 6z"/><path fill="#FFBF20" stroke="#FFBF20" stroke-width=".8" d="M232.8 234c-.3 1.4-1.5 7.7-2.7 14-3 15.6-6.9 27.1-14.6 42.5-8.5 17.1-17.5 29.4-31.5 43.6-21 21.1-44.8 35.4-72.3 43.3-9.3 2.7-24 5.5-29.7 5.7-1.9.1 1.2.9 7 1.9 15 2.5 28.7 6.4 41 11.6 51.9 21.9 89.9 68.4 100.1 122.7 1.2 6.2 2.5 12.5 2.9 14.2l.8 3 .1-3.6c.1-2 1-8.2 2.1-13.8 8.8-43.6 34.6-82.2 71.8-107.2 21.6-14.5 42.5-22.3 74.2-27.7 4.8-.8 5-1 1.8-1.1-2 0-8.5-1-14.3-2.1-69.7-13.5-124.3-70.5-134.9-140.9-.9-5.6-1.5-7.7-1.8-6.1z"/></svg>