<svg xmlns="http://www.w3.org/2000/svg" version="1.0" viewBox="0 0 640 640"><path fill="#DBBF40" stroke="#DBBF40" stroke-width=".8" d="M318.6 106.7c-.3 4.2-2 14.3-3.6 22.4-20.1 98.2-76 162.4-159.5 183.4-13.1 3.3-32.3 6.5-38.9 6.5-2 0-3.6.4-3.6 1 0 .5 1.6 1 3.6 1 6.6 0 25.8 3.2 38.9 6.5 67.9 17 116.9 61.9 144.9 132.7 8.1 20.5 16.5 54 18.2 72.7.4 3.9 1 7.1 1.4 7.1s1-3.2 1.4-7.1c1.7-18.6 10.1-52.1 18.2-72.7 27.8-70.6 76.6-115.3 144.8-132.7 13.1-3.3 32.3-6.5 39-6.5 2 0 3.6-.5 3.6-1 0-.6-1.6-1-3.6-1-6.7 0-25.9-3.2-39-6.5-67.7-17.2-116-61.1-144.1-131-8.3-20.7-17.2-55.5-18.9-74.5-.4-3.9-1-7.3-1.4-7.5s-1 3-1.4 7.2z"/></svg>