<svg xmlns="http://www.w3.org/2000/svg" width="520" height="300" viewBox="0 0 520 300" version="1.1"><path d="" stroke="none" fill="#080404" fill-rule="evenodd"/><path d="M 240.500 1.585 C 173.159 16.385, 152.279 111.886, 207.949 150.465 C 212.984 153.954, 212.982 154.389, 207.925 155.904 C 201.238 157.908, 185.073 166.622, 176.203 173.005 L 167.905 178.976 159.003 173.609 C 154.107 170.657, 148.929 167.948, 147.496 167.588 C 144.891 166.935, 144.891 166.935, 150.364 160.887 C 204.047 101.566, 117.348 17.558, 60.735 74.041 C 36.986 97.735, 37.830 151.065, 62.161 164.086 C 65.071 165.644, 64.490 166.244, 55.745 170.719 C 24.176 186.871, 3.650 219.073, 2.260 254.624 C 1.635 270.621, 2.362 272, 11.418 272 C 21.032 272, 21.645 271.220, 22.975 257.276 C 28.516 199.199, 87.445 163.914, 138.190 188.288 C 152.148 194.992, 151.768 194.345, 146.120 201.792 C 114.301 243.742, 105.459 314.275, 133.929 299.038 C 136.582 297.618, 137.766 293.557, 138.438 283.572 C 141.059 244.636, 165.035 206.832, 199.961 186.565 C 277.724 141.439, 374.097 194.206, 381.873 286.168 C 382.917 298.516, 384.074 300, 392.656 300 C 412.867 300, 402.660 241.432, 376.100 205 C 368.115 194.047, 367.820 195.208, 380.185 188.939 C 430.910 163.223, 491.833 198.800, 496.955 257.129 C 498.173 271.006, 498.951 272, 508.582 272 C 517.638 272, 518.365 270.621, 517.740 254.624 C 516.337 218.730, 495.212 185.964, 463.289 170.168 C 455.546 166.337, 454.926 165.645, 457.839 164.086 C 489.161 147.323, 479.926 79.701, 444 62.756 C 381.355 33.208, 323.195 109.569, 369.431 160.661 L 374.993 166.807 372.030 167.840 C 369.394 168.759, 358.083 175.200, 353.932 178.147 C 352.675 179.040, 351.189 178.368, 346.432 174.758 C 338.571 168.792, 324.310 160.691, 315.778 157.343 C 307.205 153.980, 307.144 153.865, 312.116 150.419 C 384.266 100.420, 327.507 -17.539, 240.500 1.585 M 246.512 22.614 C 204.104 32.866, 184.258 81.811, 208.073 117.418 C 237.654 161.645, 302.376 152.607, 319.407 101.871 C 334.135 57.997, 291.574 11.721, 246.512 22.614 M 97.459 78.366 C 64.615 86.536, 53.512 124.225, 77.317 146.738 C 114.514 181.918, 168.977 128.576, 133.818 91.401 C 123.293 80.272, 109.570 75.352, 97.459 78.366 M 407.105 78.583 C 375.508 87.079, 364.705 123.419, 387.114 145.829 C 424.212 182.926, 480.107 128.771, 444.059 90.656 C 433.666 79.667, 419.854 75.154, 407.105 78.583" stroke="none" fill="#040404" fill-rule="evenodd"/></svg>