<svg xmlns="http://www.w3.org/2000/svg" version="1.0" height="310" width="260" viewBox="130 110 390 420"><path d="M143.3 98.1c-9.8 4.8-15.5 15.9-13.3 26.2.6 2.9 1.9 6.6 2.9 8.2 1 1.7 37 42.5 79.9 90.7 59.7 67.2 78.1 88.4 78.4 90.7.2 1.7-.1 4.6-.7 6.4-.7 1.9-33.3 40.7-79.1 94-42.8 49.9-79 92.8-80.4 95.4-4.8 9.1-2.7 20.5 5.2 28 7 6.8-7.3 6.3 183.3 6.3 152.7 0 173-.2 176.2-1.5 5.9-2.5 9.6-5.9 12.8-11.6l3-5.4.3-38.8c.2-25.3-.1-40.7-.8-44.1-2.1-10.3-10.3-16.5-21.6-16.6-10 0-15.9 2.3-22.3 8.9-4.9 4.9-6.3 7.4-11.5 19.9-4.8 11.6-6.5 14.6-8.7 15.8-4.2 2.1-177.6 2.1-181.8-.1-3.2-1.6-4.1-3.3-4.1-7.6 0-3.4-3.7 1 62.9-73.9 28.1-31.6 52-59.3 53.1-61.6 2.6-5.3 2.7-15.4.1-20.9-1.1-2.2-26.8-35.7-57.2-74.5-60.1-76.6-58.3-73.8-52.9-79.5l2.4-2.5 88.3.2 88.3.3 2.4 2.5c1.8 1.9 3.8 7.7 8 22.9 3.1 11.2 6.5 22 7.6 24.1 4 7.8 13.8 14 23.6 14.8 10.2.8 17.2-2.8 21.7-11.2 2.2-4 2.2-4.7 2.2-46.6v-42.5l-3-5.4c-3.2-5.7-6.9-9.1-12.8-11.6-3.2-1.3-23.5-1.5-175.9-1.5H147.5z"/></svg>