<svg xmlns="http://www.w3.org/2000/svg" viewBox="0 0 640 640"><path d="M208 104.1c-3 .1-7.1.6-9 1.2-2.7.8-14.1 11.6-47.3 44.6-28.8 28.7-44.4 45-45.7 47.7s-2 6.1-2 10.2c0 3.5.7 7.9 1.5 10 1.1 2.5 15.3 17.4 44.3 46.6 33.4 33.5 43.8 43.3 47.7 45.2 3.4 1.6 6.8 2.4 10.5 2.4s7.1-.8 10.5-2.4c2.8-1.3 6-3.4 7.2-4.7s3.1-4.4 4.2-6.9c1.3-2.8 2.1-6.6 2.1-10s-.8-7.2-2.1-10c-1.4-3.2-8-10.5-22.7-25.3L186.5 232h267l5-2.4c2.8-1.3 6-3.4 7.2-4.7s3.1-4.4 4.2-6.9c1.3-2.8 2.1-6.6 2.1-10 0-3.7-.8-7.2-2.4-10.6-1.3-2.8-4-6.4-6-8.1-2.1-1.7-5.4-3.5-7.5-4.2-2.8-.8-40-1.1-136.7-1.1H186.5l20.7-20.8c14.7-14.7 21.3-22 22.7-25.2 1.3-2.7 2.1-6.7 2.1-10 0-3.7-.8-7.1-2.4-10.5-1.3-2.8-3.4-6-4.7-7.2s-4.4-3.1-6.9-4.2c-2.9-1.3-6.5-2-10-2m224 224c-3 .1-7.1.6-9 1.2s-5.5 3.2-8 5.7c-2.7 2.7-5 6.1-5.8 8.6-.6 2.3-1.2 6.3-1.2 9s.9 6.9 2.1 9.4c1.4 3.2 8 10.5 22.7 25.2l20.7 20.8H320.6c-101.8 0-133.8.3-137 1.2-2.5.8-5.9 3.1-8.6 5.8s-5 6.1-5.8 8.6c-.6 2.3-1.2 6.1-1.2 8.4s.5 6 1.1 8.1c.7 2.1 2.5 5.4 4.2 7.5 1.7 2 5.3 4.7 8.1 6l5.1 2.4h266.9l-21.5 21.7c-17.6 17.8-21.7 22.5-22.7 25.9-.7 2.3-1.2 6.3-1.2 9 0 2.8.9 6.9 2.1 9.4 1.1 2.5 3 5.6 4.2 6.9s4.5 3.4 7.2 4.7c3.4 1.6 6.8 2.4 10.5 2.4s7.1-.8 10.5-2.4c3.9-1.9 14.3-11.7 47.7-45.2 29-29.2 43.2-44.1 44.3-46.6.8-2.1 1.5-6.5 1.5-9.8s-.7-7.7-1.5-9.8c-1.1-2.5-15.3-17.4-44.3-46.6-33.4-33.5-43.8-43.3-47.7-45.2-3.5-1.7-6.6-2.4-10.5-2.3"/></svg>