<svg xmlns="http://www.w3.org/2000/svg" viewBox="60 30 550 550"><path d="M343 66.3c-15.7 4.7-9.5-1-145.2 134.6-138.2 138.2-130.4 129.6-133 145-1.5 8.7-.1 16.9 4.3 26.1 2.9 6 11 14.4 97.8 101.1C253.6 559.9 262 568 268 570.9c9.2 4.4 17.4 5.8 26.1 4.3 15.3-2.6 6.9 5.1 144.5-132.4 137.1-137 130.8-130.1 135.3-146.8 2-7.3 2.1-9.8 2.1-99.6 0-57.5-.4-94.2-1-97.5-3.2-16.9-17-30.7-34-33.9-3.3-.6-39.6-1-97.9-.9h-92.6zm117 84.9c20 6 32.9 26.2 30 46.9-2.6 18.2-17.7 33.3-35.9 35.9-27.9 3.9-52-20.2-48.1-48.1 3.6-25.2 29.7-42 54-34.7"/></svg>