<svg version="1.0" xmlns="http://www.w3.org/2000/svg" width="682.888" height="469.427" viewBox="0 0 512.166 352.07"><path d="M64.583.7c-14.1 1.2-30.5 7.4-40.3 15.2-11.4 9.1-19.6 24.2-22.7 41.6-2 11.8-2.1 55-.1 59.8 1.7 4.3 6.8 8.5 10.9 9.1 1.8.2 6.6.9 10.7 1.5 21 3.1 36.8 19 40.2 40.3 4.2 27.3-13.6 52-40.2 55.9-4.1.6-8.9 1.3-10.7 1.5-4.1.6-9.2 4.8-10.9 9.1-2 4.8-1.9 48 .1 59.8 4.2 23.9 16.1 40.3 36 49.6 16.8 7.8 6.4 7.3 152.7 7.6l130.7.4.3-25.8c.3-22.6.5-26.2 2.1-29.1 4.9-8.9 19.1-9.7 25.2-1.4 1.8 2.5 2 4.7 2.5 29.2l.5 26.5h49.5c55.7 0 58.1-.2 73.5-7.4 19.9-9.4 31.8-25.8 36-49.6 2-11.8 2.1-55 .1-59.8-1.7-4.3-6.8-8.5-10.9-9.1-21-2.9-27.5-5.4-36.6-14.1-20-19.1-20-51.9 0-71 9.1-8.7 15.6-11.2 36.6-14.1 4.1-.6 9.2-4.8 10.9-9.1 2-4.8 1.9-48-.1-59.8-4.2-23.8-16.1-40.2-36-49.6-15.4-7.2-17.8-7.4-73.5-7.4h-49.5l-.5 26.5c-.5 24.5-.7 26.7-2.5 29.2-6.1 8.3-20.3 7.5-25.2-1.4-1.6-2.9-1.8-6.5-2.1-29.1l-.3-25.7-126.2.2c-69.4.1-128 .3-130.2.5m279.3 98.3c6.7 4.1 7.2 6.1 7.2 29 0 23.8-.5 25.6-8.6 29.1-5.8 2.6-11.3 1.8-16-2.3-4.9-4.3-5.6-8.3-5.2-29.2.3-15.9.5-18.5 2.3-21.5 3.9-6.7 13.7-9.1 20.3-5.1m-1.1 96c7.7 3.5 8.3 5.4 8.3 29 0 18.7-.2 20.8-2 23.8-5.8 9.4-19.9 9.5-25.5.1-1.7-3-2-5.6-2.3-20.3-.4-20.4.1-24.6 3.6-28.7 4.9-5.9 10.8-7.2 17.9-3.9" fill="#fff"/></svg>