<svg xmlns="http://www.w3.org/2000/svg" version="1.0" viewBox="0 0 640 640"><path fill-opacity=".7" stroke="#000" stroke-opacity=".7" stroke-width=".8" d="M468.8 482.7c13.8.2 36.6.2 50.5 0 13.8-.1 2.5-.2-25.3-.2s-39.1.1-25.2.2z"/><path fill-opacity=".9" stroke="#000" stroke-opacity=".9" stroke-width=".8" d="M524 382.5c3 3 5.7 5.5 5.9 5.5.3 0-1.9-2.5-4.9-5.5s-5.7-5.5-5.9-5.5c-.3 0 1.9 2.5 4.9 5.5z"/><path stroke="#000" stroke-width=".8" d="M229.1 139.5c-18.7 4.1-31.2 10.7-45 23.9-36.7 35.1-37.3 93.4-1.4 128.9 8.1 8 14.5 12.7 23.3 17.2 28.6 14.5 64 12.5 90.5-5 8.1-5.4 18.8-15.6 24.1-23.1 5.9-8.2 11.7-20.9 14.5-31.4 3.1-11.9 3.1-30 .1-42.3-8.5-34.5-36-61-70.4-68.1-9.4-1.9-26.9-2-35.7-.1zm203.2 53.7c-25.3 2.6-47.9 21-56.4 45.8-3 8.8-3.8 26.7-1.5 36.3 5.7 24.5 25.8 44.6 50.2 50.3 35.7 8.2 72.5-14.4 80.9-49.7 1.9-8.2 1.9-23.6-.1-31.9-7.6-32.5-39.1-54.4-73.1-50.8zM222 347.5c-78 12.5-137.7 78.2-140.7 155-.5 13.5-.4 14.1 1.8 17.4 1.3 1.9 4 4.4 5.9 5.5 3.5 2.1 3.9 2.1 158 2.1 152.7 0 154.5 0 157.9-2 6.9-4.1 7.6-6.1 7.5-21.3-.2-22.2-5.2-41.9-16.9-65.7-9.7-20-20.9-34.7-38-50.3-22.5-20.5-52.2-34.8-83.4-40.1-14.5-2.5-38.5-2.7-52.1-.6zm207 .2c-7.6.8-19.9 3.7-28 6.5-8.6 3.1-20 8.4-20 9.4 0 .2 3.8 4.4 8.5 9.1 25.7 25.8 45.1 62.3 52.5 98.5 1.1 5.3 2 9.9 2 10.2s23.3.6 51.8.6c57.8 0 56 .2 61.1-7.1 2.2-3.3 2.3-3.9 1.8-15.9-1.1-22.6-8.9-44.3-22.8-63.1-6.1-8.3-20.5-22.2-28.8-27.8C485 353 454.2 345 429 347.7z"/></svg>