<svg xmlns="http://www.w3.org/2000/svg" width="512" height="512" viewBox="0 0 512 512" version="1.1"><path d="" stroke="none" fill="#080404" fill-rule="evenodd"/><path d="M 23 32.931 C 14.651 35.494, 7.101 41.891, 2.856 50 L 0.500 54.500 0.500 256 L 0.500 457.500 2.856 462 C 6.066 468.131, 11.507 473.644, 17.500 476.836 L 22.500 479.500 256 479.500 L 489.500 479.500 494.540 476.839 C 500.745 473.564, 506.908 466.977, 509.360 461 C 510.375 458.525, 511.609 455.719, 512.103 454.764 C 513.393 452.267, 513.291 55.702, 512 56.500 C 511.450 56.840, 511 56.402, 511 55.526 C 511 49.888, 502.143 39.119, 494 34.856 L 489.500 32.500 257.500 32.332 C 129.900 32.239, 24.375 32.509, 23 32.931 M 27.315 49.102 C 23.026 50.343, 18.300 55.260, 17.041 59.791 C 15.650 64.799, 15.606 447.042, 16.996 452.044 C 18.221 456.456, 23.526 461.717, 28.058 463.017 C 32.763 464.366, 479.186 464.354, 484.044 463.004 C 488.456 461.779, 493.717 456.474, 495.017 451.942 C 496.363 447.246, 496.363 64.754, 495.017 60.058 C 493.717 55.526, 488.456 50.221, 484.044 48.996 C 479.394 47.704, 31.787 47.808, 27.315 49.102 M 0.490 256 C 0.490 365.725, 0.607 410.613, 0.750 355.750 C 0.893 300.887, 0.893 211.113, 0.750 156.250 C 0.607 101.387, 0.490 146.275, 0.490 256 M 55.137 73.369 C 50.065 75.205, 44.531 80.340, 42.138 85.430 C 40 89.978, 40 89.978, 40 215.123 C 40 354.103, 39.571 345.627, 46.972 353.028 C 54.458 360.514, 39.962 360, 243.692 360 L 427.651 360 429.826 357.686 C 432.801 354.518, 432.739 349.043, 429.694 346.182 C 427.388 344.016, 427.388 344.016, 244.222 343.758 C 15.637 343.436, 36.750 357.396, 111.494 256 C 181.674 160.797, 174.846 169.012, 183.800 169.004 C 192.811 168.996, 189.047 164.794, 246.951 239.500 C 298.776 306.363, 296.772 304, 301.656 304 C 313.279 304, 312.529 296.443, 299.208 279.349 C 293.273 271.732, 288.105 264.992, 287.725 264.372 C 286.826 262.907, 332.159 205.138, 336.232 202.558 C 347.276 195.560, 348.739 196.861, 394.759 254.583 C 416.720 282.129, 435.470 304.966, 436.426 305.333 C 442.404 307.627, 448 304.021, 448 297.875 C 448 291.292, 367.653 191.973, 358.500 187.243 C 338.328 176.817, 329.270 182.162, 296.755 223.677 L 276.252 249.854 243.885 208.177 C 200.029 151.709, 200.342 152.002, 184 152.002 C 166.570 152.002, 169.483 148.906, 106.884 233.948 L 56.500 302.396 56.245 199.094 C 55.972 88.376, 55.819 91.919, 61 89.290 C 62.999 88.275, 102.326 88.069, 257.222 88.261 L 450.945 88.500 453.222 90.778 C 455.500 93.056, 455.500 93.056, 455.500 215.923 C 455.500 354.075, 456.189 342.166, 448.113 343.604 C 436.461 345.678, 437.293 360.016, 449.064 359.990 C 457.862 359.971, 466.083 354.455, 469.916 346 C 472.426 340.463, 473.242 95.914, 470.778 87.616 C 469.170 82.204, 461.796 74.830, 456.384 73.222 C 450.414 71.449, 60.047 71.592, 55.137 73.369 M 263 112.935 C 244.670 118.531, 234.701 139.718, 242.432 156.648 C 256.716 187.928, 301.902 179.610, 303.791 145.352 C 304.992 123.570, 283.670 106.625, 263 112.935 M 270.500 128.468 C 269.950 128.664, 268.322 129.083, 266.883 129.398 C 256.694 131.630, 253.332 146.798, 261.267 154.733 C 272.470 165.937, 291.036 155.185, 286.952 139.858 C 285.980 136.212, 279.223 129.013, 276.747 128.986 C 276.061 128.979, 274.600 128.779, 273.500 128.542 C 272.400 128.305, 271.050 128.272, 270.500 128.468 M 58.174 378.314 C 54.665 382.050, 54.788 434.513, 58.314 437.826 C 62.601 441.853, 95.750 426.291, 109.750 413.678 C 116.739 407.382, 113.811 404.069, 87.186 388.147 C 65.163 374.978, 62.239 373.987, 58.174 378.314 M 143 385.314 C 131.194 389.056, 124.566 405.829, 130.084 418 C 140.731 441.484, 175.911 433.817, 175.968 408 C 176.006 391.037, 159.903 379.956, 143 385.314 M 72 408 C 72 413.042, 72.364 417.017, 72.809 416.833 C 88.144 410.516, 88.144 405.484, 72.809 399.167 C 72.364 398.983, 72 402.958, 72 408 M 149.465 400.961 C 141.848 404.014, 143.844 415.333, 152 415.333 C 156.052 415.333, 159.333 412.052, 159.333 408 C 159.333 402.989, 153.963 399.158, 149.465 400.961 M 186.174 402.314 C 183.195 405.486, 183.261 410.957, 186.314 413.826 C 188.629 416, 188.629 416, 320.140 416 L 451.651 416 453.826 413.686 C 456.805 410.514, 456.739 405.043, 453.686 402.174 C 451.371 400, 451.371 400, 319.860 400 L 188.349 400 186.174 402.314" stroke="none" fill="#040404" fill-rule="evenodd"/></svg>