<svg xmlns="http://www.w3.org/2000/svg" width="512" height="512" viewBox="0 0 512 512"><path d="M80.365 16.486c-29.284 6.403-53.171 28.772-62.521 58.549L15.5 82.5v346l1.777 6.5c7.859 28.751 30.972 51.864 59.723 59.723l6.5 1.777h345l6.5-1.777c28.661-7.834 51.889-31.062 59.723-59.723l1.777-6.5v-345l-1.777-6.5c-7.785-28.482-30.231-51.115-59.223-59.717l-6-1.78-171.5-.179-171.5-.179zm8.126 46.379c-8.466 3.846-13.024 12.096-12.289 22.246l.426 5.899 2.942 4.245 2.942 4.245 5.424 2.75 5.423 2.75h14.954c23.459 0 31.421-4.506 34.107-19.304l.691-3.803-1.512-5.201-1.512-5.201-3.794-3.636c-2.086-1.999-5.233-4.359-6.993-5.245L126.099 61l-16.799.022-16.8.022zM187 62.594c-4.581 1.984-8.699 5.964-11.195 10.819l-2.012 3.914.384 6.793.384 6.794 2.975 4.293 2.976 4.293 5.424 2.75 5.423 2.75h14.954c20.5 0 26.804-2.428 31.816-12.253l2.071-4.059V77.312l-2.008-3.906c-2.549-4.957-6.663-8.87-11.41-10.853L223.064 61l-16.282.039-16.282.039zm97.5.065c-4.443 2.338-8.427 6.343-10.692 10.747l-2.008 3.906v11.376l2.071 4.059c5.012 9.825 11.316 12.253 31.816 12.253h14.954l5.423-2.75 5.424-2.75 2.942-4.245 2.942-4.245.426-5.899c.735-10.15-3.823-18.4-12.289-22.246l-4.009-1.821-17 .018-17 .018zm97.441.311c-5.676 3.001-9.873 7.987-11.535 13.706l-1.517 5.217.691 3.803c2.706 14.908 10.439 19.29 34.056 19.298l15.136.006 5.347-2.793 5.347-2.794 2.953-4.201 2.953-4.202.426-5.899c.735-10.15-3.823-18.4-12.289-22.246l-4.009-1.821-17 .022-17 .022zM204.127 168.166l-4.373 2.165-1.855 4.084-1.855 4.085-.022 77.23-.022 77.23 1.614 4.033c2.907 7.266 11.258 10.778 18.422 7.747 13.39-5.665 112.49-79.426 114.149-84.962l1.132-3.778-1.132-3.778c-1.66-5.541-3.075-6.657-58.685-46.303-62.179-44.329-58.384-42.202-67.373-37.753M87.936 409.75l-5.424 2.75-2.942 4.245-2.942 4.245-.426 5.899c-.735 10.15 3.823 18.4 12.289 22.246l4.009 1.821 16.8.022 16.799.022 3.201-1.61c1.76-.886 4.907-3.246 6.993-5.245l3.794-3.636 1.512-5.201 1.512-5.201-.691-3.803C139.734 411.506 131.772 407 108.313 407H93.359zm100.303-1.415c-5.025 1.822-9.801 6.128-12.127 10.934L174 423.631v11.449l1.908 3.71c2.455 4.773 6.622 8.699 11.31 10.657l3.718 1.553h32.128l3.718-1.553c4.747-1.983 8.861-5.896 11.41-10.853l2.008-3.906v-11.376l-2.071-4.059c-5.533-10.845-33.323-16.927-49.89-10.918m98 0c-4.901 1.777-9.991 6.259-12.341 10.866l-2.098 4.111v11.376l2.008 3.906c2.549 4.957 6.663 8.87 11.41 10.853l3.718 1.553 16.282-.022 16.282-.022 4.009-1.821c8.466-3.846 13.024-12.096 12.289-22.246l-.426-5.899-2.942-4.245-2.942-4.245-5.424-2.75-5.423-2.75-15.57.076-15.571.076zm98.261-.274c-6.948 2.039-13.414 9.945-14.92 18.243l-.691 3.803 1.517 5.217c1.692 5.822 5.936 10.79 11.751 13.756l3.763 1.92 16.79-.022 16.79-.022 4.009-1.821c8.466-3.846 13.024-12.096 12.289-22.246l-.426-5.899-2.953-4.202-2.953-4.201-5.347-2.794-5.347-2.793-15.636.09c-8.6.05-16.986.487-18.636.971" fill="#040404" fill-rule="evenodd"/></svg>