<svg version="1.1" xmlns="http://www.w3.org/2000/svg" xmlns:xlink="http://www.w3.org/1999/xlink" width="511.54274" height="475.36492" viewBox="0,0,511.54274,475.36492"><g transform="translate(13.5643,57.86492)"><g data-paper-data="{&quot;isPaintingLayer&quot;:true}" fill-rule="evenodd" stroke="none" stroke-width="1" stroke-linecap="butt" stroke-linejoin="miter" stroke-miterlimit="10" stroke-dasharray="" stroke-dashoffset="0" style="mix-blend-mode: normal"><path d="" fill="#080404"/><path d="M261.16665,-56.593c4.217,-1.837 8.342,-1.688 13.05,0.472c6.841,3.138 191.865,110.23 194.345,112.487c9.739,8.863 9.47,9.646 -22.27,64.634l-27.417,47.5l15.671,0.5c27.866,0.889 23.035,-11.89 44.718,118.295c9.851,59.147 18.258,107.325 18.682,107.063c0.30611,6.90478 -1.483,16.547 -7.424,20.785l-3.305,2.357h-245.578h-245.578l-3.673,-2.802c-8.952,-6.828 -9.784,2.261 11.495,-125.577c22.872,-137.405 11.746,-120.113 77.296,-120.141l46.038,-0.02l62.975,-109.17c65.106,-112.866 65.904,-114.174 70.975,-116.383M259.07565,5.791c7.777,-13.589 14.449,-24.614 14.825,-24.5c0.376,0.115 36.862,21.099 81.08,46.632l80.396,46.422l-9.58,16.591c-5.269,9.125 -31.593,54.722 -58.497,101.327l-48.917,84.737h-50.876h-50.876l-42.763,-24.68l-42.764,-24.68l56.915,-98.57c31.304,-54.213 63.279,-109.689 71.057,-123.279M51.23565,204.25c0.519,-2.25 0.519,-2.25 28.586,-2.25h28.067l-3.5,6.25c-1.925,3.438 -5.338,9.393 -7.586,13.234c-9.792,16.737 -7.518,19.99 28.414,40.645l25,14.371l-32,0.5c-36.567,0.571 -37.037,0.674 -41.25,8.985c-4.353,8.588 -1.579,17.578 6.716,21.765c7.042,3.554 309.023,3.554 316.072,0c11.565,-5.832 11.566,-22.332 0.002,-28.447c-4.111,-2.174 -5.434,-2.303 -23.697,-2.303c-10.639,0 -19.308,-0.337 -19.265,-0.75c0.042,-0.413 9.605,-17.175 21.25,-37.25l21.172,-36.5l16.225,-0.275c16.159,-0.273 16.227,-0.265 16.75,2c0.288,1.251 7.201,42.438 15.36,91.525l14.835,89.25h-220.67h-220.67l14.835,-89.25c8.159,-49.087 15.069,-90.262 15.354,-91.5" fill="#040404"/></g></g></svg>