<svg xmlns="http://www.w3.org/2000/svg" width="511.543" height="475.365" viewBox="0 0 511.543 475.365"><path d="M274.731 1.272c4.217-1.837 8.342-1.688 13.05.472 6.84 3.138 191.865 110.23 194.345 112.487 9.739 8.863 9.47 9.646-22.27 64.634l-27.417 47.5 15.67.5c27.867.889 23.036-11.89 44.719 118.295 9.85 59.147 18.258 107.325 18.682 107.063.306 6.905-1.483 16.547-7.424 20.785l-3.305 2.357H9.624l-3.673-2.802c-8.952-6.828-9.784 2.261 11.495-125.577 22.873-137.405 11.747-120.113 77.297-120.141l46.038-.02 62.975-109.17C268.862 4.789 269.66 3.481 274.731 1.272m-2.091 62.384c7.777-13.589 14.449-24.614 14.825-24.5s36.862 21.099 81.08 46.632l80.396 46.422-9.58 16.591c-5.27 9.125-31.593 54.722-58.497 101.327l-48.917 84.737H230.194l-42.763-24.68-42.764-24.68 56.915-98.57c31.304-54.213 63.279-109.689 71.057-123.279M64.8 262.115c.519-2.25.519-2.25 28.586-2.25h28.067l-3.5 6.25a971 971 0 0 1-7.586 13.234c-9.792 16.737-7.518 19.99 28.414 40.645l25 14.371-32 .5c-36.567.571-37.037.674-41.25 8.985-4.353 8.588-1.58 17.578 6.716 21.765 7.042 3.554 309.023 3.554 316.072 0 11.565-5.832 11.566-22.332.002-28.447-4.111-2.174-5.434-2.303-23.697-2.303-10.64 0-19.308-.337-19.265-.75s9.605-17.175 21.25-37.25l21.172-36.5 16.225-.275c16.159-.273 16.227-.265 16.75 2 .288 1.251 7.2 42.438 15.36 91.525l14.835 89.25H34.611l14.835-89.25c8.159-49.087 15.069-90.262 15.354-91.5" fill="#040404" fill-rule="evenodd"/></svg>