<svg version="1.0" xmlns="http://www.w3.org/2000/svg" width="626.465" height="606.67" viewBox="0 0 469.849 455.002"><path d="M150.192 1.502c-8.7 6.1-11.1 35.1-17.8 211.5-1.8 46.6-4 85-6 104.5-.8 7.7-1.5 14.7-1.6 15.5 0 .8-.4.2-.9-1.3-1.6-5.2-4-32.2-6.5-72.7-4.4-70-6.8-89.9-12.6-101.1-2.5-5-5.4-6.9-10.5-6.9-3.1 0-5.1.7-7.4 2.6-7.2 6.1-10.6 18.6-15.5 58-3.7 30-6.7 49.3-8.5 53.9-1.3 3.4-2.8 2.4-7-5-3.8-6.6-9.7-12-14.7-13.4-2.1-.6-11.1-1.1-20.1-1.1-16 0-16.3 0-18.7 2.5-3.2 3.1-3.2 6.9 0 10 2.3 2.4 2.8 2.5 16.9 2.5 8 0 15.6.4 17 1 1.5.5 3.8 3 5.4 5.7 8.7 15.2 21.9 20.5 29.9 12 6.1-6.3 8.6-16.7 13.3-55.2 4.1-33.6 7.5-54.4 8.7-53.2 1.8 1.9 5.2 35.3 7.8 77.2 5.2 85.2 8.7 105.9 18.5 111 3.7 1.9 8 1.9 10.8-.1 8.2-5.7 11.8-30.9 15.7-109.4 2-41.6 2.3-49.7 4-94 2-53.6 4.5-100 5.4-103 1.5-4.8 4.1 49.8 8.1 170 5.6 168 8.7 214.6 15.1 227.1 2 4 3.5 4.9 8.3 4.9 5.5 0 8.6-4.5 10.9-16 3.9-19.3 5.9-48.1 9.7-142.5 3.3-81.7 8-165.9 9.4-167.2.9-.9 3.7 39.9 6.6 93.7 5.2 97.7 8.5 123.7 16.7 132.2 2.2 2.3 3.5 2.8 7.4 2.8 13.8 0 17.2-13.8 21.9-90 2.7-44.1 4.7-64.6 7.6-79.3 2-9.9 4.8 7.8 7.9 50.3 3 41.5 6.3 55.2 15 62.8 7 6.2 18.6 3.5 24.4-5.7 3.9-6.2 5.7-12.7 8.7-31.5 3.6-23.7 4.5-26.3 8.7-25.2 2 .5 3.5 2.7 7.5 10.9 5.4 11.3 8.8 15 15.5 16.8 4.8 1.3 12.6.5 17.1-1.8 1.7-.8 6.2-4.5 9.9-8.1 6.3-6 7-6.4 10.5-5.9 2 .3 6.3 2.1 9.5 4 8 4.8 15.3 6 36.3 5.5 15.2-.3 17.4-.5 19.3-2.2 2.7-2.4 2.8-7.6.2-10.7-1.9-2.4-2.3-2.4-22.8-2.9l-20.8-.5-7.8-4.3c-7-3.8-8.5-4.2-14.5-4.2-8.2 0-11.4 1.5-19.1 9.4-6 5.9-11.2 8.3-14.5 6.4-.9-.5-3.6-5.1-5.9-10.1-5.2-11-10-15.8-17.4-17.6-10.5-2.5-18.4 2.5-22.2 14.1-1.1 3.5-3.4 14.5-5 24.6-2.9 17.2-5.8 27.2-7.9 27.2-1.6 0-4.1-7.6-5.7-17.3-.8-5-2.4-20.7-3.5-34.7-4-49.8-6.7-62.7-14.3-69.8-5.4-5.1-14.7-3.5-18.8 3.1-6.1 10-8.7 28.1-12.9 90.2-3.3 48.3-5.7 71.8-7 69.4-2.2-4-5.9-52.3-9.5-126.4-4.1-82-7.1-105.8-14.2-112.9-3.5-3.5-10-3.6-13.1-.3-7.8 8.2-11.1 42.1-16.2 161.7-3.5 84.4-6.9 149.4-7.6 148.7-1.1-1.1-4.3-70.2-7.9-173.2-6.3-177.3-9.3-218-17.1-226.6-2.1-2.3-9-2.6-12.1-.4"/></svg>